STARTFONT 2.1
FONT kc15f
SIZE 24 100 100
FONTBOUNDINGBOX 16 15 0 -1

STARTPROPERTIES 10
COPYRIGHT "Kc"
POINT_SIZE 240
WEIGHT 10
RESOLUTION_X 100
RESOLUTION_Y 100
X_HEIGHT 2147483647
QUAD_WIDTH 16
DEFAULT_CHAR 41280
FONT_DESCENT 1
FONT_ASCENT 14
ENDPROPERTIES

CHARS 14219

STARTCHAR 0
ENCODING 41280
SWIDTH 640 0
DWIDTH 16 0
BBX 16 16 0 -1
BITMAP
0000
0000
0000
0000
0000
0000
0000
0000
0000
0000
0000
0000
0000
0000
0000
0000
ENDCHAR

STARTCHAR 1
ENCODING 41281
SWIDTH 640 0
DWIDTH 16 0
BBX 16 16 0 -1
BITMAP
0000
0000
0000
0000
0000
0000
0000
0000
0C00
1E00
1E00
0C00
0400
0800
0000
0000
ENDCHAR

STARTCHAR 2
ENCODING 41282
SWIDTH 640 0
DWIDTH 16 0
BBX 16 16 0 -1
BITMAP
0000
0000
0000
0000
0000
0000
0000
0000
0000
0800
0400
0600
0700
0300
0000
0000
ENDCHAR

STARTCHAR 3
ENCODING 41283
SWIDTH 640 0
DWIDTH 16 0
BBX 16 16 0 -1
BITMAP
0000
0000
0000
0000
0000
0000
0000
0000
0000
0000
0700
0880
0880
0700
0000
0000
ENDCHAR

STARTCHAR 4
ENCODING 41284
SWIDTH 640 0
DWIDTH 16 0
BBX 16 16 0 -1
BITMAP
0000
0000
0000
0000
0000
0000
0000
0000
0000
0000
0600
0F00
0F00
0600
0000
0000
ENDCHAR

STARTCHAR 5
ENCODING 41285
SWIDTH 640 0
DWIDTH 16 0
BBX 16 16 0 -1
BITMAP
0000
0000
0000
0000
0000
0000
0000
0000
0000
0000
0700
0F80
0F80
0700
0000
0000
ENDCHAR

STARTCHAR 6
ENCODING 41286
SWIDTH 640 0
DWIDTH 16 0
BBX 16 16 0 -1
BITMAP
0000
0000
0000
0000
0600
0F00
0600
0000
0000
0600
0F00
0600
0200
0400
0000
0000
ENDCHAR

STARTCHAR 7
ENCODING 41287
SWIDTH 640 0
DWIDTH 16 0
BBX 16 16 0 -1
BITMAP
0000
0000
0000
0000
0000
0000
0600
0F00
0600
0000
0000
0600
0F00
0600
0000
0000
ENDCHAR

STARTCHAR 8
ENCODING 41288
SWIDTH 640 0
DWIDTH 16 0
BBX 16 16 0 -1
BITMAP
0000
0000
07C0
0C60
1030
1830
1830
0060
00C0
0180
0180
0000
0000
0180
0180
0000
ENDCHAR

STARTCHAR 9
ENCODING 41289
SWIDTH 640 0
DWIDTH 16 0
BBX 16 16 0 -1
BITMAP
0000
0000
0000
0180
03C0
03C0
03C0
0180
0180
0180
0000
0000
0180
0180
0000
0000
ENDCHAR

STARTCHAR 10
ENCODING 41290
SWIDTH 640 0
DWIDTH 16 0
BBX 16 16 0 -1
BITMAP
0000
0000
0000
0000
0000
0080
01C0
0080
0000
0000
0080
01C0
0080
0000
0000
0000
ENDCHAR

STARTCHAR 11
ENCODING 41291
SWIDTH 640 0
DWIDTH 16 0
BBX 16 16 0 -1
BITMAP
0000
0000
0000
0000
0000
0000
0000
18C6
3DEF
18C6
0000
0000
0000
0000
0000
0000
ENDCHAR

STARTCHAR 12
ENCODING 41292
SWIDTH 640 0
DWIDTH 16 0
BBX 16 16 0 -1
BITMAP
0000
0000
0000
0000
0000
0000
0000
0C18
1E3C
0C18
0000
0000
0000
0000
0000
0000
ENDCHAR

STARTCHAR 13
ENCODING 41293
SWIDTH 640 0
DWIDTH 16 0
BBX 16 16 0 -1
BITMAP
0000
0000
0000
0000
0000
0000
0000
0000
0000
0600
0F00
0600
0200
0400
0000
0000
ENDCHAR

STARTCHAR 14
ENCODING 41294
SWIDTH 640 0
DWIDTH 16 0
BBX 16 16 0 -1
BITMAP
0000
0000
0000
0000
0000
0000
0000
0000
0000
0000
0800
0600
0700
0300
0000
0000
ENDCHAR

STARTCHAR 15
ENCODING 41295
SWIDTH 640 0
DWIDTH 16 0
BBX 16 16 0 -1
BITMAP
0000
0000
0000
0000
0000
0000
0000
0000
0000
0000
0400
0E00
0400
0000
0000
0000
ENDCHAR

STARTCHAR 16
ENCODING 41296
SWIDTH 640 0
DWIDTH 16 0
BBX 16 16 0 -1
BITMAP
0000
0000
0000
0000
0000
0000
0000
0000
0000
0600
0F00
0F00
0600
0000
0000
0000
ENDCHAR

STARTCHAR 17
ENCODING 41297
SWIDTH 640 0
DWIDTH 16 0
BBX 16 16 0 -1
BITMAP
0000
0000
0000
0000
0600
0F00
0600
0000
0000
0600
0F00
0600
0200
0400
0000
0000
ENDCHAR

STARTCHAR 18
ENCODING 41298
SWIDTH 640 0
DWIDTH 16 0
BBX 16 16 0 -1
BITMAP
0000
0000
0000
0000
0000
0400
0E00
0400
0000
0000
0400
0E00
0400
0000
0000
0000
ENDCHAR

STARTCHAR 19
ENCODING 41299
SWIDTH 640 0
DWIDTH 16 0
BBX 16 16 0 -1
BITMAP
0000
0000
0000
0000
0700
0880
0080
0100
0200
0200
0000
0200
0200
0000
0000
0000
ENDCHAR

STARTCHAR 20
ENCODING 41300
SWIDTH 640 0
DWIDTH 16 0
BBX 16 16 0 -1
BITMAP
0000
0000
0000
0000
0300
0780
0780
0780
0300
0300
0000
0000
0300
0300
0000
0000
ENDCHAR

STARTCHAR 21
ENCODING 41301
SWIDTH 640 0
DWIDTH 16 0
BBX 16 16 0 -1
BITMAP
0000
0180
0180
0180
0180
0180
0180
0180
0180
0180
0180
0180
0180
0180
0180
0180
ENDCHAR

STARTCHAR 22
ENCODING 41302
SWIDTH 640 0
DWIDTH 16 0
BBX 16 16 0 -1
BITMAP
0000
0000
0000
0000
0000
0000
0000
1FFC
1FFC
0000
0000
0000
0000
0000
0000
0000
ENDCHAR

STARTCHAR 23
ENCODING 41303
SWIDTH 640 0
DWIDTH 16 0
BBX 16 16 0 -1
BITMAP
0000
0080
0080
0080
0080
0080
0080
0080
0080
0080
0080
0080
0080
0080
0080
0080
ENDCHAR

STARTCHAR 24
ENCODING 41304
SWIDTH 640 0
DWIDTH 16 0
BBX 16 16 0 -1
BITMAP
0000
0000
0000
0000
0000
0000
0000
0000
1FFC
0000
0000
0000
0000
0000
0000
0000
ENDCHAR

STARTCHAR 25
ENCODING 41305
SWIDTH 640 0
DWIDTH 16 0
BBX 16 16 0 -1
BITMAP
0000
6000
6000
6000
6000
6000
6000
6000
6000
6000
6000
6000
6000
6000
6000
6000
ENDCHAR

STARTCHAR 26
ENCODING 41306
SWIDTH 640 0
DWIDTH 16 0
BBX 16 16 0 -1
BITMAP
0000
0000
0000
0000
0000
0000
0000
0000
0000
0000
0000
0000
0000
0000
FFFF
FFFF
ENDCHAR

STARTCHAR 27
ENCODING 41307
SWIDTH 640 0
DWIDTH 16 0
BBX 16 16 0 -1
BITMAP
0000
4000
2000
1000
1000
2000
4000
2000
1000
1000
2000
4000
2000
1000
1000
2000
ENDCHAR

STARTCHAR 28
ENCODING 41308
SWIDTH 640 0
DWIDTH 16 0
BBX 16 16 0 -1
BITMAP
0000
0000
0000
0000
0000
0000
0000
0000
0000
0000
0000
0000
0000
1084
294A
4631
ENDCHAR

STARTCHAR 29
ENCODING 41309
SWIDTH 640 0
DWIDTH 16 0
BBX 16 16 0 -1
BITMAP
0000
0000
0004
0008
0010
0030
0060
0060
0060
0060
0060
0030
0010
0008
0004
0000
ENDCHAR

STARTCHAR 30
ENCODING 41310
SWIDTH 640 0
DWIDTH 16 0
BBX 16 16 0 -1
BITMAP
0000
0000
1000
0800
0400
0600
0300
0300
0300
0300
0300
0600
0400
0800
1000
0000
ENDCHAR

STARTCHAR 31
ENCODING 41311
SWIDTH 640 0
DWIDTH 16 0
BBX 16 16 0 -1
BITMAP
0000
0000
0000
0000
0000
0000
0000
0000
0000
07F0
0FF8
180C
2002
4001
0000
0000
ENDCHAR

STARTCHAR 32
ENCODING 41312
SWIDTH 640 0
DWIDTH 16 0
BBX 16 16 0 -1
BITMAP
0000
0000
0000
4001
2002
180C
0FF8
07F0
0000
0000
0000
0000
0000
0000
0000
0000
ENDCHAR

STARTCHAR 33
ENCODING 41313
SWIDTH 640 0
DWIDTH 16 0
BBX 16 16 0 -1
BITMAP
0000
0000
000C
0010
0020
0020
0020
0040
0080
0040
0020
0020
0020
0010
000C
0000
ENDCHAR

STARTCHAR 34
ENCODING 41314
SWIDTH 640 0
DWIDTH 16 0
BBX 16 16 0 -1
BITMAP
0000
0000
1800
0400
0200
0200
0200
0100
0080
0100
0200
0200
0200
0400
1800
0000
ENDCHAR

STARTCHAR 35
ENCODING 41315
SWIDTH 640 0
DWIDTH 16 0
BBX 16 16 0 -1
BITMAP
0000
0000
0000
0000
0000
0000
0000
0000
0080
0140
1E3C
2002
4001
4001
0000
0000
ENDCHAR

STARTCHAR 36
ENCODING 41316
SWIDTH 640 0
DWIDTH 16 0
BBX 16 16 0 -1
BITMAP
0000
0000
0000
4001
4001
2002
1E3C
0140
0080
0000
0000
0000
0000
0000
0000
0000
ENDCHAR

STARTCHAR 37
ENCODING 41317
SWIDTH 640 0
DWIDTH 16 0
BBX 16 16 0 -1
BITMAP
0000
0000
0008
0010
0020
0040
0040
0040
0040
0040
0040
0040
0020
0010
0008
0000
ENDCHAR

STARTCHAR 38
ENCODING 41318
SWIDTH 640 0
DWIDTH 16 0
BBX 16 16 0 -1
BITMAP
0000
0000
0800
0400
0200
0100
0100
0100
0100
0100
0100
0100
0200
0400
0800
0000
ENDCHAR

STARTCHAR 39
ENCODING 41319
SWIDTH 640 0
DWIDTH 16 0
BBX 16 16 0 -1
BITMAP
0000
0000
0000
0000
0000
0000
0000
0000
0000
07F0
0808
1004
2002
4001
0000
0000
ENDCHAR

STARTCHAR 40
ENCODING 41320
SWIDTH 640 0
DWIDTH 16 0
BBX 16 16 0 -1
BITMAP
0000
0000
0000
4001
2002
1004
0808
07F0
0000
0000
0000
0000
0000
0000
0000
0000
ENDCHAR

STARTCHAR 41
ENCODING 41321
SWIDTH 640 0
DWIDTH 16 0
BBX 16 16 0 -1
BITMAP
0000
0000
007C
0078
0070
0060
0060
0060
0060
0060
0060
0060
0070
0078
007C
0000
ENDCHAR

STARTCHAR 42
ENCODING 41322
SWIDTH 640 0
DWIDTH 16 0
BBX 16 16 0 -1
BITMAP
0000
0000
1F00
0F00
0700
0300
0300
0300
0300
0300
0300
0300
0700
0F00
1F00
0000
ENDCHAR

STARTCHAR 43
ENCODING 41323
SWIDTH 640 0
DWIDTH 16 0
BBX 16 16 0 -1
BITMAP
0000
0000
0000
0000
0000
0000
0000
0000
0000
7FFF
7FFF
7007
6003
4001
0000
0000
ENDCHAR

STARTCHAR 44
ENCODING 41324
SWIDTH 640 0
DWIDTH 16 0
BBX 16 16 0 -1
BITMAP
0000
0000
0000
4001
6003
7007
7FFF
7FFF
0000
0000
0000
0000
0000
0000
0000
0000
ENDCHAR

STARTCHAR 45
ENCODING 41325
SWIDTH 640 0
DWIDTH 16 0
BBX 16 16 0 -1
BITMAP
0000
0000
0042
0084
0108
0210
0420
0840
1080
0840
0420
0210
0108
0084
0042
0000
ENDCHAR

STARTCHAR 46
ENCODING 41326
SWIDTH 640 0
DWIDTH 16 0
BBX 16 16 0 -1
BITMAP
0000
0000
2100
1080
0840
0420
0210
0108
0084
0108
0210
0420
0840
1080
2100
0000
ENDCHAR

STARTCHAR 47
ENCODING 41327
SWIDTH 640 0
DWIDTH 16 0
BBX 16 16 0 -1
BITMAP
0000
0000
0080
0140
0220
0410
0808
1084
2142
0220
0410
0808
1004
2002
0000
0000
ENDCHAR

STARTCHAR 48
ENCODING 41328
SWIDTH 640 0
DWIDTH 16 0
BBX 16 16 0 -1
BITMAP
0000
0000
0000
2002
1004
0808
0410
0220
2142
1084
0808
0410
0220
0140
0080
0000
ENDCHAR

STARTCHAR 49
ENCODING 41329
SWIDTH 640 0
DWIDTH 16 0
BBX 16 16 0 -1
BITMAP
0000
0000
0000
0020
0040
0080
0100
0200
0400
0200
0100
0080
0040
0020
0000
0000
ENDCHAR

STARTCHAR 50
ENCODING 41330
SWIDTH 640 0
DWIDTH 16 0
BBX 16 16 0 -1
BITMAP
0000
0000
0000
0200
0100
0080
0040
0020
0010
0020
0040
0080
0100
0200
0000
0000
ENDCHAR

STARTCHAR 51
ENCODING 41331
SWIDTH 640 0
DWIDTH 16 0
BBX 16 16 0 -1
BITMAP
0000
0000
0100
0380
06C0
0C60
1830
0000
0000
0000
0000
0000
0000
0000
0000
0000
ENDCHAR

STARTCHAR 52
ENCODING 41332
SWIDTH 640 0
DWIDTH 16 0
BBX 16 16 0 -1
BITMAP
0000
0000
0000
0000
2002
1004
0808
0410
0220
0140
0080
0000
0000
0000
0000
0000
ENDCHAR

STARTCHAR 53
ENCODING 41333
SWIDTH 640 0
DWIDTH 16 0
BBX 16 16 0 -1
BITMAP
0000
0000
0000
00FF
0080
0080
0080
0080
0080
0080
0080
0000
0000
0000
0000
0000
ENDCHAR

STARTCHAR 54
ENCODING 41334
SWIDTH 640 0
DWIDTH 16 0
BBX 16 16 0 -1
BITMAP
0000
0000
0000
0000
0000
0000
0080
0080
0080
0080
0080
0080
0080
7F80
0000
0000
ENDCHAR

STARTCHAR 55
ENCODING 41335
SWIDTH 640 0
DWIDTH 16 0
BBX 16 16 0 -1
BITMAP
0000
0000
0000
0000
0000
0000
7F80
0080
0080
0080
0080
0080
0080
0080
0000
0000
ENDCHAR

STARTCHAR 56
ENCODING 41336
SWIDTH 640 0
DWIDTH 16 0
BBX 16 16 0 -1
BITMAP
0000
0000
0000
0080
0080
0080
0080
0080
0080
0080
00FF
0000
0000
0000
0000
0000
ENDCHAR

STARTCHAR 57
ENCODING 41337
SWIDTH 640 0
DWIDTH 16 0
BBX 16 16 0 -1
BITMAP
0000
0000
0000
01FF
0101
017F
0140
0140
0140
0140
0140
01C0
0000
0000
0000
0000
ENDCHAR

STARTCHAR 58
ENCODING 41338
SWIDTH 640 0
DWIDTH 16 0
BBX 16 16 0 -1
BITMAP
0000
0000
0000
0000
0000
01C0
0140
0140
0140
0140
0140
7F40
4040
7FC0
0000
0000
ENDCHAR

STARTCHAR 59
ENCODING 41339
SWIDTH 640 0
DWIDTH 16 0
BBX 16 16 0 -1
BITMAP
0000
0000
0000
0000
0000
7FC0
4040
7F40
0140
0140
0140
0140
0140
01C0
0000
0000
ENDCHAR

STARTCHAR 60
ENCODING 41340
SWIDTH 640 0
DWIDTH 16 0
BBX 16 16 0 -1
BITMAP
0000
0000
0000
01C0
0140
0140
0140
0140
0140
017F
0101
01FF
0000
0000
0000
0000
ENDCHAR

STARTCHAR 61
ENCODING 41341
SWIDTH 640 0
DWIDTH 16 0
BBX 16 16 0 -1
BITMAP
0000
0000
0000
0000
0004
0008
0018
0018
0018
0018
0018
0008
0004
0000
0000
0000
ENDCHAR

STARTCHAR 62
ENCODING 41342
SWIDTH 640 0
DWIDTH 16 0
BBX 16 16 0 -1
BITMAP
0000
0000
0000
0000
2000
1000
1800
1800
1800
1800
1800
1000
2000
0000
0000
0000
ENDCHAR

STARTCHAR 63
ENCODING 41377
SWIDTH 640 0
DWIDTH 16 0
BBX 16 16 0 -1
BITMAP
0000
0000
0000
000C
0010
0010
0010
0010
0020
0010
0010
0010
0010
000C
0000
0000
ENDCHAR

STARTCHAR 64
ENCODING 41378
SWIDTH 640 0
DWIDTH 16 0
BBX 16 16 0 -1
BITMAP
0000
0000
0000
3000
0800
0800
0800
0800
0400
0800
0800
0800
0800
3000
0000
0000
ENDCHAR

STARTCHAR 65
ENCODING 41379
SWIDTH 640 0
DWIDTH 16 0
BBX 16 16 0 -1
BITMAP
0000
0000
0000
0010
0020
0020
0020
0020
0020
0020
0020
0020
0010
0000
0000
0000
ENDCHAR

STARTCHAR 66
ENCODING 41380
SWIDTH 640 0
DWIDTH 16 0
BBX 16 16 0 -1
BITMAP
0000
0000
0000
0800
0400
0400
0400
0400
0400
0400
0400
0400
0400
0800
0000
0000
ENDCHAR

STARTCHAR 67
ENCODING 41381
SWIDTH 640 0
DWIDTH 16 0
BBX 16 16 0 -1
BITMAP
0000
0008
0010
0038
003C
0018
0000
0000
0000
0000
0000
0000
0000
0000
0000
0000
ENDCHAR

STARTCHAR 68
ENCODING 41382
SWIDTH 640 0
DWIDTH 16 0
BBX 16 16 0 -1
BITMAP
0000
1800
3C00
1C00
0800
3000
0000
0000
0000
0000
0000
0000
0000
0000
0000
0000
ENDCHAR

STARTCHAR 69
ENCODING 41383
SWIDTH 640 0
DWIDTH 16 0
BBX 16 16 0 -1
BITMAP
0000
0044
0088
0198
01DC
0198
0000
0000
0000
0000
0000
0000
0000
0000
0000
0000
ENDCHAR

STARTCHAR 70
ENCODING 41384
SWIDTH 640 0
DWIDTH 16 0
BBX 16 16 0 -1
BITMAP
0000
7700
7700
3300
2200
4400
0000
0000
0000
0000
0000
0000
0000
0000
0000
0000
ENDCHAR

STARTCHAR 71
ENCODING 41385
SWIDTH 640 0
DWIDTH 16 0
BBX 16 16 0 -1
BITMAP
0000
7700
7700
3300
1100
0880
0000
0000
0000
0000
0000
0000
0000
0000
0000
0000
ENDCHAR

STARTCHAR 72
ENCODING 41386
SWIDTH 640 0
DWIDTH 16 0
BBX 16 16 0 -1
BITMAP
0000
00EE
00EE
00CC
0088
0110
0000
0000
0000
0000
0000
0000
0000
0000
0000
0000
ENDCHAR

STARTCHAR 73
ENCODING 41387
SWIDTH 640 0
DWIDTH 16 0
BBX 16 16 0 -1
BITMAP
0000
0700
0380
00C0
0020
0000
0000
0000
0000
0000
0000
0000
0000
0000
0000
0000
ENDCHAR

STARTCHAR 74
ENCODING 41388
SWIDTH 640 0
DWIDTH 16 0
BBX 16 16 0 -1
BITMAP
0000
00C0
01E0
01C0
0180
0300
0400
0000
0000
0000
0000
0000
0000
0000
0000
0000
ENDCHAR

STARTCHAR 75
ENCODING 41389
SWIDTH 640 0
DWIDTH 16 0
BBX 16 16 0 -1
BITMAP
0000
0000
0000
0420
0420
043E
07E0
7C20
0420
043E
07E0
7C20
0420
0420
0000
0000
ENDCHAR

STARTCHAR 76
ENCODING 41390
SWIDTH 640 0
DWIDTH 16 0
BBX 16 16 0 -1
BITMAP
0000
0700
0D80
18C0
18C0
0D80
0700
0E00
1B3C
3190
30D0
3070
3030
1878
0FCE
0000
ENDCHAR

STARTCHAR 77
ENCODING 41391
SWIDTH 640 0
DWIDTH 16 0
BBX 16 16 0 -1
BITMAP
0000
0000
2082
1084
0888
0490
02A0
01C0
3FFE
01C0
02A0
0490
0888
1084
2082
0000
ENDCHAR

STARTCHAR 78
ENCODING 41392
SWIDTH 640 0
DWIDTH 16 0
BBX 16 16 0 -1
BITMAP
0000
0000
0000
1084
09C8
0490
0220
1144
388E
1144
0220
0490
09C8
1084
0000
0000
ENDCHAR

STARTCHAR 79
ENCODING 41393
SWIDTH 640 0
DWIDTH 16 0
BBX 16 16 0 -1
BITMAP
0000
0000
0000
01C0
0230
0200
01C0
0220
0410
0220
01C0
0020
0620
01C0
0000
0000
ENDCHAR

STARTCHAR 80
ENCODING 41394
SWIDTH 640 0
DWIDTH 16 0
BBX 16 16 0 -1
BITMAP
0000
0000
0000
0000
0000
0000
0318
0630
0C60
0840
1080
0000
0000
0000
0000
0000
ENDCHAR

STARTCHAR 81
ENCODING 41395
SWIDTH 640 0
DWIDTH 16 0
BBX 16 16 0 -1
BITMAP
0000
0000
0000
03C0
0C30
1008
2004
2004
2004
2004
2004
1008
0C30
03C0
0000
0000
ENDCHAR

STARTCHAR 82
ENCODING 41396
SWIDTH 640 0
DWIDTH 16 0
BBX 16 16 0 -1
BITMAP
0000
0000
0000
03C0
0FF0
1FF8
3FFC
3FFC
3FFC
3FFC
3FFC
1FF8
0FF0
03C0
0000
0000
ENDCHAR

STARTCHAR 83
ENCODING 41397
SWIDTH 640 0
DWIDTH 16 0
BBX 16 16 0 -1
BITMAP
0000
0000
0080
0140
0140
0220
0220
0410
0410
0808
0808
1004
1004
2002
2002
7FFF
ENDCHAR

STARTCHAR 84
ENCODING 41398
SWIDTH 640 0
DWIDTH 16 0
BBX 16 16 0 -1
BITMAP
0000
0000
0080
01C0
01C0
03E0
03E0
07F0
07F0
0FF8
0FF8
1FFC
1FFC
3FFE
3FFE
7FFF
ENDCHAR

STARTCHAR 85
ENCODING 41399
SWIDTH 640 0
DWIDTH 16 0
BBX 16 16 0 -1
BITMAP
0000
0000
0000
03E0
0C18
1004
21C2
2222
2222
2222
21C2
1004
0C18
03E0
0000
0000
ENDCHAR

STARTCHAR 86
ENCODING 41400
SWIDTH 640 0
DWIDTH 16 0
BBX 16 16 0 -1
BITMAP
0000
0100
0280
0280
0440
0440
FC7E
4004
2008
1010
0820
0920
1290
1450
2828
3018
ENDCHAR

STARTCHAR 87
ENCODING 41401
SWIDTH 640 0
DWIDTH 16 0
BBX 16 16 0 -1
BITMAP
0000
0100
0380
0380
07C0
07C0
FFFE
7FFC
3FF8
1FF0
0FE0
0FE0
1EF0
1C70
3838
3018
ENDCHAR

STARTCHAR 88
ENCODING 41402
SWIDTH 640 0
DWIDTH 16 0
BBX 16 16 0 -1
BITMAP
0000
0100
0380
06C0
0C60
1830
3018
600C
C006
600C
3018
1830
0C60
06C0
0380
0100
ENDCHAR

STARTCHAR 89
ENCODING 41403
SWIDTH 640 0
DWIDTH 16 0
BBX 16 16 0 -1
BITMAP
0000
0100
0380
07C0
0FE0
1FF0
3FF8
7FFC
FFFE
7FFC
3FF8
1FF0
0FE0
07C0
0380
0100
ENDCHAR

STARTCHAR 90
ENCODING 41404
SWIDTH 640 0
DWIDTH 16 0
BBX 16 16 0 -1
BITMAP
0000
7FFF
4001
4001
4001
4001
4001
4001
4001
4001
4001
4001
4001
4001
7FFF
0000
ENDCHAR

STARTCHAR 91
ENCODING 41405
SWIDTH 640 0
DWIDTH 16 0
BBX 16 16 0 -1
BITMAP
0000
7FFF
7FFF
7FFF
7FFF
7FFF
7FFF
7FFF
7FFF
7FFF
7FFF
7FFF
7FFF
7FFF
7FFF
0000
ENDCHAR

STARTCHAR 92
ENCODING 41406
SWIDTH 640 0
DWIDTH 16 0
BBX 16 16 0 -1
BITMAP
0000
0000
7FFF
2002
2002
1004
1004
0808
0808
0410
0410
0220
0220
0140
0140
0080
ENDCHAR

STARTCHAR 93
ENCODING 41407
SWIDTH 640 0
DWIDTH 16 0
BBX 16 16 0 -1
BITMAP
0000
0000
7FFF
3FFE
3FFE
1FFC
1FFC
0FF8
0FF8
07F0
07F0
03E0
03E0
01C0
01C0
0080
ENDCHAR

STARTCHAR 94
ENCODING 41408
SWIDTH 640 0
DWIDTH 16 0
BBX 16 16 0 -1
BITMAP
0000
03C0
0C30
1008
2004
2FF4
4082
4082
44E2
4482
2484
2FF4
1008
0C30
03C0
0000
ENDCHAR

STARTCHAR 95
ENCODING 41409
SWIDTH 640 0
DWIDTH 16 0
BBX 16 16 0 -1
BITMAP
0000
0000
0000
0E00
1108
2010
2020
1240
0C80
013C
0242
0442
0842
103C
0000
0000
ENDCHAR

STARTCHAR 96
ENCODING 41410
SWIDTH 640 0
DWIDTH 16 0
BBX 16 16 0 -1
BITMAP
0000
0000
0000
0000
1FFC
0000
0000
0000
0000
0000
0000
0000
0000
0000
0000
0000
ENDCHAR

STARTCHAR 97
ENCODING 41411
SWIDTH 640 0
DWIDTH 16 0
BBX 16 16 0 -1
BITMAP
0000
0000
0000
1FFC
1FFC
1FFC
0000
0000
0000
0000
0000
0000
0000
0000
0000
0000
ENDCHAR

STARTCHAR 98
ENCODING 41412
SWIDTH 640 0
DWIDTH 16 0
BBX 16 16 0 -1
BITMAP
0000
0000
0000
0000
0000
0000
0000
0000
0000
0000
0000
0000
0000
1FFC
0000
0000
ENDCHAR

STARTCHAR 99
ENCODING 41413
SWIDTH 640 0
DWIDTH 16 0
BBX 16 16 0 -1
BITMAP
0000
0000
0000
0000
0000
0000
0000
0000
0000
0000
0000
1FFC
1FFC
1FFC
0000
0000
ENDCHAR

STARTCHAR 100
ENCODING 41414
SWIDTH 640 0
DWIDTH 16 0
BBX 16 16 0 -1
BITMAP
0000
0000
0000
0000
39CE
39CE
0000
0000
0000
0000
0000
0000
0000
0000
0000
0000
ENDCHAR

STARTCHAR 101
ENCODING 41415
SWIDTH 640 0
DWIDTH 16 0
BBX 16 16 0 -1
BITMAP
0000
0000
0000
0000
3CCF
3CCF
0000
0000
0000
0000
0000
0000
0000
0000
0000
0000
ENDCHAR

STARTCHAR 102
ENCODING 41416
SWIDTH 640 0
DWIDTH 16 0
BBX 16 16 0 -1
BITMAP
0000
0000
0000
0000
0000
0000
0000
0000
0000
0000
0000
39CE
39CE
0000
0000
0000
ENDCHAR

STARTCHAR 103
ENCODING 41417
SWIDTH 640 0
DWIDTH 16 0
BBX 16 16 0 -1
BITMAP
0000
0000
0000
0000
0000
0000
0000
0000
0000
0000
0000
3CCF
3CCF
0000
0000
0000
ENDCHAR

STARTCHAR 104
ENCODING 41418
SWIDTH 640 0
DWIDTH 16 0
BBX 16 16 0 -1
BITMAP
0000
0000
0000
0410
0A28
1144
2082
0000
0000
0000
0000
0000
0000
0000
0000
0000
ENDCHAR

STARTCHAR 105
ENCODING 41419
SWIDTH 640 0
DWIDTH 16 0
BBX 16 16 0 -1
BITMAP
0000
0000
0000
0410
0E38
1B6C
31C6
2082
0000
0000
0000
0000
0000
0000
0000
0000
ENDCHAR

STARTCHAR 106
ENCODING 41420
SWIDTH 640 0
DWIDTH 16 0
BBX 16 16 0 -1
BITMAP
0000
0000
0000
0480
0480
1FE0
0480
0480
0480
1FE0
0480
0480
0000
0000
0000
0000
ENDCHAR

STARTCHAR 107
ENCODING 41421
SWIDTH 640 0
DWIDTH 16 0
BBX 16 16 0 -1
BITMAP
0000
0000
0000
0000
0000
0000
0700
0880
0500
0200
0520
08A0
0840
07B8
0000
0000
ENDCHAR

STARTCHAR 108
ENCODING 41422
SWIDTH 640 0
DWIDTH 16 0
BBX 16 16 0 -1
BITMAP
0000
0000
0000
0080
0888
0490
02A0
01C0
01C0
02A0
0490
0888
0080
0000
0000
0000
ENDCHAR

STARTCHAR 109
ENCODING 41423
SWIDTH 640 0
DWIDTH 16 0
BBX 16 16 0 -1
BITMAP
0000
0000
0000
0000
0080
0080
0080
0080
1FFC
0080
0080
0080
0080
0000
0000
0000
ENDCHAR

STARTCHAR 110
ENCODING 41424
SWIDTH 640 0
DWIDTH 16 0
BBX 16 16 0 -1
BITMAP
0000
0000
0000
0000
0000
0000
0000
0000
1FFC
0000
0000
0000
0000
0000
0000
0000
ENDCHAR

STARTCHAR 111
ENCODING 41425
SWIDTH 640 0
DWIDTH 16 0
BBX 16 16 0 -1
BITMAP
0000
0000
0000
1004
0808
0410
0220
0140
0080
0140
0220
0410
0808
1004
0000
0000
ENDCHAR

STARTCHAR 112
ENCODING 41426
SWIDTH 640 0
DWIDTH 16 0
BBX 16 16 0 -1
BITMAP
0000
0000
0000
0000
0180
0180
0000
0000
1FFC
0000
0000
0180
0180
0000
0000
0000
ENDCHAR

STARTCHAR 113
ENCODING 41427
SWIDTH 640 0
DWIDTH 16 0
BBX 16 16 0 -1
BITMAP
0000
0000
0000
0000
0080
0080
0080
0080
1FFC
0080
0080
0080
0000
1FFC
0000
0000
ENDCHAR

STARTCHAR 114
ENCODING 41428
SWIDTH 640 0
DWIDTH 16 0
BBX 16 16 0 -1
BITMAP
0000
0000
0000
0000
01FF
0100
0100
0100
0100
0200
4200
2400
1400
0800
0000
0000
ENDCHAR

STARTCHAR 115
ENCODING 41429
SWIDTH 640 0
DWIDTH 16 0
BBX 16 16 0 -1
BITMAP
0000
0000
0000
0060
00C0
0180
0300
0600
0C00
0600
0300
0180
00C0
0060
0000
0000
ENDCHAR

STARTCHAR 116
ENCODING 41430
SWIDTH 640 0
DWIDTH 16 0
BBX 16 16 0 -1
BITMAP
0000
0000
0000
0300
0180
00C0
0060
0030
0018
0030
0060
00C0
0180
0300
0000
0000
ENDCHAR

STARTCHAR 117
ENCODING 41431
SWIDTH 640 0
DWIDTH 16 0
BBX 16 16 0 -1
BITMAP
0000
0000
0000
0000
0000
0000
1FFC
0000
0000
0000
1FFC
0000
0000
0000
0000
0000
ENDCHAR

STARTCHAR 118
ENCODING 41432
SWIDTH 640 0
DWIDTH 16 0
BBX 16 16 0 -1
BITMAP
0000
0000
0000
0080
0100
0200
0400
0200
0100
0080
0000
1FF8
0000
1FF8
0000
0000
ENDCHAR

STARTCHAR 119
ENCODING 41433
SWIDTH 640 0
DWIDTH 16 0
BBX 16 16 0 -1
BITMAP
0000
0000
0000
0100
0080
0040
0020
0040
0080
0100
0000
1FF8
0000
1FF8
0000
0000
ENDCHAR

STARTCHAR 120
ENCODING 41434
SWIDTH 640 0
DWIDTH 16 0
BBX 16 16 0 -1
BITMAP
0000
0000
0000
0008
0010
0020
3FFE
0080
0100
3FFE
0400
0800
1000
0000
0000
0000
ENDCHAR

STARTCHAR 121
ENCODING 41435
SWIDTH 640 0
DWIDTH 16 0
BBX 16 16 0 -1
BITMAP
0000
0000
0000
0000
0000
0000
1C1C
2362
4081
4081
2362
1C1C
0000
0000
0000
0000
ENDCHAR

STARTCHAR 122
ENCODING 41436
SWIDTH 640 0
DWIDTH 16 0
BBX 16 16 0 -1
BITMAP
0000
0000
0000
0000
0C00
0C00
0000
1FFC
0000
0000
1FFC
0000
0018
0018
0000
0000
ENDCHAR

STARTCHAR 123
ENCODING 41437
SWIDTH 640 0
DWIDTH 16 0
BBX 16 16 0 -1
BITMAP
0000
0000
0000
0000
0000
1FFC
0000
0000
1FFC
0000
0000
1FFC
0000
0000
0000
0000
ENDCHAR

STARTCHAR 124
ENCODING 41438
SWIDTH 640 0
DWIDTH 16 0
BBX 16 16 0 -1
BITMAP
0000
0000
0000
0000
0080
0080
0080
07F0
0080
0080
0080
0080
0000
0000
0000
0000
ENDCHAR

STARTCHAR 125
ENCODING 41439
SWIDTH 640 0
DWIDTH 16 0
BBX 16 16 0 -1
BITMAP
0000
0000
0000
0000
0000
0000
0000
0FF0
0000
0000
0000
0000
0000
0000
0000
0000
ENDCHAR

STARTCHAR 126
ENCODING 41440
SWIDTH 640 0
DWIDTH 16 0
BBX 16 16 0 -1
BITMAP
0000
0000
0000
0000
0180
0300
0600
0C00
1800
0C00
0600
0300
0180
0000
0000
0000
ENDCHAR

STARTCHAR 127
ENCODING 41441
SWIDTH 640 0
DWIDTH 16 0
BBX 16 16 0 -1
BITMAP
0000
0000
0000
0000
0180
00C0
0060
0030
0018
0030
0060
00C0
0180
0000
0000
0000
ENDCHAR

STARTCHAR 128
ENCODING 41442
SWIDTH 640 0
DWIDTH 16 0
BBX 16 16 0 -1
BITMAP
0000
0000
0000
0000
0000
0FF0
0000
0000
0000
0FF0
0000
0000
0000
0000
0000
0000
ENDCHAR

STARTCHAR 129
ENCODING 41443
SWIDTH 640 0
DWIDTH 16 0
BBX 16 16 0 -1
BITMAP
0000
0000
0000
0000
0C00
1F04
318C
20F8
0020
0000
0000
0000
0000
0000
0000
0000
ENDCHAR

STARTCHAR 130
ENCODING 41444
SWIDTH 640 0
DWIDTH 16 0
BBX 16 16 0 -1
BITMAP
0000
0000
0000
0000
03E0
0410
0410
0808
0808
1004
1004
1004
1004
1004
0000
0000
ENDCHAR

STARTCHAR 131
ENCODING 41445
SWIDTH 640 0
DWIDTH 16 0
BBX 16 16 0 -1
BITMAP
0000
0000
0000
1004
1004
1004
1004
1004
1004
0808
0808
0410
0410
03E0
0000
0000
ENDCHAR

STARTCHAR 132
ENCODING 41446
SWIDTH 640 0
DWIDTH 16 0
BBX 16 16 0 -1
BITMAP
0000
0000
0000
0180
0180
0180
0180
0180
0180
0180
0180
7FFE
7FFE
0000
0000
0000
ENDCHAR

STARTCHAR 133
ENCODING 41447
SWIDTH 640 0
DWIDTH 16 0
BBX 16 16 0 -1
BITMAP
0000
0000
0000
0008
0010
0020
0040
0080
0100
0200
0400
0800
1000
3FFE
0000
0000
ENDCHAR

STARTCHAR 134
ENCODING 41448
SWIDTH 640 0
DWIDTH 16 0
BBX 16 16 0 -1
BITMAP
0000
0000
0000
1000
1000
1000
1000
1000
1000
1000
1000
1000
1000
1FFC
0000
0000
ENDCHAR

STARTCHAR 135
ENCODING 41449
SWIDTH 640 0
DWIDTH 16 0
BBX 16 16 0 -1
BITMAP
0000
0000
0004
000C
0014
0024
0044
0084
0104
0204
0404
0804
1004
3FFC
0000
0000
ENDCHAR

STARTCHAR 136
ENCODING 41450
SWIDTH 640 0
DWIDTH 16 0
BBX 16 16 0 -1
BITMAP
0000
0000
0000
2000
6001
2002
238E
2451
2451
244E
2448
738E
0011
0011
000E
0000
ENDCHAR

STARTCHAR 137
ENCODING 41451
SWIDTH 640 0
DWIDTH 16 0
BBX 16 16 0 -1
BITMAP
0000
0000
0000
1800
0800
0800
0800
081C
09A2
0842
0842
0842
0842
1C42
0000
0000
ENDCHAR

STARTCHAR 138
ENCODING 41452
SWIDTH 640 0
DWIDTH 16 0
BBX 16 16 0 -1
BITMAP
0000
0000
0000
0060
0090
0100
0100
0100
0100
0100
0100
0100
1200
0C00
0000
0000
ENDCHAR

STARTCHAR 139
ENCODING 41453
SWIDTH 640 0
DWIDTH 16 0
BBX 16 16 0 -1
BITMAP
0000
0000
0000
0030
0048
0080
07F0
0888
1084
0888
07F0
0080
0900
0600
0000
0000
ENDCHAR

STARTCHAR 140
ENCODING 41454
SWIDTH 640 0
DWIDTH 16 0
BBX 16 16 0 -1
BITMAP
0000
0000
0000
0000
1818
3C3C
3C3C
1818
0000
0000
0180
03C0
03C0
0180
0000
0000
ENDCHAR

STARTCHAR 141
ENCODING 41455
SWIDTH 640 0
DWIDTH 16 0
BBX 16 16 0 -1
BITMAP
0000
0000
0000
0000
0180
03C0
03C0
0180
0000
0000
1818
3C3C
3C3C
1818
0000
0000
ENDCHAR

STARTCHAR 142
ENCODING 41456
SWIDTH 640 0
DWIDTH 16 0
BBX 16 16 0 -1
BITMAP
0000
0000
0000
03E0
0410
0808
0410
03E0
0080
0080
7FFF
0080
0080
0080
0000
0000
ENDCHAR

STARTCHAR 143
ENCODING 41457
SWIDTH 640 0
DWIDTH 16 0
BBX 16 16 0 -1
BITMAP
0000
0000
0000
0080
01C0
02A0
0490
0888
0080
03E0
0410
0808
0410
03E0
0000
0000
ENDCHAR

STARTCHAR 144
ENCODING 41458
SWIDTH 640 0
DWIDTH 16 0
BBX 16 16 0 -1
BITMAP
0000
0000
0000
07F0
0888
1084
2082
2082
3FFE
2082
2082
1084
0888
07F0
0000
0000
ENDCHAR

STARTCHAR 145
ENCODING 41459
SWIDTH 640 0
DWIDTH 16 0
BBX 16 16 0 -1
BITMAP
0000
0000
0000
07F0
0808
1004
2002
21C2
23E2
21C2
2002
1004
0808
07F0
0000
0000
ENDCHAR

STARTCHAR 146
ENCODING 41460
SWIDTH 640 0
DWIDTH 16 0
BBX 16 16 0 -1
BITMAP
0000
0000
0000
0080
01C0
02A0
0490
0888
1084
2082
0080
0080
0080
0080
0000
0000
ENDCHAR

STARTCHAR 147
ENCODING 41461
SWIDTH 640 0
DWIDTH 16 0
BBX 16 16 0 -1
BITMAP
0000
0000
0000
0080
0080
0080
0080
2082
1084
0888
0490
02A0
01C0
0080
0000
0000
ENDCHAR

STARTCHAR 148
ENCODING 41462
SWIDTH 640 0
DWIDTH 16 0
BBX 16 16 0 -1
BITMAP
0000
0000
0000
0200
0400
0800
1000
2000
7FFF
2000
1000
0800
0400
0200
0000
0000
ENDCHAR

STARTCHAR 149
ENCODING 41463
SWIDTH 640 0
DWIDTH 16 0
BBX 16 16 0 -1
BITMAP
0000
0000
0000
0020
0010
0008
0004
0002
7FFF
0002
0004
0008
0010
0020
0000
0000
ENDCHAR

STARTCHAR 150
ENCODING 41464
SWIDTH 640 0
DWIDTH 16 0
BBX 16 16 0 -1
BITMAP
0000
0000
0000
7F80
6000
5000
4800
4400
4200
4100
4080
0040
0020
0010
0000
0000
ENDCHAR

STARTCHAR 151
ENCODING 41465
SWIDTH 640 0
DWIDTH 16 0
BBX 16 16 0 -1
BITMAP
0000
0000
0000
00FF
0003
0005
0009
0011
0021
0041
0081
0100
0200
0400
0000
0000
ENDCHAR

STARTCHAR 152
ENCODING 41466
SWIDTH 640 0
DWIDTH 16 0
BBX 16 16 0 -1
BITMAP
0000
0000
0000
0010
0020
0040
4080
4100
4200
4400
4800
5000
6000
7F80
0000
0000
ENDCHAR

STARTCHAR 153
ENCODING 41467
SWIDTH 640 0
DWIDTH 16 0
BBX 16 16 0 -1
BITMAP
0000
0000
0000
0400
0200
0100
0081
0041
0021
0011
0009
0005
0003
00FF
0000
0000
ENDCHAR

STARTCHAR 154
ENCODING 41468
SWIDTH 640 0
DWIDTH 16 0
BBX 16 16 0 -1
BITMAP
0000
0000
0000
0410
0410
0410
0410
0410
0410
0410
0410
0410
0410
0410
0000
0000
ENDCHAR

STARTCHAR 155
ENCODING 41469
SWIDTH 640 0
DWIDTH 16 0
BBX 16 16 0 -1
BITMAP
0000
0000
0000
0080
0080
0080
0080
0080
0080
0080
0080
0080
0080
0080
0000
0000
ENDCHAR

STARTCHAR 156
ENCODING 41470
SWIDTH 640 0
DWIDTH 16 0
BBX 16 16 0 -1
BITMAP
0000
0000
0000
0004
0008
0010
0020
0040
0080
0100
0200
0400
0800
1000
0000
0000
ENDCHAR

STARTCHAR 157
ENCODING 41536
SWIDTH 640 0
DWIDTH 16 0
BBX 16 16 0 -1
BITMAP
0000
0000
0000
1000
0800
0400
0200
0100
0080
0040
0020
0010
0008
0004
0000
0000
ENDCHAR

STARTCHAR 158
ENCODING 41537
SWIDTH 640 0
DWIDTH 16 0
BBX 16 16 0 -1
BITMAP
0000
0000
0000
0020
0020
0040
0040
0080
0080
0100
0100
0200
0200
0400
0400
0000
ENDCHAR

STARTCHAR 159
ENCODING 41538
SWIDTH 640 0
DWIDTH 16 0
BBX 16 16 0 -1
BITMAP
0000
0000
0000
0100
0100
0080
0080
0040
0040
0020
0020
0010
0010
0008
0008
0000
ENDCHAR

STARTCHAR 160
ENCODING 41539
SWIDTH 640 0
DWIDTH 16 0
BBX 16 16 0 -1
BITMAP
0000
0000
0000
0080
03E0
0498
0880
0480
03F0
0088
0084
0C88
03F0
0080
0000
0000
ENDCHAR

STARTCHAR 161
ENCODING 41540
SWIDTH 640 0
DWIDTH 16 0
BBX 16 16 0 -1
BITMAP
0000
0000
0000
380E
0410
0220
0140
3FFE
0080
0080
3FFE
0080
0080
0080
01C0
0000
ENDCHAR

STARTCHAR 162
ENCODING 41541
SWIDTH 640 0
DWIDTH 16 0
BBX 16 16 0 -1
BITMAP
0000
0000
0000
1FFC
0000
0000
1FFC
0080
0080
0080
0080
0080
0080
0080
0000
0000
ENDCHAR

STARTCHAR 163
ENCODING 41542
SWIDTH 640 0
DWIDTH 16 0
BBX 16 16 0 -1
BITMAP
0000
0002
01F4
0208
0416
0826
1040
1080
2100
2200
2400
1810
1820
27C0
4000
0000
ENDCHAR

STARTCHAR 164
ENCODING 41543
SWIDTH 640 0
DWIDTH 16 0
BBX 16 16 0 -1
BITMAP
0000
0000
0030
0048
008C
0080
1FF8
0100
0100
1D00
2300
4280
4442
383C
0000
0000
ENDCHAR

STARTCHAR 165
ENCODING 41544
SWIDTH 640 0
DWIDTH 16 0
BBX 16 16 0 -1
BITMAP
0000
0000
0000
1E00
2108
2110
2120
1E40
0080
013C
0242
0442
0842
103C
2000
0000
ENDCHAR

STARTCHAR 166
ENCODING 41545
SWIDTH 640 0
DWIDTH 16 0
BBX 16 16 0 -1
BITMAP
0000
0000
0000
0FF0
1008
2004
43C2
4422
4812
4832
4452
438A
2006
1010
0FE0
0000
ENDCHAR

STARTCHAR 167
ENCODING 41546
SWIDTH 640 0
DWIDTH 16 0
BBX 16 16 0 -1
BITMAP
0000
0000
0000
3800
4478
4484
3906
0100
0100
0100
0100
0106
0084
0078
0000
0000
ENDCHAR

STARTCHAR 168
ENCODING 41547
SWIDTH 640 0
DWIDTH 16 0
BBX 16 16 0 -1
BITMAP
0000
3800
45FF
4483
3881
0080
0084
00FC
008C
0084
0080
0080
0080
0080
03E0
0000
ENDCHAR

STARTCHAR 169
ENCODING 41548
SWIDTH 640 0
DWIDTH 16 0
BBX 16 16 0 -1
BITMAP
0000
0100
0100
07C0
0960
0960
0900
0780
0140
0520
0920
0920
07C0
0100
0100
0000
ENDCHAR

STARTCHAR 170
ENCODING 41549
SWIDTH 640 0
DWIDTH 16 0
BBX 16 16 0 -1
BITMAP
0000
0000
0000
0008
0610
0920
1140
1280
0D60
0290
0510
0920
10C0
0000
0000
0000
ENDCHAR

STARTCHAR 171
ENCODING 41550
SWIDTH 640 0
DWIDTH 16 0
BBX 16 16 0 -1
BITMAP
0000
0000
0000
03E0
0410
0990
0A50
0A50
0A50
09D0
0864
0408
03F0
0000
0000
0000
ENDCHAR

STARTCHAR 172
ENCODING 41551
SWIDTH 640 0
DWIDTH 16 0
BBX 16 16 0 -1
BITMAP
0000
0000
0000
0002
0006
0002
0012
0002
5B12
24B2
2492
2492
2492
24B7
0000
0000
ENDCHAR

STARTCHAR 173
ENCODING 41552
SWIDTH 640 0
DWIDTH 16 0
BBX 16 16 0 -1
BITMAP
0000
0000
0000
0000
0000
0000
0000
3676
4949
4949
4949
4949
4949
4949
0000
0000
ENDCHAR

STARTCHAR 174
ENCODING 41553
SWIDTH 640 0
DWIDTH 16 0
BBX 16 16 0 -1
BITMAP
0000
0000
0000
0000
0000
0000
0080
1C76
2349
4049
4049
4149
2249
1C49
0000
0000
ENDCHAR

STARTCHAR 175
ENCODING 41554
SWIDTH 640 0
DWIDTH 16 0
BBX 16 16 0 -1
BITMAP
0000
0000
4000
4000
4000
4000
4080
4E76
4849
5049
6049
5049
4849
6649
0000
0000
ENDCHAR

STARTCHAR 176
ENCODING 41555
SWIDTH 640 0
DWIDTH 16 0
BBX 16 16 0 -1
BITMAP
0000
0000
0000
7141
2263
2463
2455
2855
3049
2841
2441
2441
2241
7141
0000
0000
ENDCHAR

STARTCHAR 177
ENCODING 41556
SWIDTH 640 0
DWIDTH 16 0
BBX 16 16 0 -1
BITMAP
0000
0000
0000
0006
0009
0001
0006
0008
5DCF
2220
2220
2220
2220
2220
0000
0000
ENDCHAR

STARTCHAR 178
ENCODING 41557
SWIDTH 640 0
DWIDTH 16 0
BBX 16 16 0 -1
BITMAP
0000
0000
0000
0000
3603
493C
4942
4942
493C
4920
493E
0041
0041
003E
0000
0000
ENDCHAR

STARTCHAR 179
ENCODING 41558
SWIDTH 640 0
DWIDTH 16 0
BBX 16 16 0 -1
BITMAP
0000
0000
2000
6000
2000
2183
223C
2442
3842
243C
2220
213E
73C1
003E
0000
0000
ENDCHAR

STARTCHAR 180
ENCODING 41559
SWIDTH 640 0
DWIDTH 16 0
BBX 16 16 0 -1
BITMAP
0000
0000
0000
0000
0000
0000
0000
1C1C
2323
4343
4040
4141
2222
1C1C
0000
0000
ENDCHAR

STARTCHAR 181
ENCODING 41560
SWIDTH 640 0
DWIDTH 16 0
BBX 16 16 0 -1
BITMAP
0000
0000
0000
1C00
2200
2200
2200
1C00
0000
0000
0000
0000
0000
0000
0000
0000
ENDCHAR

STARTCHAR 182
ENCODING 41561
SWIDTH 640 0
DWIDTH 16 0
BBX 16 16 0 -1
BITMAP
0000
0800
0808
7F08
0808
0808
7F08
417F
4108
7F08
1208
1208
1209
2201
43FF
0000
ENDCHAR

STARTCHAR 183
ENCODING 41562
SWIDTH 640 0
DWIDTH 16 0
BBX 16 16 0 -1
BITMAP
0000
0800
0802
7F3C
0808
0808
7F08
417F
4108
7F08
1208
1208
1209
2201
43FF
0000
ENDCHAR

STARTCHAR 184
ENCODING 41563
SWIDTH 640 0
DWIDTH 16 0
BBX 16 16 0 -1
BITMAP
0000
0800
0802
7F3C
0810
087E
7F10
4110
417E
7F10
1211
121F
1200
2201
43FF
0000
ENDCHAR

STARTCHAR 185
ENCODING 41564
SWIDTH 640 0
DWIDTH 16 0
BBX 16 16 0 -1
BITMAP
0000
0800
0818
7F24
0842
0881
7F00
417F
4109
7F11
1221
1243
1200
2201
43FF
0000
ENDCHAR

STARTCHAR 186
ENCODING 41565
SWIDTH 640 0
DWIDTH 16 0
BBX 16 16 0 -1
BITMAP
0000
0800
087F
7F08
0810
087F
7F41
4141
417F
7F41
1241
127F
1200
2201
43FF
0000
ENDCHAR

STARTCHAR 187
ENCODING 41566
SWIDTH 640 0
DWIDTH 16 0
BBX 16 16 0 -1
BITMAP
0000
1000
11FF
7D00
117F
1149
7D7F
4549
457F
7D08
293E
2908
2A7F
2801
4FFF
0000
ENDCHAR

STARTCHAR 188
ENCODING 41567
SWIDTH 640 0
DWIDTH 16 0
BBX 16 16 0 -1
BITMAP
0000
0800
7F3E
0922
1122
673E
01C0
0220
0410
0FF8
1004
2FFA
4949
0FF8
0948
0000
ENDCHAR

STARTCHAR 189
ENCODING 41568
SWIDTH 640 0
DWIDTH 16 0
BBX 16 16 0 -1
BITMAP
0000
7F82
103C
1008
1008
7F88
1088
18FF
1488
1288
1088
1488
1889
1081
00FF
0000
ENDCHAR

STARTCHAR 190
ENCODING 41569
SWIDTH 640 0
DWIDTH 16 0
BBX 16 16 0 -1
BITMAP
0000
1000
11FF
1100
5500
397F
1149
7D7F
1149
317F
5908
1508
113E
1208
107F
0000
ENDCHAR

STARTCHAR 191
ENCODING 41570
SWIDTH 640 0
DWIDTH 16 0
BBX 16 16 0 -1
BITMAP
0000
0000
0000
0000
0000
0000
0000
0000
0000
0000
0000
0000
0000
0000
0000
FFFF
ENDCHAR

STARTCHAR 192
ENCODING 41571
SWIDTH 640 0
DWIDTH 16 0
BBX 16 16 0 -1
BITMAP
0000
0000
0000
0000
0000
0000
0000
0000
0000
0000
0000
0000
0000
FFFF
FFFF
FFFF
ENDCHAR

STARTCHAR 193
ENCODING 41572
SWIDTH 640 0
DWIDTH 16 0
BBX 16 16 0 -1
BITMAP
0000
0000
0000
0000
0000
0000
0000
0000
0000
0000
0000
FFFF
FFFF
FFFF
FFFF
FFFF
ENDCHAR

STARTCHAR 194
ENCODING 41573
SWIDTH 640 0
DWIDTH 16 0
BBX 16 16 0 -1
BITMAP
0000
0000
0000
0000
0000
0000
0000
0000
0000
FFFF
FFFF
FFFF
FFFF
FFFF
FFFF
FFFF
ENDCHAR

STARTCHAR 195
ENCODING 41574
SWIDTH 640 0
DWIDTH 16 0
BBX 16 16 0 -1
BITMAP
0000
0000
0000
0000
0000
0000
0000
FFFF
FFFF
FFFF
FFFF
FFFF
FFFF
FFFF
FFFF
FFFF
ENDCHAR

STARTCHAR 196
ENCODING 41575
SWIDTH 640 0
DWIDTH 16 0
BBX 16 16 0 -1
BITMAP
0000
0000
0000
0000
0000
FFFF
FFFF
FFFF
FFFF
FFFF
FFFF
FFFF
FFFF
FFFF
FFFF
FFFF
ENDCHAR

STARTCHAR 197
ENCODING 41576
SWIDTH 640 0
DWIDTH 16 0
BBX 16 16 0 -1
BITMAP
0000
0000
0000
FFFF
FFFF
FFFF
FFFF
FFFF
FFFF
FFFF
FFFF
FFFF
FFFF
FFFF
FFFF
FFFF
ENDCHAR

STARTCHAR 198
ENCODING 41577
SWIDTH 640 0
DWIDTH 16 0
BBX 16 16 0 -1
BITMAP
0000
FFFF
FFFF
FFFF
FFFF
FFFF
FFFF
FFFF
FFFF
FFFF
FFFF
FFFF
FFFF
FFFF
FFFF
FFFF
ENDCHAR

STARTCHAR 199
ENCODING 41578
SWIDTH 640 0
DWIDTH 16 0
BBX 16 16 0 -1
BITMAP
0000
C000
C000
C000
C000
C000
C000
C000
C000
C000
C000
C000
C000
C000
C000
C000
ENDCHAR

STARTCHAR 200
ENCODING 41579
SWIDTH 640 0
DWIDTH 16 0
BBX 16 16 0 -1
BITMAP
0000
F000
F000
F000
F000
F000
F000
F000
F000
F000
F000
F000
F000
F000
F000
F000
ENDCHAR

STARTCHAR 201
ENCODING 41580
SWIDTH 640 0
DWIDTH 16 0
BBX 16 16 0 -1
BITMAP
0000
FC00
FC00
FC00
FC00
FC00
FC00
FC00
FC00
FC00
FC00
FC00
FC00
FC00
FC00
FC00
ENDCHAR

STARTCHAR 202
ENCODING 41581
SWIDTH 640 0
DWIDTH 16 0
BBX 16 16 0 -1
BITMAP
0000
FF00
FF00
FF00
FF00
FF00
FF00
FF00
FF00
FF00
FF00
FF00
FF00
FF00
FF00
FF00
ENDCHAR

STARTCHAR 203
ENCODING 41582
SWIDTH 640 0
DWIDTH 16 0
BBX 16 16 0 -1
BITMAP
0000
FFC0
FFC0
FFC0
FFC0
FFC0
FFC0
FFC0
FFC0
FFC0
FFC0
FFC0
FFC0
FFC0
FFC0
FFC0
ENDCHAR

STARTCHAR 204
ENCODING 41583
SWIDTH 640 0
DWIDTH 16 0
BBX 16 16 0 -1
BITMAP
0000
FFF0
FFF0
FFF0
FFF0
FFF0
FFF0
FFF0
FFF0
FFF0
FFF0
FFF0
FFF0
FFF0
FFF0
FFF0
ENDCHAR

STARTCHAR 205
ENCODING 41584
SWIDTH 640 0
DWIDTH 16 0
BBX 16 16 0 -1
BITMAP
0000
FFFC
FFFC
FFFC
FFFC
FFFC
FFFC
FFFC
FFFC
FFFC
FFFC
FFFC
FFFC
FFFC
FFFC
FFFC
ENDCHAR

STARTCHAR 206
ENCODING 41585
SWIDTH 640 0
DWIDTH 16 0
BBX 16 16 0 -1
BITMAP
0000
0080
0080
0080
0080
0080
0080
0080
FFFF
0080
0080
0080
0080
0080
0080
0080
ENDCHAR

STARTCHAR 207
ENCODING 41586
SWIDTH 640 0
DWIDTH 16 0
BBX 16 16 0 -1
BITMAP
0000
0080
0080
0080
0080
0080
0080
0080
FFFF
0000
0000
0000
0000
0000
0000
0000
ENDCHAR

STARTCHAR 208
ENCODING 41587
SWIDTH 640 0
DWIDTH 16 0
BBX 16 16 0 -1
BITMAP
0000
0000
0000
0000
0000
0000
0000
0000
FFFF
0080
0080
0080
0080
0080
0080
0080
ENDCHAR

STARTCHAR 209
ENCODING 41588
SWIDTH 640 0
DWIDTH 16 0
BBX 16 16 0 -1
BITMAP
0000
0080
0080
0080
0080
0080
0080
0080
FF80
0080
0080
0080
0080
0080
0080
0080
ENDCHAR

STARTCHAR 210
ENCODING 41589
SWIDTH 640 0
DWIDTH 16 0
BBX 16 16 0 -1
BITMAP
0000
0080
0080
0080
0080
0080
0080
0080
00FF
0080
0080
0080
0080
0080
0080
0080
ENDCHAR

STARTCHAR 211
ENCODING 41590
SWIDTH 640 0
DWIDTH 16 0
BBX 16 16 0 -1
BITMAP
0000
FFFF
FFFF
0000
0000
0000
0000
0000
0000
0000
0000
0000
0000
0000
0000
0000
ENDCHAR

STARTCHAR 212
ENCODING 41591
SWIDTH 640 0
DWIDTH 16 0
BBX 16 16 0 -1
BITMAP
0000
0000
0000
0000
0000
0000
0000
0000
FFFF
0000
0000
0000
0000
0000
0000
0000
ENDCHAR

STARTCHAR 213
ENCODING 41592
SWIDTH 640 0
DWIDTH 16 0
BBX 16 16 0 -1
BITMAP
0000
0080
0080
0080
0080
0080
0080
0080
0080
0080
0080
0080
0080
0080
0080
0080
ENDCHAR

STARTCHAR 214
ENCODING 41593
SWIDTH 640 0
DWIDTH 16 0
BBX 16 16 0 -1
BITMAP
0000
0003
0003
0003
0003
0003
0003
0003
0003
0003
0003
0003
0003
0003
0003
0003
ENDCHAR

STARTCHAR 215
ENCODING 41594
SWIDTH 640 0
DWIDTH 16 0
BBX 16 16 0 -1
BITMAP
0000
0000
0000
0000
0000
0000
0000
0000
00FF
0080
0080
0080
0080
0080
0080
0080
ENDCHAR

STARTCHAR 216
ENCODING 41595
SWIDTH 640 0
DWIDTH 16 0
BBX 16 16 0 -1
BITMAP
0000
0000
0000
0000
0000
0000
0000
0000
FF80
0080
0080
0080
0080
0080
0080
0080
ENDCHAR

STARTCHAR 217
ENCODING 41596
SWIDTH 640 0
DWIDTH 16 0
BBX 16 16 0 -1
BITMAP
0000
0080
0080
0080
0080
0080
0080
0080
00FF
0000
0000
0000
0000
0000
0000
0000
ENDCHAR

STARTCHAR 218
ENCODING 41597
SWIDTH 640 0
DWIDTH 16 0
BBX 16 16 0 -1
BITMAP
0000
0080
0080
0080
0080
0080
0080
0080
FF80
0000
0000
0000
0000
0000
0000
0000
ENDCHAR

STARTCHAR 219
ENCODING 41598
SWIDTH 640 0
DWIDTH 16 0
BBX 16 16 0 -1
BITMAP
0000
0000
0000
0000
0000
0000
0000
0000
0007
0018
0020
0040
0040
0080
0080
0080
ENDCHAR

STARTCHAR 220
ENCODING 41633
SWIDTH 640 0
DWIDTH 16 0
BBX 16 16 0 -1
BITMAP
0000
0000
0000
0000
0000
0000
0000
0000
F000
0C00
0200
0100
0100
0080
0080
0080
ENDCHAR

STARTCHAR 221
ENCODING 41634
SWIDTH 640 0
DWIDTH 16 0
BBX 16 16 0 -1
BITMAP
0000
0080
0080
0080
0040
0040
0020
0018
0007
0000
0000
0000
0000
0000
0000
0000
ENDCHAR

STARTCHAR 222
ENCODING 41635
SWIDTH 640 0
DWIDTH 16 0
BBX 16 16 0 -1
BITMAP
0000
0080
0080
0080
0100
0100
0200
0C00
F000
0000
0000
0000
0000
0000
0000
0000
ENDCHAR

STARTCHAR 223
ENCODING 41636
SWIDTH 640 0
DWIDTH 16 0
BBX 16 16 0 -1
BITMAP
0000
0000
0000
0000
0000
0000
FFFF
0000
0000
0000
0000
FFFF
0000
0000
0000
0000
ENDCHAR

STARTCHAR 224
ENCODING 41637
SWIDTH 640 0
DWIDTH 16 0
BBX 16 16 0 -1
BITMAP
0000
0080
0080
0080
0080
0080
00FF
0080
0080
0080
0080
00FF
0080
0080
0080
0080
ENDCHAR

STARTCHAR 225
ENCODING 41638
SWIDTH 640 0
DWIDTH 16 0
BBX 16 16 0 -1
BITMAP
0000
0080
0080
0080
0080
0080
FFFF
0080
0080
0080
0080
FFFF
0080
0080
0080
0080
ENDCHAR

STARTCHAR 226
ENCODING 41639
SWIDTH 640 0
DWIDTH 16 0
BBX 16 16 0 -1
BITMAP
0000
0080
0080
0080
0080
0080
FF80
0080
0080
0080
0080
FF80
0080
0080
0080
0080
ENDCHAR

STARTCHAR 227
ENCODING 41640
SWIDTH 640 0
DWIDTH 16 0
BBX 16 16 0 -1
BITMAP
0000
0001
0003
0007
000F
001F
003F
007F
00FF
01FF
03FF
07FF
0FFF
1FFF
3FFF
7FFF
ENDCHAR

STARTCHAR 228
ENCODING 41641
SWIDTH 640 0
DWIDTH 16 0
BBX 16 16 0 -1
BITMAP
0000
8000
C000
E000
F000
F800
FC00
FE00
FF00
FF80
FFC0
FFE0
FFF0
FFF8
FFFC
FFFE
ENDCHAR

STARTCHAR 229
ENCODING 41642
SWIDTH 640 0
DWIDTH 16 0
BBX 16 16 0 -1
BITMAP
0000
FFFF
7FFF
3FFF
1FFF
0FFF
07FF
03FF
01FF
00FF
007F
003F
001F
000F
0007
0003
ENDCHAR

STARTCHAR 230
ENCODING 41643
SWIDTH 640 0
DWIDTH 16 0
BBX 16 16 0 -1
BITMAP
0000
FFFF
FFFE
FFFC
FFF8
FFF0
FFE0
FFC0
FF80
FF00
FE00
FC00
F800
F000
E000
C000
ENDCHAR

STARTCHAR 231
ENCODING 41644
SWIDTH 640 0
DWIDTH 16 0
BBX 16 16 0 -1
BITMAP
0000
0001
0002
0004
0008
0010
0020
0040
0080
0100
0200
0400
0800
1000
2000
4000
ENDCHAR

STARTCHAR 232
ENCODING 41645
SWIDTH 640 0
DWIDTH 16 0
BBX 16 16 0 -1
BITMAP
0000
8000
4000
2000
1000
0800
0400
0200
0100
0080
0040
0020
0010
0008
0004
0002
ENDCHAR

STARTCHAR 233
ENCODING 41646
SWIDTH 640 0
DWIDTH 16 0
BBX 16 16 0 -1
BITMAP
0000
8001
4002
2004
1008
0810
0420
0240
0180
0180
0240
0420
0810
1008
2004
4002
ENDCHAR

STARTCHAR 234
ENCODING 41647
SWIDTH 640 0
DWIDTH 16 0
BBX 16 16 0 -1
BITMAP
0000
0000
07F0
0C18
180C
180C
180C
180C
180C
180C
180C
180C
180C
0C18
07F0
0000
ENDCHAR

STARTCHAR 235
ENCODING 41648
SWIDTH 640 0
DWIDTH 16 0
BBX 16 16 0 -1
BITMAP
0000
0000
0180
0380
0780
0180
0180
0180
0180
0180
0180
0180
0180
0180
0FF0
0000
ENDCHAR

STARTCHAR 236
ENCODING 41649
SWIDTH 640 0
DWIDTH 16 0
BBX 16 16 0 -1
BITMAP
0000
0000
07F0
0C18
180C
180C
181C
0038
00E0
0180
0700
0C00
1804
180C
1FFC
0000
ENDCHAR

STARTCHAR 237
ENCODING 41650
SWIDTH 640 0
DWIDTH 16 0
BBX 16 16 0 -1
BITMAP
0000
0000
07F0
0C18
180C
180C
000C
0038
01E0
0038
000C
180C
180C
0C18
07F0
0000
ENDCHAR

STARTCHAR 238
ENCODING 41651
SWIDTH 640 0
DWIDTH 16 0
BBX 16 16 0 -1
BITMAP
0000
0000
0030
0070
00F0
01B0
0330
0630
0C30
1830
3030
7FFE
0030
0030
00FC
0000
ENDCHAR

STARTCHAR 239
ENCODING 41652
SWIDTH 640 0
DWIDTH 16 0
BBX 16 16 0 -1
BITMAP
0000
0000
1FF8
1800
1800
1800
1BF0
1E18
1C0C
000C
000C
000C
180C
0C18
07F0
0000
ENDCHAR

STARTCHAR 240
ENCODING 41653
SWIDTH 640 0
DWIDTH 16 0
BBX 16 16 0 -1
BITMAP
0000
0000
07F0
0C18
1818
1800
1800
1BF0
1E18
180C
180C
180C
180C
0C18
07F0
0000
ENDCHAR

STARTCHAR 241
ENCODING 41654
SWIDTH 640 0
DWIDTH 16 0
BBX 16 16 0 -1
BITMAP
0000
0000
1FFC
100C
100C
0018
0030
0060
00C0
0180
0180
0180
0180
0180
0180
0000
ENDCHAR

STARTCHAR 242
ENCODING 41655
SWIDTH 640 0
DWIDTH 16 0
BBX 16 16 0 -1
BITMAP
0000
0000
07E0
0C30
1818
1818
0C30
07E0
1C38
300C
300C
300C
300C
1C38
07E0
0000
ENDCHAR

STARTCHAR 243
ENCODING 41656
SWIDTH 640 0
DWIDTH 16 0
BBX 16 16 0 -1
BITMAP
0000
0000
07E0
0C30
1818
180C
180C
181C
0C3C
07EC
000C
1818
1C18
0C30
07E0
0000
ENDCHAR

STARTCHAR 244
ENCODING 41657
SWIDTH 640 0
DWIDTH 16 0
BBX 16 16 0 -1
BITMAP
0000
0000
0000
03E0
0080
0080
0080
0080
0080
0080
0080
0080
0080
03E0
0000
0000
ENDCHAR

STARTCHAR 245
ENCODING 41658
SWIDTH 640 0
DWIDTH 16 0
BBX 16 16 0 -1
BITMAP
0000
0000
0000
0FF8
0220
0220
0220
0220
0220
0220
0220
0220
0220
0FF8
0000
0000
ENDCHAR

STARTCHAR 246
ENCODING 41659
SWIDTH 640 0
DWIDTH 16 0
BBX 16 16 0 -1
BITMAP
0000
0000
0000
1FFC
0490
0490
0490
0490
0490
0490
0490
0490
0490
1FFC
0000
0000
ENDCHAR

STARTCHAR 247
ENCODING 41660
SWIDTH 640 0
DWIDTH 16 0
BBX 16 16 0 -1
BITMAP
0000
0000
0000
7707
2202
2202
2104
2104
2088
2088
2050
2050
2020
7020
0000
0000
ENDCHAR

STARTCHAR 248
ENCODING 41661
SWIDTH 640 0
DWIDTH 16 0
BBX 16 16 0 -1
BITMAP
0000
0000
0000
380E
1004
1004
0808
0808
0410
0410
0220
0220
0140
0080
0080
0000
ENDCHAR

STARTCHAR 249
ENCODING 41662
SWIDTH 640 0
DWIDTH 16 0
BBX 16 16 0 -1
BITMAP
0000
0000
0000
7077
2022
2022
1042
1042
0882
0882
0502
0502
0202
0207
0000
0000
ENDCHAR

STARTCHAR 250
ENCODING 41663
SWIDTH 640 0
DWIDTH 16 0
BBX 16 16 0 -1
BITMAP
0000
0000
0000
71DF
208A
208A
110A
110A
0A0A
0A0A
0A0A
040A
040A
041F
0000
0000
ENDCHAR

STARTCHAR 251
ENCODING 41664
SWIDTH 640 0
DWIDTH 16 0
BBX 16 16 0 -1
BITMAP
0000
0000
0000
71FF
20AA
20AA
112A
112A
0A2A
0A2A
0A2A
042A
042A
047F
0000
0000
ENDCHAR

STARTCHAR 252
ENCODING 41665
SWIDTH 640 0
DWIDTH 16 0
BBX 16 16 0 -1
BITMAP
0000
0000
0000
770E
2204
2108
2090
2090
2060
2060
2090
2090
2108
2204
770E
0000
ENDCHAR

STARTCHAR 253
ENCODING 41666
SWIDTH 640 0
DWIDTH 16 0
BBX 16 16 0 -1
BITMAP
0000
0000
0000
7007
0808
0410
0220
0140
0080
0080
0140
0220
0410
0808
7007
0000
ENDCHAR

STARTCHAR 254
ENCODING 41667
SWIDTH 640 0
DWIDTH 16 0
BBX 16 16 0 -1
BITMAP
0000
0000
0000
0000
0080
0080
0080
0080
0080
0080
0080
0080
0080
0100
0000
0000
ENDCHAR

STARTCHAR 255
ENCODING 41668
SWIDTH 640 0
DWIDTH 16 0
BBX 16 16 0 -1
BITMAP
0000
0000
0000
0020
0420
0420
0420
0420
0420
0420
0420
0820
0020
0020
0000
0000
ENDCHAR

STARTCHAR 256
ENCODING 41669
SWIDTH 640 0
DWIDTH 16 0
BBX 16 16 0 -1
BITMAP
0000
0000
0000
0008
0008
0888
0888
0888
0888
0888
0888
0888
1088
0008
0008
0000
ENDCHAR

STARTCHAR 257
ENCODING 41670
SWIDTH 640 0
DWIDTH 16 0
BBX 16 16 0 -1
BITMAP
0000
0000
3006
180C
0C18
0630
0360
01C0
01C0
0360
0630
0C18
180C
3006
0000
0000
ENDCHAR

STARTCHAR 258
ENCODING 41671
SWIDTH 640 0
DWIDTH 16 0
BBX 16 16 0 -1
BITMAP
0000
0000
0000
0200
0400
0410
0220
0140
0080
0140
0220
0410
0808
0410
03E0
0000
ENDCHAR

STARTCHAR 259
ENCODING 41672
SWIDTH 640 0
DWIDTH 16 0
BBX 16 16 0 -1
BITMAP
0000
0000
0000
0080
0080
0080
0FF8
0000
0000
0000
0000
0000
0000
0000
0000
0000
ENDCHAR

STARTCHAR 260
ENCODING 41673
SWIDTH 640 0
DWIDTH 16 0
BBX 16 16 0 -1
BITMAP
0000
0000
0000
0080
0080
0080
0FF8
0000
0000
0FF8
0000
0000
0000
0000
0000
0000
ENDCHAR

STARTCHAR 261
ENCODING 41674
SWIDTH 640 0
DWIDTH 16 0
BBX 16 16 0 -1
BITMAP
0000
0000
0000
0080
0080
0080
0FF8
0000
0000
0FF8
0000
0000
0FF8
0000
0000
0000
ENDCHAR

STARTCHAR 262
ENCODING 41675
SWIDTH 640 0
DWIDTH 16 0
BBX 16 16 0 -1
BITMAP
0000
0000
0000
0400
0800
1FF8
0008
0410
0220
0140
0080
0140
0220
0410
0808
0000
ENDCHAR

STARTCHAR 263
ENCODING 41676
SWIDTH 640 0
DWIDTH 16 0
BBX 16 16 0 -1
BITMAP
0000
0000
0000
0080
0080
0080
0080
0FF8
0080
0080
0080
0080
0080
0100
0000
0000
ENDCHAR

STARTCHAR 264
ENCODING 41677
SWIDTH 640 0
DWIDTH 16 0
BBX 16 16 0 -1
BITMAP
0000
0000
0000
0020
0220
0220
0220
1FFC
0220
0220
0220
0220
0420
0020
0000
0000
ENDCHAR

STARTCHAR 265
ENCODING 41678
SWIDTH 640 0
DWIDTH 16 0
BBX 16 16 0 -1
BITMAP
0000
0000
0000
0010
0490
0490
0490
3FFE
0490
0490
0490
0490
0890
0010
0000
0000
ENDCHAR

STARTCHAR 266
ENCODING 41679
SWIDTH 640 0
DWIDTH 16 0
BBX 16 16 0 -1
BITMAP
0000
0000
0180
03C0
03C0
0660
0660
0C30
0C30
0FF0
1818
1818
300C
300C
781E
0000
ENDCHAR

STARTCHAR 267
ENCODING 41680
SWIDTH 640 0
DWIDTH 16 0
BBX 16 16 0 -1
BITMAP
0000
0000
1FE0
0C30
0C18
0C18
0C18
0C30
0FE0
0C30
0C18
0C0C
0C0C
0C18
1FF0
0000
ENDCHAR

STARTCHAR 268
ENCODING 41681
SWIDTH 640 0
DWIDTH 16 0
BBX 16 16 0 -1
BITMAP
0000
0000
07E4
0C34
181C
300C
3004
3000
3000
3000
3004
300C
1818
0C30
07E0
0000
ENDCHAR

STARTCHAR 269
ENCODING 41682
SWIDTH 640 0
DWIDTH 16 0
BBX 16 16 0 -1
BITMAP
0000
0000
3FE0
1830
1818
180C
180C
180C
180C
180C
180C
180C
1818
1830
3FE0
0000
ENDCHAR

STARTCHAR 270
ENCODING 41683
SWIDTH 640 0
DWIDTH 16 0
BBX 16 16 0 -1
BITMAP
0000
0000
1FF8
0C18
0C08
0C00
0C00
0C40
0FC0
0C40
0C00
0C00
0C08
0C18
1FF8
0000
ENDCHAR

STARTCHAR 271
ENCODING 41684
SWIDTH 640 0
DWIDTH 16 0
BBX 16 16 0 -1
BITMAP
0000
0000
1FF8
0C18
0C08
0C00
0C00
0C40
0FC0
0C40
0C00
0C00
0C00
0C00
1E00
0000
ENDCHAR

STARTCHAR 272
ENCODING 41685
SWIDTH 640 0
DWIDTH 16 0
BBX 16 16 0 -1
BITMAP
0000
0000
07E8
0C38
1818
3008
3008
3000
3000
303C
3018
3018
1838
0C78
07D8
0000
ENDCHAR

STARTCHAR 273
ENCODING 41686
SWIDTH 640 0
DWIDTH 16 0
BBX 16 16 0 -1
BITMAP
0000
0000
3C3C
1818
1818
1818
1818
1818
1FF8
1818
1818
1818
1818
1818
3C3C
0000
ENDCHAR

STARTCHAR 274
ENCODING 41687
SWIDTH 640 0
DWIDTH 16 0
BBX 16 16 0 -1
BITMAP
0000
0000
07E0
0180
0180
0180
0180
0180
0180
0180
0180
0180
0180
0180
07E0
0000
ENDCHAR

STARTCHAR 275
ENCODING 41688
SWIDTH 640 0
DWIDTH 16 0
BBX 16 16 0 -1
BITMAP
0000
0000
00F8
0030
0030
0030
0030
0030
0030
0030
1830
1830
1830
0C60
07C0
0000
ENDCHAR

STARTCHAR 276
ENCODING 41689
SWIDTH 640 0
DWIDTH 16 0
BBX 16 16 0 -1
BITMAP
0000
0000
3C7C
1830
1860
18C0
1980
1B00
1F00
1980
18C0
1860
1830
1818
3C3E
0000
ENDCHAR

STARTCHAR 277
ENCODING 41690
SWIDTH 640 0
DWIDTH 16 0
BBX 16 16 0 -1
BITMAP
0000
0000
1E00
0C00
0C00
0C00
0C00
0C00
0C00
0C00
0C00
0C04
0C0C
0C1C
1FFC
0000
ENDCHAR

STARTCHAR 278
ENCODING 41691
SWIDTH 640 0
DWIDTH 16 0
BBX 16 16 0 -1
BITMAP
0000
0000
780F
380E
3C1E
3C1E
3636
3636
3226
3366
3366
31C6
31C6
3086
781F
0000
ENDCHAR

STARTCHAR 279
ENCODING 41692
SWIDTH 640 0
DWIDTH 16 0
BBX 16 16 0 -1
BITMAP
0000
0000
701E
380C
3C0C
3E0C
370C
338C
31CC
30EC
307C
303C
301C
300C
781E
0000
ENDCHAR

STARTCHAR 280
ENCODING 41693
SWIDTH 640 0
DWIDTH 16 0
BBX 16 16 0 -1
BITMAP
0000
0000
0FF0
1C38
381C
300C
300C
300C
300C
300C
300C
300C
381C
1C38
0FF0
0000
ENDCHAR

STARTCHAR 281
ENCODING 41694
SWIDTH 640 0
DWIDTH 16 0
BBX 16 16 0 -1
BITMAP
0000
0000
1FE0
0C38
0C1C
0C0C
0C0C
0C1C
0C38
0FE0
0C00
0C00
0C00
0C00
1E00
0000
ENDCHAR

STARTCHAR 282
ENCODING 41695
SWIDTH 640 0
DWIDTH 16 0
BBX 16 16 0 -1
BITMAP
0000
0000
0FC0
3870
7038
6018
6018
6018
6018
6018
6018
6798
70F8
3873
0FFE
0000
ENDCHAR

STARTCHAR 283
ENCODING 41696
SWIDTH 640 0
DWIDTH 16 0
BBX 16 16 0 -1
BITMAP
0000
0000
3FF0
1818
180C
180C
180C
1818
1FF0
1980
18C0
1860
1830
1818
3C1E
0000
ENDCHAR

STARTCHAR 284
ENCODING 41697
SWIDTH 640 0
DWIDTH 16 0
BBX 16 16 0 -1
BITMAP
0000
0000
07E8
0C38
1818
1808
0C00
0700
01C0
0070
1018
180C
1C0C
1618
13F0
0000
ENDCHAR

STARTCHAR 285
ENCODING 41698
SWIDTH 640 0
DWIDTH 16 0
BBX 16 16 0 -1
BITMAP
0000
0000
3FFC
399C
318C
2184
0180
0180
0180
0180
0180
0180
0180
0180
03C0
0000
ENDCHAR

STARTCHAR 286
ENCODING 41699
SWIDTH 640 0
DWIDTH 16 0
BBX 16 16 0 -1
BITMAP
0000
0000
3C3C
1818
1818
1818
1818
1818
1818
1818
1818
1818
1818
0E70
07E0
0000
ENDCHAR

STARTCHAR 287
ENCODING 41700
SWIDTH 640 0
DWIDTH 16 0
BBX 16 16 0 -1
BITMAP
0000
0000
783C
3018
3018
3018
3018
3018
3018
3018
1830
0C60
06C0
0380
0100
0000
ENDCHAR

STARTCHAR 288
ENCODING 41701
SWIDTH 640 0
DWIDTH 16 0
BBX 16 16 0 -1
BITMAP
0000
0000
71C7
2082
2082
31C6
11C6
1144
1B6C
1B6C
0A28
0E38
0410
0410
0410
0000
ENDCHAR

STARTCHAR 289
ENCODING 41702
SWIDTH 640 0
DWIDTH 16 0
BBX 16 16 0 -1
BITMAP
0000
0000
7C1F
180C
0C18
0630
0220
0360
01C0
01C0
0360
0630
0C18
180C
7C1F
0000
ENDCHAR

STARTCHAR 290
ENCODING 41703
SWIDTH 640 0
DWIDTH 16 0
BBX 16 16 0 -1
BITMAP
0000
0000
781E
300C
1818
0C30
0660
03C0
0180
0180
0180
0180
0180
0180
03C0
0000
ENDCHAR

STARTCHAR 291
ENCODING 41704
SWIDTH 640 0
DWIDTH 16 0
BBX 16 16 0 -1
BITMAP
0000
0000
1FFC
180C
1018
0030
0060
00C0
0180
0300
0600
0C00
1804
300C
3FFC
0000
ENDCHAR

STARTCHAR 292
ENCODING 41705
SWIDTH 640 0
DWIDTH 16 0
BBX 16 16 0 -1
BITMAP
0000
0000
0000
0000
0000
0000
0FC0
1860
0060
07E0
0C60
1860
18E8
0FB8
0000
0000
ENDCHAR

STARTCHAR 293
ENCODING 41706
SWIDTH 640 0
DWIDTH 16 0
BBX 16 16 0 -1
BITMAP
0000
0000
1C00
0C00
0C00
0C00
0C00
0FE0
0E30
0C18
0C18
0C18
0E30
1FE0
0000
0000
ENDCHAR

STARTCHAR 294
ENCODING 41707
SWIDTH 640 0
DWIDTH 16 0
BBX 16 16 0 -1
BITMAP
0000
0000
0000
0000
0000
0000
07E0
0C30
1800
1800
1800
1800
0C30
07E0
0000
0000
ENDCHAR

STARTCHAR 295
ENCODING 41708
SWIDTH 640 0
DWIDTH 16 0
BBX 16 16 0 -1
BITMAP
0000
0000
0038
0018
0018
0018
0018
07D8
0C78
1818
1818
1818
0C78
07D8
0000
0000
ENDCHAR

STARTCHAR 296
ENCODING 41709
SWIDTH 640 0
DWIDTH 16 0
BBX 16 16 0 -1
BITMAP
0000
0000
0000
0000
0000
0000
07E0
0C30
1818
1FF8
1800
1800
0C18
07F0
0000
0000
ENDCHAR

STARTCHAR 297
ENCODING 41710
SWIDTH 640 0
DWIDTH 16 0
BBX 16 16 0 -1
BITMAP
0000
0000
01E0
0330
0330
0300
0300
1FE0
0300
0300
0300
0300
0300
0780
0000
0000
ENDCHAR

STARTCHAR 298
ENCODING 41711
SWIDTH 640 0
DWIDTH 16 0
BBX 16 16 0 -1
BITMAP
0000
0000
0000
0000
0000
07D8
0C70
0C60
0C60
07C0
07C0
0C60
1830
1830
0C60
07C0
ENDCHAR

STARTCHAR 299
ENCODING 41712
SWIDTH 640 0
DWIDTH 16 0
BBX 16 16 0 -1
BITMAP
0000
0000
1C00
0C00
0C00
0C00
0C00
0DE0
0F30
0E18
0C18
0C18
0C18
1E3C
0000
0000
ENDCHAR

STARTCHAR 300
ENCODING 41713
SWIDTH 640 0
DWIDTH 16 0
BBX 16 16 0 -1
BITMAP
0000
0000
0000
0180
0180
0000
0000
0380
0180
0180
0180
0180
0180
03C0
0000
0000
ENDCHAR

STARTCHAR 301
ENCODING 41714
SWIDTH 640 0
DWIDTH 16 0
BBX 16 16 0 -1
BITMAP
0000
0000
0000
00C0
00C0
0000
0000
01C0
00C0
00C0
00C0
00C0
0CC0
0CC0
0CC0
0780
ENDCHAR

STARTCHAR 302
ENCODING 41715
SWIDTH 640 0
DWIDTH 16 0
BBX 16 16 0 -1
BITMAP
0000
0000
1C00
0C00
0C00
0C00
0CF8
0C60
0CC0
0D80
0FC0
0E60
0C30
1E7C
0000
0000
ENDCHAR

STARTCHAR 303
ENCODING 41716
SWIDTH 640 0
DWIDTH 16 0
BBX 16 16 0 -1
BITMAP
0000
0000
0380
0180
0180
0180
0180
0180
0180
0180
0180
0180
0180
03C0
0000
0000
ENDCHAR

STARTCHAR 304
ENCODING 41717
SWIDTH 640 0
DWIDTH 16 0
BBX 16 16 0 -1
BITMAP
0000
0000
0000
0000
0000
0000
6F78
39CC
318C
318C
318C
318C
318C
79CE
0000
0000
ENDCHAR

STARTCHAR 305
ENCODING 41718
SWIDTH 640 0
DWIDTH 16 0
BBX 16 16 0 -1
BITMAP
0000
0000
0000
0000
0000
0000
1BE0
0E30
0C30
0C30
0C30
0C30
0C30
1E78
0000
0000
ENDCHAR

STARTCHAR 306
ENCODING 41719
SWIDTH 640 0
DWIDTH 16 0
BBX 16 16 0 -1
BITMAP
0000
0000
0000
0000
0000
0000
07E0
0C30
1818
1818
1818
1818
0C30
07E0
0000
0000
ENDCHAR

STARTCHAR 307
ENCODING 41720
SWIDTH 640 0
DWIDTH 16 0
BBX 16 16 0 -1
BITMAP
0000
0000
0000
0000
0000
0000
1BE0
0E30
0C18
0C18
0C18
0E30
0FE0
0C00
0C00
1E00
ENDCHAR

STARTCHAR 308
ENCODING 41721
SWIDTH 640 0
DWIDTH 16 0
BBX 16 16 0 -1
BITMAP
0000
0000
0000
0000
0000
0000
07C0
0C70
1830
1830
1830
0C70
07F0
0030
0030
0078
ENDCHAR

STARTCHAR 309
ENCODING 41722
SWIDTH 640 0
DWIDTH 16 0
BBX 16 16 0 -1
BITMAP
0000
0000
0000
0000
0000
0000
0DE0
0770
0630
0600
0600
0600
0600
0F00
0000
0000
ENDCHAR

STARTCHAR 310
ENCODING 41723
SWIDTH 640 0
DWIDTH 16 0
BBX 16 16 0 -1
BITMAP
0000
0000
0000
0000
0000
07E0
0C70
0C10
0700
0180
00E0
0830
0C30
07E0
0000
0000
ENDCHAR

STARTCHAR 311
ENCODING 41724
SWIDTH 640 0
DWIDTH 16 0
BBX 16 16 0 -1
BITMAP
0000
0000
0300
0300
0300
1FE0
0300
0300
0300
0300
0330
0370
03E0
01C0
0000
0000
ENDCHAR

STARTCHAR 312
ENCODING 41725
SWIDTH 640 0
DWIDTH 16 0
BBX 16 16 0 -1
BITMAP
0000
0000
0000
0000
0000
0000
1C70
0C30
0C30
0C30
0C30
0C30
0C70
07DC
0000
0000
ENDCHAR

STARTCHAR 313
ENCODING 41726
SWIDTH 640 0
DWIDTH 16 0
BBX 16 16 0 -1
BITMAP
0000
0000
0000
0000
0000
0000
1E3C
0C18
0630
0630
0360
0360
01C0
01C0
0080
0000
ENDCHAR

STARTCHAR 314
ENCODING 41792
SWIDTH 640 0
DWIDTH 16 0
BBX 16 16 0 -1
BITMAP
0000
0000
0000
0000
0000
0000
7BDE
318C
318C
318C
3BDC
1FF8
0E70
0420
0000
0000
ENDCHAR

STARTCHAR 315
ENCODING 41793
SWIDTH 640 0
DWIDTH 16 0
BBX 16 16 0 -1
BITMAP
0000
0000
0000
0000
0000
0000
3E7C
0C30
0660
03C0
03C0
0660
0C30
3E7C
0000
0000
ENDCHAR

STARTCHAR 316
ENCODING 41794
SWIDTH 640 0
DWIDTH 16 0
BBX 16 16 0 -1
BITMAP
0000
0000
0000
0000
0000
0000
1E3C
0C18
0630
0330
01E0
00E0
00C0
1980
1B80
0F00
ENDCHAR

STARTCHAR 317
ENCODING 41795
SWIDTH 640 0
DWIDTH 16 0
BBX 16 16 0 -1
BITMAP
0000
0000
0000
0000
0000
0FF0
0C30
0860
00C0
0180
0300
0608
0C18
0FF8
0000
0000
ENDCHAR

STARTCHAR 318
ENCODING 41796
SWIDTH 640 0
DWIDTH 16 0
BBX 16 16 0 -1
BITMAP
0000
0080
01C0
01C0
0360
0360
0360
0630
0630
07F0
0C18
0C18
180C
180C
3C1E
0000
ENDCHAR

STARTCHAR 319
ENCODING 41797
SWIDTH 640 0
DWIDTH 16 0
BBX 16 16 0 -1
BITMAP
0000
1FE0
0C70
0C18
0C18
0C18
0C30
0FE0
0C30
0C18
0C0C
0C0C
0C0C
0C18
1FF0
0000
ENDCHAR

STARTCHAR 320
ENCODING 41798
SWIDTH 640 0
DWIDTH 16 0
BBX 16 16 0 -1
BITMAP
0000
1FFC
0C1C
0C0C
0C04
0C00
0C00
0C00
0C00
0C00
0C00
0C00
0C00
0C00
1E00
0000
ENDCHAR

STARTCHAR 321
ENCODING 41799
SWIDTH 640 0
DWIDTH 16 0
BBX 16 16 0 -1
BITMAP
0000
0180
0180
03C0
0240
0660
0420
0C30
0810
1818
1008
300C
2004
6006
7FFE
0000
ENDCHAR

STARTCHAR 322
ENCODING 41800
SWIDTH 640 0
DWIDTH 16 0
BBX 16 16 0 -1
BITMAP
0000
1FF8
0C18
0C08
0C00
0C40
0C40
0FC0
0C40
0C40
0C00
0C00
0C08
0C18
1FF8
0000
ENDCHAR

STARTCHAR 323
ENCODING 41801
SWIDTH 640 0
DWIDTH 16 0
BBX 16 16 0 -1
BITMAP
0000
1FFE
180E
100C
0018
0030
0060
00C0
0180
0300
0600
0C00
1804
300C
3FFC
0000
ENDCHAR

STARTCHAR 324
ENCODING 41802
SWIDTH 640 0
DWIDTH 16 0
BBX 16 16 0 -1
BITMAP
0000
3C3C
1818
1818
1818
1818
1818
1FF8
1818
1818
1818
1818
1818
1818
3C3C
0000
ENDCHAR

STARTCHAR 325
ENCODING 41803
SWIDTH 640 0
DWIDTH 16 0
BBX 16 16 0 -1
BITMAP
0000
0000
07C0
1C70
3018
3018
3458
37D8
37D8
3458
3018
3018
1C70
07C0
0000
0000
ENDCHAR

STARTCHAR 326
ENCODING 41804
SWIDTH 640 0
DWIDTH 16 0
BBX 16 16 0 -1
BITMAP
0000
07E0
0180
0180
0180
0180
0180
0180
0180
0180
0180
0180
0180
0180
07E0
0000
ENDCHAR

STARTCHAR 327
ENCODING 41805
SWIDTH 640 0
DWIDTH 16 0
BBX 16 16 0 -1
BITMAP
0000
3C3C
1818
1830
1860
18C0
1980
1B00
1F80
1CC0
1860
1830
1818
180C
3C1E
0000
ENDCHAR

STARTCHAR 328
ENCODING 41806
SWIDTH 640 0
DWIDTH 16 0
BBX 16 16 0 -1
BITMAP
0000
0180
0180
03C0
0660
0660
0660
0C30
0C30
1818
1818
300C
300C
6006
700E
0000
ENDCHAR

STARTCHAR 329
ENCODING 41807
SWIDTH 640 0
DWIDTH 16 0
BBX 16 16 0 -1
BITMAP
0000
700E
381C
381C
3C3C
342C
342C
366C
366C
324C
324C
33CC
318C
318C
781E
0000
ENDCHAR

STARTCHAR 330
ENCODING 41808
SWIDTH 640 0
DWIDTH 16 0
BBX 16 16 0 -1
BITMAP
0000
3C1E
1C0C
1E0C
1F0C
1B0C
198C
19CC
18CC
186C
187C
183C
181C
181C
3C0C
0000
ENDCHAR

STARTCHAR 331
ENCODING 41809
SWIDTH 640 0
DWIDTH 16 0
BBX 16 16 0 -1
BITMAP
0000
0FFC
1FF8
1008
0000
0000
0408
0FF0
1020
0000
0000
0000
1004
1FFC
3FF8
0000
ENDCHAR

STARTCHAR 332
ENCODING 41810
SWIDTH 640 0
DWIDTH 16 0
BBX 16 16 0 -1
BITMAP
0000
0000
07E0
1C38
300C
300C
300C
300C
300C
300C
300C
300C
300C
1C38
07E0
0000
ENDCHAR

STARTCHAR 333
ENCODING 41811
SWIDTH 640 0
DWIDTH 16 0
BBX 16 16 0 -1
BITMAP
0000
3FFC
1818
1818
1818
1818
1818
1818
1818
1818
1818
1818
1818
1818
3C3C
0000
ENDCHAR

STARTCHAR 334
ENCODING 41812
SWIDTH 640 0
DWIDTH 16 0
BBX 16 16 0 -1
BITMAP
0000
1FE0
0C38
0C1C
0C0C
0C0C
0C1C
0C38
0FE0
0C00
0C00
0C00
0C00
0C00
1E00
0000
ENDCHAR

STARTCHAR 335
ENCODING 41813
SWIDTH 640 0
DWIDTH 16 0
BBX 16 16 0 -1
BITMAP
0000
1FFC
1FFC
0C0C
0604
0300
0180
00C0
00C0
0180
0300
0604
0C0C
1FFC
1FFC
0000
ENDCHAR

STARTCHAR 336
ENCODING 41814
SWIDTH 640 0
DWIDTH 16 0
BBX 16 16 0 -1
BITMAP
0000
3FFC
399C
318C
2184
0180
0180
0180
0180
0180
0180
0180
0180
0180
03C0
0000
ENDCHAR

STARTCHAR 337
ENCODING 41815
SWIDTH 640 0
DWIDTH 16 0
BBX 16 16 0 -1
BITMAP
0000
0E70
1FF8
31CC
318C
318C
0180
0180
0180
0180
0180
0180
0180
0180
03C0
0000
ENDCHAR

STARTCHAR 338
ENCODING 41816
SWIDTH 640 0
DWIDTH 16 0
BBX 16 16 0 -1
BITMAP
0000
03C0
0180
07E0
1DB8
318C
6186
6186
6186
6186
318C
1DB8
07E0
0180
03C0
0000
ENDCHAR

STARTCHAR 339
ENCODING 41817
SWIDTH 640 0
DWIDTH 16 0
BBX 16 16 0 -1
BITMAP
0000
7C1E
300C
1818
0C30
0660
03C0
0180
0180
03C0
0660
0C30
1818
300C
7C3E
0000
ENDCHAR

STARTCHAR 340
ENCODING 41818
SWIDTH 640 0
DWIDTH 16 0
BBX 16 16 0 -1
BITMAP
0000
63C6
F18F
9999
1998
1998
1998
1998
1998
0DB0
0DB0
07E0
0180
0180
03C0
0000
ENDCHAR

STARTCHAR 341
ENCODING 41819
SWIDTH 640 0
DWIDTH 16 0
BBX 16 16 0 -1
BITMAP
0000
03C0
0660
0C30
1818
1818
1818
1818
1818
0C30
0660
0660
3666
3E7E
0000
0000
ENDCHAR

STARTCHAR 342
ENCODING 41820
SWIDTH 640 0
DWIDTH 16 0
BBX 16 16 0 -1
BITMAP
0000
0000
0000
0000
0000
0000
03CE
0778
0C30
1830
1830
1830
1870
0CD8
078E
0000
ENDCHAR

STARTCHAR 343
ENCODING 41821
SWIDTH 640 0
DWIDTH 16 0
BBX 16 16 0 -1
BITMAP
0000
00F0
0198
030C
070C
0618
0C30
0DE0
0C60
1C30
1818
1818
3C30
33E0
3000
0000
ENDCHAR

STARTCHAR 344
ENCODING 41822
SWIDTH 640 0
DWIDTH 16 0
BBX 16 16 0 -1
BITMAP
0000
0000
0000
0000
0000
0000
0630
0F70
19E0
10C0
00C0
01C0
0180
0380
0700
0000
ENDCHAR

STARTCHAR 345
ENCODING 41823
SWIDTH 640 0
DWIDTH 16 0
BBX 16 16 0 -1
BITMAP
0000
01E0
0330
0318
0188
00F0
01E0
0730
0630
0C30
0C30
0C30
0C70
0EE0
07C0
0000
ENDCHAR

STARTCHAR 346
ENCODING 41824
SWIDTH 640 0
DWIDTH 16 0
BBX 16 16 0 -1
BITMAP
0000
0000
0000
0000
0000
0000
03E0
0630
0400
0780
0780
0C00
0C10
07F0
01C0
0000
ENDCHAR

STARTCHAR 347
ENCODING 41825
SWIDTH 640 0
DWIDTH 16 0
BBX 16 16 0 -1
BITMAP
0000
0300
0620
0C60
07C0
0180
0300
0600
0C00
0C00
0F00
07C0
00E0
0CE0
07C0
0000
ENDCHAR

STARTCHAR 348
ENCODING 41826
SWIDTH 640 0
DWIDTH 16 0
BBX 16 16 0 -1
BITMAP
0000
0000
0000
0000
0000
0000
1DE0
3770
0630
0630
0C30
0C30
0C30
0C60
0060
0000
ENDCHAR

STARTCHAR 349
ENCODING 41827
SWIDTH 640 0
DWIDTH 16 0
BBX 16 16 0 -1
BITMAP
0000
0000
0000
03C0
0420
0810
0810
0810
0FF0
0810
0810
0810
0420
03C0
0000
0000
ENDCHAR

STARTCHAR 350
ENCODING 41828
SWIDTH 640 0
DWIDTH 16 0
BBX 16 16 0 -1
BITMAP
0000
0000
0000
0000
0000
0000
0180
0180
0300
0700
0600
0E20
0C60
0FC0
0700
0000
ENDCHAR

STARTCHAR 351
ENCODING 41829
SWIDTH 640 0
DWIDTH 16 0
BBX 16 16 0 -1
BITMAP
0000
0000
0000
0000
0000
0C00
1E30
3670
26C0
0D80
0F80
0EC0
0CC8
1CF8
3870
0000
ENDCHAR

STARTCHAR 352
ENCODING 41830
SWIDTH 640 0
DWIDTH 16 0
BBX 16 16 0 -1
BITMAP
0000
0000
0F00
0180
00C0
00C0
00C0
01C0
03C0
03C0
06C0
0660
0C30
0C3C
0C1C
0000
ENDCHAR

STARTCHAR 353
ENCODING 41831
SWIDTH 640 0
DWIDTH 16 0
BBX 16 16 0 -1
BITMAP
0000
0000
0000
0000
0000
0000
0630
0630
0630
0630
0C30
0C60
0C64
0EFC
1BB8
0000
ENDCHAR

STARTCHAR 354
ENCODING 41832
SWIDTH 640 0
DWIDTH 16 0
BBX 16 16 0 -1
BITMAP
0000
0000
0000
0000
0000
0000
0C18
0618
0718
0318
0330
0660
0660
07C0
0700
0000
ENDCHAR

STARTCHAR 355
ENCODING 41833
SWIDTH 640 0
DWIDTH 16 0
BBX 16 16 0 -1
BITMAP
0000
01C0
0300
07F0
0600
0600
0300
03F0
0600
0C00
0700
03C0
00E0
0630
03E0
0000
ENDCHAR

STARTCHAR 356
ENCODING 41834
SWIDTH 640 0
DWIDTH 16 0
BBX 16 16 0 -1
BITMAP
0000
0000
0000
0000
0000
0000
03E0
0630
0C18
1818
1818
1818
1830
0C60
07C0
0000
ENDCHAR

STARTCHAR 357
ENCODING 41835
SWIDTH 640 0
DWIDTH 16 0
BBX 16 16 0 -1
BITMAP
0000
0000
0000
0000
0000
0018
0FF8
1FF0
0660
0660
0660
0660
0E68
1C78
1870
0000
ENDCHAR

STARTCHAR 358
ENCODING 41836
SWIDTH 640 0
DWIDTH 16 0
BBX 16 16 0 -1
BITMAP
0000
0000
0000
0000
0000
0000
01E0
0730
0618
0C18
1C18
1C30
1FE0
1800
1800
0000
ENDCHAR

STARTCHAR 359
ENCODING 41837
SWIDTH 640 0
DWIDTH 16 0
BBX 16 16 0 -1
BITMAP
0000
0000
0000
0000
0000
0004
03CC
0678
0C30
1830
1830
1830
1860
0CC0
0780
0000
ENDCHAR

STARTCHAR 360
ENCODING 41838
SWIDTH 640 0
DWIDTH 16 0
BBX 16 16 0 -1
BITMAP
0000
0000
0000
0000
0000
0030
07E0
1FC0
0300
0300
0600
0600
0E40
0FC0
0700
0000
ENDCHAR

STARTCHAR 361
ENCODING 41839
SWIDTH 640 0
DWIDTH 16 0
BBX 16 16 0 -1
BITMAP
0000
0000
0000
0000
0000
0000
0C70
0630
0630
0630
0630
0630
0630
0660
03C0
0000
ENDCHAR

STARTCHAR 362
ENCODING 41840
SWIDTH 640 0
DWIDTH 16 0
BBX 16 16 0 -1
BITMAP
0000
0060
0060
0060
03E0
07F0
0CD8
18D8
1998
0DB0
0FE0
03C0
0300
0600
3C00
0000
ENDCHAR

STARTCHAR 363
ENCODING 41841
SWIDTH 640 0
DWIDTH 16 0
BBX 16 16 0 -1
BITMAP
0000
0000
0000
0000
0C18
1E38
1360
01C0
0180
0380
06C0
0CC4
38EC
3078
0000
0000
ENDCHAR

STARTCHAR 364
ENCODING 41842
SWIDTH 640 0
DWIDTH 16 0
BBX 16 16 0 -1
BITMAP
0000
0060
0060
0060
0060
00E0
06C8
0CD8
1CD8
1998
1DB8
0DB0
07E0
0300
0700
0000
ENDCHAR

STARTCHAR 365
ENCODING 41843
SWIDTH 640 0
DWIDTH 16 0
BBX 16 16 0 -1
BITMAP
0000
0000
0000
0000
0000
0000
0718
0C0C
180C
18CC
18CC
198C
198C
1DD8
0770
0000
ENDCHAR

STARTCHAR 366
ENCODING 41844
SWIDTH 640 0
DWIDTH 16 0
BBX 16 16 0 -1
BITMAP
0000
0000
0000
0400
0800
1000
3FFC
0004
0004
0008
0008
0010
0110
00E0
0000
0000
ENDCHAR

STARTCHAR 367
ENCODING 41845
SWIDTH 640 0
DWIDTH 16 0
BBX 16 16 0 -1
BITMAP
0000
0000
0400
0800
1000
3FF8
0008
0410
0220
0140
0080
0140
0220
0410
0808
0000
ENDCHAR

STARTCHAR 368
ENCODING 41846
SWIDTH 640 0
DWIDTH 16 0
BBX 16 16 0 -1
BITMAP
0000
0000
0000
0000
1FFC
1004
1004
1004
1004
1004
1004
1004
1004
0000
0000
0000
ENDCHAR

STARTCHAR 369
ENCODING 41847
SWIDTH 640 0
DWIDTH 16 0
BBX 16 16 0 -1
BITMAP
0000
0000
0000
0000
1FFC
0800
0800
0800
0800
0800
0800
0800
07FC
0000
0000
0000
ENDCHAR

STARTCHAR 370
ENCODING 41848
SWIDTH 640 0
DWIDTH 16 0
BBX 16 16 0 -1
BITMAP
0000
0000
0000
0400
0800
1000
3FFC
0104
0104
0104
0204
0404
0848
0030
0000
0000
ENDCHAR

STARTCHAR 371
ENCODING 41849
SWIDTH 640 0
DWIDTH 16 0
BBX 16 16 0 -1
BITMAP
0000
0000
0000
0040
0040
0040
1FFC
0080
0100
0200
0400
0810
1FF8
0004
0000
0000
ENDCHAR

STARTCHAR 372
ENCODING 41850
SWIDTH 640 0
DWIDTH 16 0
BBX 16 16 0 -1
BITMAP
0000
0000
0000
1FE0
0040
0080
0100
03FC
0004
0004
0004
0108
0090
0060
0000
0000
ENDCHAR

STARTCHAR 373
ENCODING 41851
SWIDTH 640 0
DWIDTH 16 0
BBX 16 16 0 -1
BITMAP
0000
0000
0000
0080
0480
0880
1080
3FFC
0104
0104
0204
0404
0848
0030
0000
0000
ENDCHAR

STARTCHAR 374
ENCODING 41852
SWIDTH 640 0
DWIDTH 16 0
BBX 16 16 0 -1
BITMAP
0000
0000
0000
0410
0410
0820
0820
1040
1040
0820
0820
0410
0410
0208
0000
0000
ENDCHAR

STARTCHAR 375
ENCODING 41853
SWIDTH 640 0
DWIDTH 16 0
BBX 16 16 0 -1
BITMAP
0000
0000
0000
3FFC
0200
0400
0800
1FFC
0004
0008
0008
0010
0120
00C0
0000
0000
ENDCHAR

STARTCHAR 376
ENCODING 41854
SWIDTH 640 0
DWIDTH 16 0
BBX 16 16 0 -1
BITMAP
0000
0000
0000
1FFC
0800
0800
0800
0800
0800
0800
0800
1000
2000
4000
0000
0000
ENDCHAR

STARTCHAR 377
ENCODING 41889
SWIDTH 640 0
DWIDTH 16 0
BBX 16 16 0 -1
BITMAP
0000
0000
0000
0008
0008
1008
1008
1008
1078
1388
1C08
0008
0008
0008
0000
0000
ENDCHAR

STARTCHAR 378
ENCODING 41890
SWIDTH 640 0
DWIDTH 16 0
BBX 16 16 0 -1
BITMAP
0000
0000
0080
0100
0100
0200
0200
0400
0400
0200
0200
0100
0100
0080
0000
0000
ENDCHAR

STARTCHAR 379
ENCODING 41891
SWIDTH 640 0
DWIDTH 16 0
BBX 16 16 0 -1
BITMAP
0000
0000
0000
1FFC
0080
0080
0080
0080
0080
0080
0080
0080
0080
0080
0000
0000
ENDCHAR

STARTCHAR 380
ENCODING 41892
SWIDTH 640 0
DWIDTH 16 0
BBX 16 16 0 -1
BITMAP
0000
0000
0000
0080
0080
0888
0888
0888
0888
0FF8
0080
0080
0080
1FFC
0000
0000
ENDCHAR

STARTCHAR 381
ENCODING 41893
SWIDTH 640 0
DWIDTH 16 0
BBX 16 16 0 -1
BITMAP
0000
0000
0000
0060
0180
0600
1818
0060
0180
0680
1880
0080
0080
0080
0000
0000
ENDCHAR

STARTCHAR 382
ENCODING 41894
SWIDTH 640 0
DWIDTH 16 0
BBX 16 16 0 -1
BITMAP
0000
0000
0000
1FFC
0004
0004
0004
0FFC
0800
0800
0800
1000
2000
4000
0000
0000
ENDCHAR

STARTCHAR 383
ENCODING 41895
SWIDTH 640 0
DWIDTH 16 0
BBX 16 16 0 -1
BITMAP
0000
0000
0000
1FFC
1004
1004
1204
1104
1084
1044
1024
1004
1004
1FFC
0000
0000
ENDCHAR

STARTCHAR 384
ENCODING 41896
SWIDTH 640 0
DWIDTH 16 0
BBX 16 16 0 -1
BITMAP
0000
0000
0000
1FFC
0404
0404
0404
0448
0430
0400
0400
0400
0400
0400
0000
0000
ENDCHAR

STARTCHAR 385
ENCODING 41897
SWIDTH 640 0
DWIDTH 16 0
BBX 16 16 0 -1
BITMAP
0000
0000
0000
0100
0100
1FFC
0200
0400
0FF8
0010
0010
0020
0020
0040
0000
0000
ENDCHAR

STARTCHAR 386
ENCODING 41898
SWIDTH 640 0
DWIDTH 16 0
BBX 16 16 0 -1
BITMAP
0000
0000
0000
0200
0200
0400
0400
0800
0810
1008
101C
21E2
3E00
0000
0000
0000
ENDCHAR

STARTCHAR 387
ENCODING 41899
SWIDTH 640 0
DWIDTH 16 0
BBX 16 16 0 -1
BITMAP
0000
0000
0000
0808
0410
0220
0140
0080
0080
0080
0080
0080
0080
0080
0000
0000
ENDCHAR

STARTCHAR 388
ENCODING 41900
SWIDTH 640 0
DWIDTH 16 0
BBX 16 16 0 -1
BITMAP
0000
0000
0000
0000
1FFC
0040
0040
0740
08C0
1040
1000
1010
0820
07C0
0000
0000
ENDCHAR

STARTCHAR 389
ENCODING 41901
SWIDTH 640 0
DWIDTH 16 0
BBX 16 16 0 -1
BITMAP
0000
0000
0040
0040
1FFC
0040
0040
0740
08C0
1040
1000
1010
0820
07C0
0000
0000
ENDCHAR

STARTCHAR 390
ENCODING 41902
SWIDTH 640 0
DWIDTH 16 0
BBX 16 16 0 -1
BITMAP
0000
0000
0000
0420
0420
0420
3FFE
0420
0420
0420
0400
0200
01F8
0000
0000
0000
ENDCHAR

STARTCHAR 391
ENCODING 41903
SWIDTH 640 0
DWIDTH 16 0
BBX 16 16 0 -1
BITMAP
0000
0000
0000
1FFC
0440
0440
0880
1080
1FF8
0108
0210
0210
0420
0420
0000
0000
ENDCHAR

STARTCHAR 392
ENCODING 41904
SWIDTH 640 0
DWIDTH 16 0
BBX 16 16 0 -1
BITMAP
0000
0000
0000
0080
0340
0C40
3020
0020
0010
0010
0008
0008
0004
0004
0000
0000
ENDCHAR

STARTCHAR 393
ENCODING 41905
SWIDTH 640 0
DWIDTH 16 0
BBX 16 16 0 -1
BITMAP
0000
0000
0400
0808
1010
0820
0440
0280
0100
0200
0400
0820
1010
3FF8
0004
0000
ENDCHAR

STARTCHAR 394
ENCODING 41906
SWIDTH 640 0
DWIDTH 16 0
BBX 16 16 0 -1
BITMAP
0000
0000
0000
0FF8
0808
0410
0220
0140
0080
0140
0220
0410
0808
1004
0000
0000
ENDCHAR

STARTCHAR 395
ENCODING 41907
SWIDTH 640 0
DWIDTH 16 0
BBX 16 16 0 -1
BITMAP
0000
0000
0000
1FF8
0208
0208
0410
0410
0FFC
0004
0008
0008
0010
0010
0000
0000
ENDCHAR

STARTCHAR 396
ENCODING 41908
SWIDTH 640 0
DWIDTH 16 0
BBX 16 16 0 -1
BITMAP
0000
0000
0000
0800
0800
0800
1000
1FFC
0004
0008
0008
0010
0010
0020
0000
0000
ENDCHAR

STARTCHAR 397
ENCODING 41909
SWIDTH 640 0
DWIDTH 16 0
BBX 16 16 0 -1
BITMAP
0000
0000
0000
0080
0080
0080
1FFC
0080
00A0
0120
0220
0420
0820
101E
0000
0000
ENDCHAR

STARTCHAR 398
ENCODING 41910
SWIDTH 640 0
DWIDTH 16 0
BBX 16 16 0 -1
BITMAP
0000
0000
0000
0000
0200
0200
0400
0400
0800
0800
1000
1000
3FFC
0000
0000
0000
ENDCHAR

STARTCHAR 399
ENCODING 41911
SWIDTH 640 0
DWIDTH 16 0
BBX 16 16 0 -1
BITMAP
0000
0000
0000
0220
0220
0220
0220
0420
0420
0820
0820
1020
1020
201E
0000
0000
ENDCHAR

STARTCHAR 400
ENCODING 41912
SWIDTH 640 0
DWIDTH 16 0
BBX 16 16 0 -1
BITMAP
0000
0000
0000
0000
0000
0000
0000
0000
1FFC
0000
0000
0000
0000
0000
0000
0000
ENDCHAR

STARTCHAR 401
ENCODING 41913
SWIDTH 640 0
DWIDTH 16 0
BBX 16 16 0 -1
BITMAP
0000
0000
0000
1004
0808
0410
0220
0140
0080
0140
0220
0410
0808
1004
0000
0000
ENDCHAR

STARTCHAR 402
ENCODING 41914
SWIDTH 640 0
DWIDTH 16 0
BBX 16 16 0 -1
BITMAP
0000
0000
0000
1004
1004
1004
1004
1004
1004
1004
1004
1004
0FF8
0000
0000
0000
ENDCHAR

STARTCHAR 403
ENCODING 41915
SWIDTH 640 0
DWIDTH 16 0
BBX 16 16 0 -1
BITMAP
0000
0000
0000
0000
0180
0180
0000
0000
0000
0000
0000
0000
0000
0000
0000
0000
ENDCHAR

STARTCHAR 404
ENCODING 41916
SWIDTH 640 0
DWIDTH 16 0
BBX 16 16 0 -1
BITMAP
0000
0000
0000
0000
0000
0000
0000
0000
0000
0000
0000
0000
0000
0000
0000
0000
ENDCHAR

STARTCHAR 405
ENCODING 41917
SWIDTH 640 0
DWIDTH 16 0
BBX 16 16 0 -1
BITMAP
0000
0000
0000
0010
0020
0040
00C0
0180
0300
0600
0E00
1C00
0000
0000
0000
0000
ENDCHAR

STARTCHAR 406
ENCODING 41918
SWIDTH 640 0
DWIDTH 16 0
BBX 16 16 0 -1
BITMAP
0000
0000
0000
0000
0000
0004
0008
0010
0060
18C0
0D80
0700
0200
0000
0000
0000
ENDCHAR

STARTCHAR 407
ENCODING 41919
SWIDTH 640 0
DWIDTH 16 0
BBX 16 16 0 -1
BITMAP
0000
0000
0000
0000
0000
0000
0E00
0700
0380
00C0
0060
0010
0008
0000
0000
0000
ENDCHAR

STARTCHAR 408
ENCODING 42048
SWIDTH 640 0
DWIDTH 16 0
BBX 16 16 0 -1
BITMAP
0000
0000
0000
0000
0000
0000
0000
0002
7FFF
0000
0000
0000
0000
0000
0000
0000
ENDCHAR

STARTCHAR 409
ENCODING 42049
SWIDTH 640 0
DWIDTH 16 0
BBX 16 16 0 -1
BITMAP
0000
0000
0010
1FF8
0020
0040
0080
0100
0200
0400
0802
1002
2002
1FFF
0000
0000
ENDCHAR

STARTCHAR 410
ENCODING 42050
SWIDTH 640 0
DWIDTH 16 0
BBX 16 16 0 -1
BITMAP
0000
0004
7FFE
0100
0100
0100
0100
0100
0100
0100
0100
0100
0100
0F00
0200
0000
ENDCHAR

STARTCHAR 411
ENCODING 42051
SWIDTH 640 0
DWIDTH 16 0
BBX 16 16 0 -1
BITMAP
0000
0200
0200
0200
0200
0202
7FFF
0200
0200
0200
0200
0202
0202
01FE
0000
0000
ENDCHAR

STARTCHAR 412
ENCODING 42052
SWIDTH 640 0
DWIDTH 16 0
BBX 16 16 0 -1
BITMAP
0000
0010
3FF8
0410
0420
0442
047F
0402
0402
0802
0802
1002
2024
4018
0010
0000
ENDCHAR

STARTCHAR 413
ENCODING 42053
SWIDTH 640 0
DWIDTH 16 0
BBX 16 16 0 -1
BITMAP
0000
0400
0400
0420
7FF0
0420
0420
0420
0420
0420
0822
0822
1022
201F
4000
0000
ENDCHAR

STARTCHAR 414
ENCODING 42054
SWIDTH 640 0
DWIDTH 16 0
BBX 16 16 0 -1
BITMAP
0000
0002
3FFF
0008
0010
0020
00C0
0040
0040
0040
0040
0040
0240
0180
0100
0000
ENDCHAR

STARTCHAR 415
ENCODING 42055
SWIDTH 640 0
DWIDTH 16 0
BBX 16 16 0 -1
BITMAP
0000
0000
0000
0008
1FFC
0000
0000
0000
0000
0000
0000
0000
0002
7FFF
0000
0000
ENDCHAR

STARTCHAR 416
ENCODING 42056
SWIDTH 640 0
DWIDTH 16 0
BBX 16 16 0 -1
BITMAP
0000
0080
0080
0080
0080
0080
0080
0140
0140
0220
0220
0410
0808
1007
2002
0000
ENDCHAR

STARTCHAR 417
ENCODING 42057
SWIDTH 640 0
DWIDTH 16 0
BBX 16 16 0 -1
BITMAP
0000
0000
0840
0840
0840
0840
0840
0840
0840
0840
0842
1042
1042
203F
4000
0000
ENDCHAR

STARTCHAR 418
ENCODING 42058
SWIDTH 640 0
DWIDTH 16 0
BBX 16 16 0 -1
BITMAP
0000
0200
0100
0080
0080
0140
0140
0220
0220
0410
0410
0808
1008
2007
4002
0000
ENDCHAR

STARTCHAR 419
ENCODING 42059
SWIDTH 640 0
DWIDTH 16 0
BBX 16 16 0 -1
BITMAP
0000
0020
0230
0220
0220
0220
0220
0220
0410
0410
0410
0808
0804
1007
2002
0000
ENDCHAR

STARTCHAR 420
ENCODING 42060
SWIDTH 640 0
DWIDTH 16 0
BBX 16 16 0 -1
BITMAP
0000
0020
0FF0
0820
0820
0820
0820
0820
0820
0820
0822
1022
1022
201F
4000
0000
ENDCHAR

STARTCHAR 421
ENCODING 42061
SWIDTH 640 0
DWIDTH 16 0
BBX 16 16 0 -1
BITMAP
0000
0004
3FFE
0204
0204
0204
0204
0204
0204
0404
0404
0844
1024
2018
4010
0000
ENDCHAR

STARTCHAR 422
ENCODING 42062
SWIDTH 640 0
DWIDTH 16 0
BBX 16 16 0 -1
BITMAP
0000
0000
0004
3FFE
0004
0044
0084
0104
0204
0404
1804
6004
0048
0030
0020
0000
ENDCHAR

STARTCHAR 423
ENCODING 42063
SWIDTH 640 0
DWIDTH 16 0
BBX 16 16 0 -1
BITMAP
0000
0100
0100
0102
3FFF
0102
0102
0102
0102
0202
0202
0402
0812
300C
4008
0000
ENDCHAR

STARTCHAR 424
ENCODING 42064
SWIDTH 640 0
DWIDTH 16 0
BBX 16 16 0 -1
BITMAP
0000
0000
2008
2008
2010
2020
2040
2080
2300
2C00
2004
2004
2004
1FFE
0000
0000
ENDCHAR

STARTCHAR 425
ENCODING 42065
SWIDTH 640 0
DWIDTH 16 0
BBX 16 16 0 -1
BITMAP
0000
0080
0080
0080
0080
0082
7FFF
0080
0080
0080
0080
0080
0080
0080
0080
0000
ENDCHAR

STARTCHAR 426
ENCODING 42066
SWIDTH 640 0
DWIDTH 16 0
BBX 16 16 0 -1
BITMAP
0000
0100
0100
0100
0100
0140
0130
0118
0108
0100
0100
0100
0100
0100
0100
0000
ENDCHAR

STARTCHAR 427
ENCODING 42067
SWIDTH 640 0
DWIDTH 16 0
BBX 16 16 0 -1
BITMAP
0000
0008
3FFC
0008
0810
0410
0420
0220
0140
0080
0140
0220
0418
1807
6002
0000
ENDCHAR

STARTCHAR 428
ENCODING 42068
SWIDTH 640 0
DWIDTH 16 0
BBX 16 16 0 -1
BITMAP
0000
0000
0004
3FFE
0000
0000
0000
0008
1FFC
0000
0000
0000
0002
7FFF
0000
0000
ENDCHAR

STARTCHAR 429
ENCODING 42069
SWIDTH 640 0
DWIDTH 16 0
BBX 16 16 0 -1
BITMAP
0000
0002
7FFF
0100
0100
0140
0120
0118
0108
0100
0100
0100
0100
0100
0100
0000
ENDCHAR

STARTCHAR 430
ENCODING 42070
SWIDTH 640 0
DWIDTH 16 0
BBX 16 16 0 -1
BITMAP
0000
0020
0020
0022
3FFF
0020
0020
0420
0240
0140
0080
0140
0230
0C0F
7002
0000
ENDCHAR

STARTCHAR 431
ENCODING 42071
SWIDTH 640 0
DWIDTH 16 0
BBX 16 16 0 -1
BITMAP
0000
0080
0080
0080
0080
0088
00FC
0080
0080
0080
0080
0080
0082
7FFF
0000
0000
ENDCHAR

STARTCHAR 432
ENCODING 42072
SWIDTH 640 0
DWIDTH 16 0
BBX 16 16 0 -1
BITMAP
0000
2004
100C
0810
0620
0240
0080
0080
0080
0080
0080
0080
0080
0080
0080
0000
ENDCHAR

STARTCHAR 433
ENCODING 42073
SWIDTH 640 0
DWIDTH 16 0
BBX 16 16 0 -1
BITMAP
0000
0200
0200
0220
7FF0
0220
0A20
0620
0320
04A0
04A2
0822
0822
1012
200F
0000
ENDCHAR

STARTCHAR 434
ENCODING 42074
SWIDTH 640 0
DWIDTH 16 0
BBX 16 16 0 -1
BITMAP
0000
0020
0FF0
0820
0820
0A20
0920
09A0
08A0
0820
0822
1022
1022
201F
4000
0000
ENDCHAR

STARTCHAR 435
ENCODING 42075
SWIDTH 640 0
DWIDTH 16 0
BBX 16 16 0 -1
BITMAP
0000
0200
0210
03F8
0410
0810
1020
0020
0040
00A0
0110
0210
0408
1807
6002
0000
ENDCHAR

STARTCHAR 436
ENCODING 42076
SWIDTH 640 0
DWIDTH 16 0
BBX 16 16 0 -1
BITMAP
0000
0080
0080
0100
0200
0420
1840
2040
0080
0100
0208
0404
3FFE
1002
0002
0000
ENDCHAR

STARTCHAR 437
ENCODING 42077
SWIDTH 640 0
DWIDTH 16 0
BBX 16 16 0 -1
BITMAP
0000
0080
0088
089C
08E8
0988
0E88
7888
0888
08B8
0890
0882
0802
0802
07FF
0000
ENDCHAR

STARTCHAR 438
ENCODING 42078
SWIDTH 640 0
DWIDTH 16 0
BBX 16 16 0 -1
BITMAP
0000
0400
0404
0FFE
1000
2010
07F8
0020
0040
0080
0100
0202
0402
0802
07FF
0000
ENDCHAR

STARTCHAR 439
ENCODING 42079
SWIDTH 640 0
DWIDTH 16 0
BBX 16 16 0 -1
BITMAP
0000
0008
1FFC
0080
0080
0082
7FFF
0080
0080
0080
0080
0080
0080
0780
0100
0000
ENDCHAR

STARTCHAR 440
ENCODING 42080
SWIDTH 640 0
DWIDTH 16 0
BBX 16 16 0 -1
BITMAP
0000
0100
0080
0080
0002
7FFF
0800
0800
0800
0800
0800
0800
0804
07FE
0000
0000
ENDCHAR

STARTCHAR 441
ENCODING 42081
SWIDTH 640 0
DWIDTH 16 0
BBX 16 16 0 -1
BITMAP
0000
0002
7FFF
0220
0220
0220
0220
0220
0220
0220
0422
0422
0822
101F
2000
0000
ENDCHAR

STARTCHAR 442
ENCODING 42082
SWIDTH 640 0
DWIDTH 16 0
BBX 16 16 0 -1
BITMAP
0000
0000
0004
3FFE
0104
0104
0104
0904
1104
3204
0204
0404
0824
1018
2010
0000
ENDCHAR

STARTCHAR 443
ENCODING 42083
SWIDTH 640 0
DWIDTH 16 0
BBX 16 16 0 -1
BITMAP
0000
0800
0804
1FFE
1004
2004
4404
0204
0304
0104
0004
0004
0048
0030
0020
0000
ENDCHAR

STARTCHAR 444
ENCODING 42084
SWIDTH 640 0
DWIDTH 16 0
BBX 16 16 0 -1
BITMAP
0000
0010
0078
1F80
0080
0080
0082
7FFF
0080
0080
0080
0080
0080
0080
0080
0000
ENDCHAR

STARTCHAR 445
ENCODING 42085
SWIDTH 640 0
DWIDTH 16 0
BBX 16 16 0 -1
BITMAP
0000
0008
1FFC
0008
0908
0890
0490
0220
0140
0080
0140
0220
0418
1807
6002
0000
ENDCHAR

STARTCHAR 446
ENCODING 42086
SWIDTH 640 0
DWIDTH 16 0
BBX 16 16 0 -1
BITMAP
0000
0000
0004
3FFE
2004
2004
2004
2004
2004
2004
2004
2004
3FFC
2004
0000
0000
ENDCHAR

STARTCHAR 447
ENCODING 42087
SWIDTH 640 0
DWIDTH 16 0
BBX 16 16 0 -1
BITMAP
0000
0080
0080
0080
0080
0088
1FFC
0080
0080
0080
0080
0080
0082
7FFF
0000
0000
ENDCHAR

STARTCHAR 448
ENCODING 42088
SWIDTH 640 0
DWIDTH 16 0
BBX 16 16 0 -1
BITMAP
0000
0080
0080
0080
0080
0082
7FFF
0080
0080
0080
0080
0080
0088
1FFC
0000
0000
ENDCHAR

STARTCHAR 449
ENCODING 42089
SWIDTH 640 0
DWIDTH 16 0
BBX 16 16 0 -1
BITMAP
0000
0100
0104
03FE
0204
0404
0A08
1108
2190
0020
00C0
0100
0200
0C00
3000
0000
ENDCHAR

STARTCHAR 450
ENCODING 42090
SWIDTH 640 0
DWIDTH 16 0
BBX 16 16 0 -1
BITMAP
0000
0080
0080
0080
0082
7FFF
0080
0080
0140
0120
0220
0210
0408
0807
3002
0000
ENDCHAR

STARTCHAR 451
ENCODING 42091
SWIDTH 640 0
DWIDTH 16 0
BBX 16 16 0 -1
BITMAP
0000
0080
0080
0100
0102
7FFF
0210
0410
0810
0620
0140
00C0
0330
0C0C
3004
0000
ENDCHAR

STARTCHAR 452
ENCODING 42092
SWIDTH 640 0
DWIDTH 16 0
BBX 16 16 0 -1
BITMAP
0000
0010
1FF8
0020
0040
0180
0084
7FFE
0080
0080
0080
0080
0080
0380
0100
0000
ENDCHAR

STARTCHAR 453
ENCODING 42093
SWIDTH 640 0
DWIDTH 16 0
BBX 16 16 0 -1
BITMAP
0000
0010
1FF8
0020
0040
0186
0098
00E0
0380
0C80
3080
2080
0080
0380
0100
0000
ENDCHAR

STARTCHAR 454
ENCODING 42094
SWIDTH 640 0
DWIDTH 16 0
BBX 16 16 0 -1
BITMAP
0000
0010
1FF8
0020
0040
0980
0480
0280
0180
00C0
00A0
0098
0086
0380
0100
0000
ENDCHAR

STARTCHAR 455
ENCODING 42095
SWIDTH 640 0
DWIDTH 16 0
BBX 16 16 0 -1
BITMAP
0000
0020
0020
0020
0022
3FFF
0020
0420
0220
0220
0020
0020
0020
00E0
0040
0000
ENDCHAR

STARTCHAR 456
ENCODING 42096
SWIDTH 640 0
DWIDTH 16 0
BBX 16 16 0 -1
BITMAP
0000
0000
0080
0080
0080
0080
0888
0884
1082
2083
4081
0080
0280
0180
0100
0000
ENDCHAR

STARTCHAR 457
ENCODING 42097
SWIDTH 640 0
DWIDTH 16 0
BBX 16 16 0 -1
BITMAP
0000
0100
0100
0102
7FFF
0100
0140
0240
0240
0240
0440
0442
0842
1042
203F
0000
ENDCHAR

STARTCHAR 458
ENCODING 42098
SWIDTH 640 0
DWIDTH 16 0
BBX 16 16 0 -1
BITMAP
0000
0004
1FFE
1004
1004
1004
1FFC
1004
1000
1000
1000
1000
2000
2000
4000
0000
ENDCHAR

STARTCHAR 459
ENCODING 42099
SWIDTH 640 0
DWIDTH 16 0
BBX 16 16 0 -1
BITMAP
0000
0080
0080
0080
0080
0080
2082
2082
2082
2082
2082
2082
2082
3FFE
2002
0000
ENDCHAR

STARTCHAR 460
ENCODING 42100
SWIDTH 640 0
DWIDTH 16 0
BBX 16 16 0 -1
BITMAP
0000
0004
0804
0884
0884
0884
0884
0884
0884
0884
1084
1084
2004
4004
0004
0000
ENDCHAR

STARTCHAR 461
ENCODING 42101
SWIDTH 640 0
DWIDTH 16 0
BBX 16 16 0 -1
BITMAP
0000
0000
0004
3FFE
0080
0080
0080
0080
0080
0080
0080
0080
0082
7FFF
0000
0000
ENDCHAR

STARTCHAR 462
ENCODING 42102
SWIDTH 640 0
DWIDTH 16 0
BBX 16 16 0 -1
BITMAP
0000
0008
3FFC
0008
0008
0008
3FF8
2008
2000
2000
2002
2002
2002
1FFF
0000
0000
ENDCHAR

STARTCHAR 463
ENCODING 42103
SWIDTH 640 0
DWIDTH 16 0
BBX 16 16 0 -1
BITMAP
0000
0008
3FFC
0008
0008
2008
3FF8
2008
2000
2000
2002
2002
2002
1FFF
0000
0000
ENDCHAR

STARTCHAR 464
ENCODING 42104
SWIDTH 640 0
DWIDTH 16 0
BBX 16 16 0 -1
BITMAP
0000
0008
7FFC
2008
2008
2008
3FF8
2008
2000
2000
2002
2002
2002
1FFF
0000
0000
ENDCHAR

STARTCHAR 465
ENCODING 42105
SWIDTH 640 0
DWIDTH 16 0
BBX 16 16 0 -1
BITMAP
0000
0080
0080
0084
1FFE
1084
1084
1084
1084
1084
1094
108C
0088
0080
0080
0000
ENDCHAR

STARTCHAR 466
ENCODING 42106
SWIDTH 640 0
DWIDTH 16 0
BBX 16 16 0 -1
BITMAP
0000
0008
1FFC
0080
0080
0080
0082
7FFF
0080
0080
0080
0080
0080
0080
0080
0000
ENDCHAR

STARTCHAR 467
ENCODING 42107
SWIDTH 640 0
DWIDTH 16 0
BBX 16 16 0 -1
BITMAP
0000
0410
0410
0410
0410
0412
7FFF
0410
0410
0410
0810
0810
1010
2010
4010
0000
ENDCHAR

STARTCHAR 468
ENCODING 42108
SWIDTH 640 0
DWIDTH 16 0
BBX 16 16 0 -1
BITMAP
0000
0120
0110
0110
0102
7FFF
0100
0080
0080
0040
0040
0022
0014
000C
0006
0000
ENDCHAR

STARTCHAR 469
ENCODING 42109
SWIDTH 640 0
DWIDTH 16 0
BBX 16 16 0 -1
BITMAP
0000
0008
1FFC
0008
0008
0FF8
0800
0804
1FFE
0004
0004
0004
0008
00F0
0020
0000
ENDCHAR

STARTCHAR 470
ENCODING 42110
SWIDTH 640 0
DWIDTH 16 0
BBX 16 16 0 -1
BITMAP
0000
0040
0040
0042
3FFF
0040
00C0
0140
0240
0440
0840
3040
0040
01C0
0080
0000
ENDCHAR

STARTCHAR 471
ENCODING 42145
SWIDTH 640 0
DWIDTH 16 0
BBX 16 16 0 -1
BITMAP
0000
0000
0010
1FF8
0210
0210
0210
0210
1FF0
0410
0410
0410
0412
7FFF
0000
0000
ENDCHAR

STARTCHAR 472
ENCODING 42146
SWIDTH 640 0
DWIDTH 16 0
BBX 16 16 0 -1
BITMAP
0000
0004
7FFE
0100
1110
11F8
1100
1104
3FFE
0004
0004
0004
0048
0030
0020
0000
ENDCHAR

STARTCHAR 473
ENCODING 42147
SWIDTH 640 0
DWIDTH 16 0
BBX 16 16 0 -1
BITMAP
0000
0002
3FFF
0040
0040
0080
01A0
0290
0488
0884
1086
2082
0080
0080
0080
0000
ENDCHAR

STARTCHAR 474
ENCODING 42148
SWIDTH 640 0
DWIDTH 16 0
BBX 16 16 0 -1
BITMAP
0000
0080
0080
0082
3FFF
2082
2082
2082
3FFE
2082
0080
0080
0080
0080
0080
0000
ENDCHAR

STARTCHAR 475
ENCODING 42149
SWIDTH 640 0
DWIDTH 16 0
BBX 16 16 0 -1
BITMAP
0000
0080
0084
3FFE
0080
0088
1FFC
0080
0080
0082
7FFF
0080
0080
0080
0080
0000
ENDCHAR

STARTCHAR 476
ENCODING 42150
SWIDTH 640 0
DWIDTH 16 0
BBX 16 16 0 -1
BITMAP
0000
0010
0FF8
0410
0510
0490
0490
0412
7FFF
0410
0410
0810
0850
1030
2020
0000
ENDCHAR

STARTCHAR 477
ENCODING 42151
SWIDTH 640 0
DWIDTH 16 0
BBX 16 16 0 -1
BITMAP
0000
0100
0080
0088
1FFC
0010
0020
0040
0080
0900
0A00
1400
2200
01FF
0000
0000
ENDCHAR

STARTCHAR 478
ENCODING 42152
SWIDTH 640 0
DWIDTH 16 0
BBX 16 16 0 -1
BITMAP
0000
0008
1FFC
0208
020A
7FFF
0208
0208
1FF8
0208
0400
0400
0800
1000
2000
0000
ENDCHAR

STARTCHAR 479
ENCODING 42153
SWIDTH 640 0
DWIDTH 16 0
BBX 16 16 0 -1
BITMAP
0000
0010
1FF8
0020
0340
0082
7FFF
0082
0084
0080
0080
0080
0080
0780
0100
0000
ENDCHAR

STARTCHAR 480
ENCODING 42154
SWIDTH 640 0
DWIDTH 16 0
BBX 16 16 0 -1
BITMAP
0000
0010
0FF8
0000
0000
0002
7FFF
0100
0200
0210
0408
0804
3FFE
1001
0001
0000
ENDCHAR

STARTCHAR 481
ENCODING 42155
SWIDTH 640 0
DWIDTH 16 0
BBX 16 16 0 -1
BITMAP
0000
0420
0420
0424
3FFE
0420
0420
0422
7FFF
0420
0420
0820
0820
1020
2020
0000
ENDCHAR

STARTCHAR 482
ENCODING 42156
SWIDTH 640 0
DWIDTH 16 0
BBX 16 16 0 -1
BITMAP
0000
0004
3FFE
0200
0210
07F8
0410
0410
0810
0FF0
0820
0020
0042
7FFF
0000
0000
ENDCHAR

STARTCHAR 483
ENCODING 42157
SWIDTH 640 0
DWIDTH 16 0
BBX 16 16 0 -1
BITMAP
0000
0008
3FFC
0200
0200
0200
0210
3FF8
0210
0210
0210
0410
0412
7FFF
0000
0000
ENDCHAR

STARTCHAR 484
ENCODING 42158
SWIDTH 640 0
DWIDTH 16 0
BBX 16 16 0 -1
BITMAP
0000
0100
0084
7FFE
0000
0020
0FF0
0420
0420
0420
0420
0822
0822
1022
201F
0000
ENDCHAR

STARTCHAR 485
ENCODING 42159
SWIDTH 640 0
DWIDTH 16 0
BBX 16 16 0 -1
BITMAP
0000
0400
0400
0804
09FE
1000
2800
4800
0800
0800
0802
0BFF
0800
0800
0800
0000
ENDCHAR

STARTCHAR 486
ENCODING 42160
SWIDTH 640 0
DWIDTH 16 0
BBX 16 16 0 -1
BITMAP
0000
0420
0420
0820
0820
1022
2BFF
4820
0820
0820
0820
0820
0820
0820
0820
0000
ENDCHAR

STARTCHAR 487
ENCODING 42161
SWIDTH 640 0
DWIDTH 16 0
BBX 16 16 0 -1
BITMAP
0000
0400
0402
05FF
0810
0810
1010
2810
4810
0810
0810
0810
0850
0830
0820
0000
ENDCHAR

STARTCHAR 488
ENCODING 42162
SWIDTH 640 0
DWIDTH 16 0
BBX 16 16 0 -1
BITMAP
0000
0220
0220
0420
0420
0828
1026
2823
4821
0820
0820
0820
0820
0820
0820
0000
ENDCHAR

STARTCHAR 489
ENCODING 42163
SWIDTH 640 0
DWIDTH 16 0
BBX 16 16 0 -1
BITMAP
0000
0480
0480
0890
0BF8
1090
2890
4890
0890
0890
0892
0912
0912
0A0F
0800
0000
ENDCHAR

STARTCHAR 490
ENCODING 42164
SWIDTH 640 0
DWIDTH 16 0
BBX 16 16 0 -1
BITMAP
0000
0800
0804
13FE
1084
2088
5092
109F
1082
1082
1102
1102
1212
120C
1408
0000
ENDCHAR

STARTCHAR 491
ENCODING 42165
SWIDTH 640 0
DWIDTH 16 0
BBX 16 16 0 -1
BITMAP
0000
0080
0140
0220
0410
0908
10C7
6042
0000
0FF8
0008
0010
0020
0040
0080
0000
ENDCHAR

STARTCHAR 492
ENCODING 42166
SWIDTH 640 0
DWIDTH 16 0
BBX 16 16 0 -1
BITMAP
0000
0080
0140
0220
0410
0808
1227
6222
0220
0220
0420
0420
0420
0820
1020
0000
ENDCHAR

STARTCHAR 493
ENCODING 42167
SWIDTH 640 0
DWIDTH 16 0
BBX 16 16 0 -1
BITMAP
0000
0004
3FFE
1000
1040
1040
1040
1040
10A0
1090
1110
2108
2204
4403
0802
0000
ENDCHAR

STARTCHAR 494
ENCODING 42168
SWIDTH 640 0
DWIDTH 16 0
BBX 16 16 0 -1
BITMAP
0000
0010
1FF8
0000
0002
7FFF
0240
0240
0240
0240
0440
0442
0842
1042
203F
0000
ENDCHAR

STARTCHAR 495
ENCODING 42169
SWIDTH 640 0
DWIDTH 16 0
BBX 16 16 0 -1
BITMAP
0000
0100
0220
0410
0808
3FFC
0244
0244
0240
0440
0440
0842
0842
1042
603F
0000
ENDCHAR

STARTCHAR 496
ENCODING 42170
SWIDTH 640 0
DWIDTH 16 0
BBX 16 16 0 -1
BITMAP
0000
0100
0100
0104
7FFE
2104
2104
2104
2284
2244
2424
2824
2004
201C
2008
0000
ENDCHAR

STARTCHAR 497
ENCODING 42171
SWIDTH 640 0
DWIDTH 16 0
BBX 16 16 0 -1
BITMAP
0000
0200
0100
0180
0082
7FFF
0000
0000
0220
0610
0408
080C
0806
1006
2002
0000
ENDCHAR

STARTCHAR 498
ENCODING 42172
SWIDTH 640 0
DWIDTH 16 0
BBX 16 16 0 -1
BITMAP
0000
0220
0410
0410
0808
1008
27F7
4202
0410
0FF8
0010
0010
0020
01C0
0080
0000
ENDCHAR

STARTCHAR 499
ENCODING 42173
SWIDTH 640 0
DWIDTH 16 0
BBX 16 16 0 -1
BITMAP
0000
0060
0240
0220
0420
0410
0808
1087
6082
0100
0200
0420
0810
1FF8
0808
0000
ENDCHAR

STARTCHAR 500
ENCODING 42174
SWIDTH 640 0
DWIDTH 16 0
BBX 16 16 0 -1
BITMAP
0000
0004
3FFE
2004
4008
0040
07E0
0440
0440
0440
0440
0842
0842
1042
203F
0000
ENDCHAR

STARTCHAR 501
ENCODING 42175
SWIDTH 640 0
DWIDTH 16 0
BBX 16 16 0 -1
BITMAP
0000
0000
0010
4832
4422
4242
4182
4182
4242
4422
4832
5012
4002
7FFE
4002
0000
ENDCHAR

STARTCHAR 502
ENCODING 42176
SWIDTH 640 0
DWIDTH 16 0
BBX 16 16 0 -1
BITMAP
0000
0040
0240
0220
0410
0808
1004
2FF7
4212
0210
0210
0410
0490
0860
1040
0000
ENDCHAR

STARTCHAR 503
ENCODING 42177
SWIDTH 640 0
DWIDTH 16 0
BBX 16 16 0 -1
BITMAP
0000
1000
1002
10FF
1022
7E22
1022
1022
1222
1422
1842
3042
0082
011C
0208
0000
ENDCHAR

STARTCHAR 504
ENCODING 42178
SWIDTH 640 0
DWIDTH 16 0
BBX 16 16 0 -1
BITMAP
0000
0002
2082
1082
0892
0912
0512
0212
0512
0492
0882
0842
1042
200E
0004
0000
ENDCHAR

STARTCHAR 505
ENCODING 42179
SWIDTH 640 0
DWIDTH 16 0
BBX 16 16 0 -1
BITMAP
0000
0400
0402
07FF
0802
1302
2102
0082
0002
0042
0182
0E02
0412
000C
0008
0000
ENDCHAR

STARTCHAR 506
ENCODING 42180
SWIDTH 640 0
DWIDTH 16 0
BBX 16 16 0 -1
BITMAP
0000
0400
0402
0FFF
0802
1102
2202
4202
0442
0822
1FE2
0822
0002
001C
0008
0000
ENDCHAR

STARTCHAR 507
ENCODING 42181
SWIDTH 640 0
DWIDTH 16 0
BBX 16 16 0 -1
BITMAP
0000
0800
0800
0802
0FFF
1222
2222
4222
0422
0442
0842
1082
2102
021C
0408
0000
ENDCHAR

STARTCHAR 508
ENCODING 42182
SWIDTH 640 0
DWIDTH 16 0
BBX 16 16 0 -1
BITMAP
0000
0440
0440
0844
084C
1050
2860
48C0
0940
0A40
0842
0842
0842
083F
0800
0000
ENDCHAR

STARTCHAR 509
ENCODING 42183
SWIDTH 640 0
DWIDTH 16 0
BBX 16 16 0 -1
BITMAP
0000
0004
7FFE
2220
2220
2220
2220
2220
2222
2222
241E
2800
2002
7FFF
2000
0000
ENDCHAR

STARTCHAR 510
ENCODING 42184
SWIDTH 640 0
DWIDTH 16 0
BBX 16 16 0 -1
BITMAP
0000
0400
0408
07FC
0880
1080
2080
0082
7FFF
0080
0080
0080
0080
0080
0080
0000
ENDCHAR

STARTCHAR 511
ENCODING 42185
SWIDTH 640 0
DWIDTH 16 0
BBX 16 16 0 -1
BITMAP
0000
0090
0390
3E10
0210
0210
0212
7FFF
0210
0210
0410
0410
0810
1010
2010
0000
ENDCHAR

STARTCHAR 512
ENCODING 42186
SWIDTH 640 0
DWIDTH 16 0
BBX 16 16 0 -1
BITMAP
0000
0808
0888
0888
0888
0888
088A
7FFF
0888
0888
0888
1088
1088
2008
4008
0000
ENDCHAR

STARTCHAR 513
ENCODING 42187
SWIDTH 640 0
DWIDTH 16 0
BBX 16 16 0 -1
BITMAP
0000
0100
0080
0080
0002
7FFF
0080
0080
00A0
0090
0088
0088
0080
0080
0080
0000
ENDCHAR

STARTCHAR 514
ENCODING 42188
SWIDTH 640 0
DWIDTH 16 0
BBX 16 16 0 -1
BITMAP
0000
0004
1FFE
1000
1010
13F8
1210
1210
1250
1230
1220
1202
2202
2202
41FF
0000
ENDCHAR

STARTCHAR 515
ENCODING 42189
SWIDTH 640 0
DWIDTH 16 0
BBX 16 16 0 -1
BITMAP
0000
0200
0202
7FFF
0200
0208
05FC
0408
0910
10A0
2040
40A0
0318
0C07
3002
0000
ENDCHAR

STARTCHAR 516
ENCODING 42190
SWIDTH 640 0
DWIDTH 16 0
BBX 16 16 0 -1
BITMAP
0000
0010
3FF8
0410
0420
0420
047C
0A04
0908
0888
1050
1060
2098
4307
0C02
0000
ENDCHAR

STARTCHAR 517
ENCODING 42191
SWIDTH 640 0
DWIDTH 16 0
BBX 16 16 0 -1
BITMAP
0000
0008
00FC
3F00
1000
1008
1FFC
1008
1210
1120
10C0
20C0
2130
460F
0804
0000
ENDCHAR

STARTCHAR 518
ENCODING 42192
SWIDTH 640 0
DWIDTH 16 0
BBX 16 16 0 -1
BITMAP
0000
0008
003C
1FC0
0080
0080
0080
0082
7FFF
0080
0080
0080
0088
1FFC
0000
0000
ENDCHAR

STARTCHAR 519
ENCODING 42193
SWIDTH 640 0
DWIDTH 16 0
BBX 16 16 0 -1
BITMAP
0000
0004
1FFE
0080
0080
0082
7FFF
0080
0140
0220
0220
0410
0808
1007
6002
0000
ENDCHAR

STARTCHAR 520
ENCODING 42194
SWIDTH 640 0
DWIDTH 16 0
BBX 16 16 0 -1
BITMAP
0000
0080
0088
1FFC
0080
0082
7FFF
0080
0140
0140
0220
0210
0408
0807
3002
0000
ENDCHAR

STARTCHAR 521
ENCODING 42195
SWIDTH 640 0
DWIDTH 16 0
BBX 16 16 0 -1
BITMAP
0000
0080
0080
0080
0082
7FFF
0080
0080
0140
0140
0220
0310
0488
1887
6004
0000
ENDCHAR

STARTCHAR 522
ENCODING 42196
SWIDTH 640 0
DWIDTH 16 0
BBX 16 16 0 -1
BITMAP
0000
0008
00FC
1F80
0080
0080
0082
7FFF
0080
0140
0120
0210
0408
1807
6002
0000
ENDCHAR

STARTCHAR 523
ENCODING 42197
SWIDTH 640 0
DWIDTH 16 0
BBX 16 16 0 -1
BITMAP
0000
0120
3FA0
0120
0220
0C20
0420
05A0
0E20
7420
0422
0422
0422
1C22
081F
0000
ENDCHAR

STARTCHAR 524
ENCODING 42198
SWIDTH 640 0
DWIDTH 16 0
BBX 16 16 0 -1
BITMAP
0000
0080
0080
0080
0888
0884
0882
1082
2192
0090
0020
0040
0080
0300
3C00
0000
ENDCHAR

STARTCHAR 525
ENCODING 42199
SWIDTH 640 0
DWIDTH 16 0
BBX 16 16 0 -1
BITMAP
0000
0090
0088
0088
0082
7FFF
0100
0140
0240
0240
0440
0442
0842
1042
203F
0000
ENDCHAR

STARTCHAR 526
ENCODING 42200
SWIDTH 640 0
DWIDTH 16 0
BBX 16 16 0 -1
BITMAP
0000
0008
0FFC
0808
0808
0FF8
0808
0A00
0900
0880
0840
1020
1018
2007
4002
0000
ENDCHAR

STARTCHAR 527
ENCODING 42201
SWIDTH 640 0
DWIDTH 16 0
BBX 16 16 0 -1
BITMAP
0000
0100
0100
0104
7FFE
0100
2108
2108
2108
3FF8
2108
0100
0102
0102
00FF
0000
ENDCHAR

STARTCHAR 528
ENCODING 42202
SWIDTH 640 0
DWIDTH 16 0
BBX 16 16 0 -1
BITMAP
0000
0004
3FFE
1084
1084
1084
1FFC
1004
1000
1000
1000
1002
1002
0FFF
0000
0000
ENDCHAR

STARTCHAR 529
ENCODING 42203
SWIDTH 640 0
DWIDTH 16 0
BBX 16 16 0 -1
BITMAP
0000
0400
0802
087F
1002
1102
6202
1202
0C02
0802
1202
2102
7F92
208C
0088
0000
ENDCHAR

STARTCHAR 530
ENCODING 42204
SWIDTH 640 0
DWIDTH 16 0
BBX 16 16 0 -1
BITMAP
0000
0000
0410
0410
0412
7FFF
0410
0410
0410
0410
0410
0410
0410
07F0
0410
0000
ENDCHAR

STARTCHAR 531
ENCODING 42205
SWIDTH 640 0
DWIDTH 16 0
BBX 16 16 0 -1
BITMAP
0000
0008
3FFC
0108
0108
1FF8
1108
1102
3FFF
2102
0102
0112
010C
0108
0100
0000
ENDCHAR

STARTCHAR 532
ENCODING 42206
SWIDTH 640 0
DWIDTH 16 0
BBX 16 16 0 -1
BITMAP
0000
0084
3FC4
0084
0084
1F84
1004
1084
3FC4
0084
0084
0084
0884
0704
0204
0000
ENDCHAR

STARTCHAR 533
ENCODING 42207
SWIDTH 640 0
DWIDTH 16 0
BBX 16 16 0 -1
BITMAP
0000
0080
0040
0060
0040
0200
0204
1202
1203
1201
2201
4208
0208
01F8
0000
0000
ENDCHAR

STARTCHAR 534
ENCODING 42208
SWIDTH 640 0
DWIDTH 16 0
BBX 16 16 0 -1
BITMAP
0000
0220
0210
0210
0202
7FFF
0200
0208
0110
0120
00C0
0140
0622
381A
0007
0000
ENDCHAR

STARTCHAR 535
ENCODING 42209
SWIDTH 640 0
DWIDTH 16 0
BBX 16 16 0 -1
BITMAP
0000
0018
00E0
3F00
1004
1FFE
1004
1004
1FFC
1004
1000
1000
2000
2000
4000
0000
ENDCHAR

STARTCHAR 536
ENCODING 42210
SWIDTH 640 0
DWIDTH 16 0
BBX 16 16 0 -1
BITMAP
0000
0008
007C
3F80
0080
0088
1FFC
0080
0082
7FFF
0080
0080
0080
0380
0100
0000
ENDCHAR

STARTCHAR 537
ENCODING 42211
SWIDTH 640 0
DWIDTH 16 0
BBX 16 16 0 -1
BITMAP
0000
0420
0420
0420
7FA0
0420
0520
0620
1C20
6420
0422
0422
0422
1C1F
0800
0000
ENDCHAR

STARTCHAR 538
ENCODING 42212
SWIDTH 640 0
DWIDTH 16 0
BBX 16 16 0 -1
BITMAP
0000
0080
0084
3FFE
0080
0088
0FF8
0010
0220
0140
0080
0140
0630
180F
6002
0000
ENDCHAR

STARTCHAR 539
ENCODING 42213
SWIDTH 640 0
DWIDTH 16 0
BBX 16 16 0 -1
BITMAP
0000
0100
0080
0082
7FFF
0010
0410
0210
0220
0140
0080
0140
0230
0C0F
3004
0000
ENDCHAR

STARTCHAR 540
ENCODING 42214
SWIDTH 640 0
DWIDTH 16 0
BBX 16 16 0 -1
BITMAP
0000
0420
0320
0120
0820
0620
0220
0022
003F
7FE0
0020
0020
0020
0020
0020
0000
ENDCHAR

STARTCHAR 541
ENCODING 42215
SWIDTH 640 0
DWIDTH 16 0
BBX 16 16 0 -1
BITMAP
0000
0008
001C
0FE0
0800
0802
0FFF
0820
0820
0820
0820
1020
1020
2020
0020
0000
ENDCHAR

STARTCHAR 542
ENCODING 42216
SWIDTH 640 0
DWIDTH 16 0
BBX 16 16 0 -1
BITMAP
0000
0200
0180
0080
0002
7FFF
0200
0208
03FC
0208
0408
0408
0848
1030
2020
0000
ENDCHAR

STARTCHAR 543
ENCODING 42217
SWIDTH 640 0
DWIDTH 16 0
BBX 16 16 0 -1
BITMAP
0000
0000
0008
1FFC
1008
1008
1008
1008
1FF8
1008
1008
1008
1008
1FF8
1008
0000
ENDCHAR

STARTCHAR 544
ENCODING 42218
SWIDTH 640 0
DWIDTH 16 0
BBX 16 16 0 -1
BITMAP
0000
0000
0000
0002
3FFF
2002
2002
2002
3FFE
2002
2002
2002
3FFE
2002
0000
0000
ENDCHAR

STARTCHAR 545
ENCODING 42219
SWIDTH 640 0
DWIDTH 16 0
BBX 16 16 0 -1
BITMAP
0000
0008
0FFC
0408
0408
07F8
0408
0408
07F8
0408
0408
0808
0828
1018
2010
0000
ENDCHAR

STARTCHAR 546
ENCODING 42220
SWIDTH 640 0
DWIDTH 16 0
BBX 16 16 0 -1
BITMAP
0000
0080
0080
0082
7FFF
0080
01C0
01A0
0290
0488
0884
1087
6082
0080
0080
0000
ENDCHAR

STARTCHAR 547
ENCODING 42221
SWIDTH 640 0
DWIDTH 16 0
BBX 16 16 0 -1
BITMAP
0000
0400
0404
0FFE
0804
1088
2090
4080
0140
0140
0220
0410
0808
1007
6002
0000
ENDCHAR

STARTCHAR 548
ENCODING 42222
SWIDTH 640 0
DWIDTH 16 0
BBX 16 16 0 -1
BITMAP
0000
0080
0080
0080
0080
0880
0888
08FC
0880
0880
0880
0880
0882
7FFF
0000
0000
ENDCHAR

STARTCHAR 549
ENCODING 42223
SWIDTH 640 0
DWIDTH 16 0
BBX 16 16 0 -1
BITMAP
0000
0002
7FFF
0200
0208
07FC
0C08
0A10
1190
20A0
4040
0080
0300
0C00
3000
0000
ENDCHAR

STARTCHAR 550
ENCODING 42224
SWIDTH 640 0
DWIDTH 16 0
BBX 16 16 0 -1
BITMAP
0000
0010
1FF8
1110
1110
1110
1112
7FFF
1110
1210
2210
3FFC
0410
0870
1020
0000
ENDCHAR

STARTCHAR 551
ENCODING 42225
SWIDTH 640 0
DWIDTH 16 0
BBX 16 16 0 -1
BITMAP
0000
0040
1040
1040
1040
1044
124C
1F50
1060
1040
1040
1042
1342
1C42
703F
0000
ENDCHAR

STARTCHAR 552
ENCODING 42226
SWIDTH 640 0
DWIDTH 16 0
BBX 16 16 0 -1
BITMAP
0000
007C
1F80
0100
0110
01F8
1F00
0104
01FE
7F00
0100
0100
0102
0102
00FF
0000
ENDCHAR

STARTCHAR 553
ENCODING 42227
SWIDTH 640 0
DWIDTH 16 0
BBX 16 16 0 -1
BITMAP
0000
0010
0078
3F80
1080
1080
1084
1FFE
1040
1020
1020
1212
140A
1806
3003
0000
ENDCHAR

STARTCHAR 554
ENCODING 42228
SWIDTH 640 0
DWIDTH 16 0
BBX 16 16 0 -1
BITMAP
0000
0080
0080
0084
008C
3E90
02E0
02C0
04B0
0888
1087
2082
4080
0280
0100
0000
ENDCHAR

STARTCHAR 555
ENCODING 42229
SWIDTH 640 0
DWIDTH 16 0
BBX 16 16 0 -1
BITMAP
0000
0080
0080
0084
0886
0884
0888
1090
0080
0140
0220
0410
0808
1007
2002
0000
ENDCHAR

STARTCHAR 556
ENCODING 42230
SWIDTH 640 0
DWIDTH 16 0
BBX 16 16 0 -1
BITMAP
0000
0008
007C
1F80
0890
0890
0890
0890
0890
0888
1088
1084
2087
4082
0080
0000
ENDCHAR

STARTCHAR 557
ENCODING 42231
SWIDTH 640 0
DWIDTH 16 0
BBX 16 16 0 -1
BITMAP
0000
0410
040C
0802
1012
2410
0220
0220
0140
0080
0140
0220
0418
1807
6002
0000
ENDCHAR

STARTCHAR 558
ENCODING 42232
SWIDTH 640 0
DWIDTH 16 0
BBX 16 16 0 -1
BITMAP
0000
0818
0620
0140
0080
0160
0618
3814
0020
0220
01C0
0140
0630
180F
6002
0000
ENDCHAR

STARTCHAR 559
ENCODING 42233
SWIDTH 640 0
DWIDTH 16 0
BBX 16 16 0 -1
BITMAP
0000
0020
0820
0820
0824
0FFE
0800
0802
0FFF
0820
0820
1020
1020
2020
4020
0000
ENDCHAR

STARTCHAR 560
ENCODING 42234
SWIDTH 640 0
DWIDTH 16 0
BBX 16 16 0 -1
BITMAP
0000
0004
1FFE
0020
0420
0420
0822
3FFF
0120
0220
0420
1820
6020
00E0
0040
0000
ENDCHAR

STARTCHAR 561
ENCODING 42235
SWIDTH 640 0
DWIDTH 16 0
BBX 16 16 0 -1
BITMAP
0000
0080
0880
0888
0FFC
1080
2080
0082
7FFF
0080
0080
0080
0080
0080
0080
0000
ENDCHAR

STARTCHAR 562
ENCODING 42236
SWIDTH 640 0
DWIDTH 16 0
BBX 16 16 0 -1
BITMAP
0000
00A0
0098
0088
0082
7FFF
0080
0080
0140
0140
0220
0210
0408
0807
3002
0000
ENDCHAR

STARTCHAR 563
ENCODING 42237
SWIDTH 640 0
DWIDTH 16 0
BBX 16 16 0 -1
BITMAP
0000
0000
0004
3FFE
0080
0080
0080
0088
1FFC
0080
0080
0080
0082
7FFF
0000
0000
ENDCHAR

STARTCHAR 564
ENCODING 42238
SWIDTH 640 0
DWIDTH 16 0
BBX 16 16 0 -1
BITMAP
0000
0002
7FFF
0080
0080
0082
3FFF
2082
20C2
2122
2212
2412
2002
200E
2004
0000
ENDCHAR

STARTCHAR 565
ENCODING 42304
SWIDTH 640 0
DWIDTH 16 0
BBX 16 16 0 -1
BITMAP
0000
0110
1110
1110
1112
7FFF
1110
1110
1110
11F0
1110
1000
1004
0FFE
0000
0000
ENDCHAR

STARTCHAR 566
ENCODING 42305
SWIDTH 640 0
DWIDTH 16 0
BBX 16 16 0 -1
BITMAP
0000
0004
3FFE
0040
0080
0100
0290
0488
0884
1086
2082
0080
0082
7FFF
0000
0000
ENDCHAR

STARTCHAR 567
ENCODING 42306
SWIDTH 640 0
DWIDTH 16 0
BBX 16 16 0 -1
BITMAP
0000
0010
0FF8
0810
0810
0810
0FF0
0810
0810
0FF0
0810
0810
0812
7FFF
0000
0000
ENDCHAR

STARTCHAR 568
ENCODING 42307
SWIDTH 640 0
DWIDTH 16 0
BBX 16 16 0 -1
BITMAP
0000
0010
0038
00C0
1F00
0800
0808
0FFC
0820
0820
0820
0820
0822
7FFF
0000
0000
ENDCHAR

STARTCHAR 569
ENCODING 42308
SWIDTH 640 0
DWIDTH 16 0
BBX 16 16 0 -1
BITMAP
0000
0100
0080
0084
3FFE
0080
0080
0088
1FFC
0080
0080
0080
0082
7FFF
0000
0000
ENDCHAR

STARTCHAR 570
ENCODING 42309
SWIDTH 640 0
DWIDTH 16 0
BBX 16 16 0 -1
BITMAP
0000
0400
0402
07FF
0900
1100
2108
41FC
0100
0104
01FE
0100
0100
0100
0100
0000
ENDCHAR

STARTCHAR 571
ENCODING 42310
SWIDTH 640 0
DWIDTH 16 0
BBX 16 16 0 -1
BITMAP
0000
007C
1F80
0100
0080
0084
1FFE
0008
0010
0020
00C0
0B00
0C00
1200
21FF
0000
ENDCHAR

STARTCHAR 572
ENCODING 42311
SWIDTH 640 0
DWIDTH 16 0
BBX 16 16 0 -1
BITMAP
0000
003C
1FC0
0080
0888
0698
02A0
0082
7FFF
0080
0080
0080
0080
0380
0100
0000
ENDCHAR

STARTCHAR 573
ENCODING 42312
SWIDTH 640 0
DWIDTH 16 0
BBX 16 16 0 -1
BITMAP
0000
0208
1108
1188
1088
1008
1008
1008
1108
1208
1410
1818
3024
60C6
4303
0000
ENDCHAR

STARTCHAR 574
ENCODING 42313
SWIDTH 640 0
DWIDTH 16 0
BBX 16 16 0 -1
BITMAP
0000
0408
0408
0808
080A
13FF
2808
4808
0908
0888
0888
0808
0808
0878
0810
0000
ENDCHAR

STARTCHAR 575
ENCODING 42314
SWIDTH 640 0
DWIDTH 16 0
BBX 16 16 0 -1
BITMAP
0000
0404
05FE
0808
0810
1860
2822
4BFF
0810
0810
0810
0810
0810
08F0
0820
0000
ENDCHAR

STARTCHAR 576
ENCODING 42315
SWIDTH 640 0
DWIDTH 16 0
BBX 16 16 0 -1
BITMAP
0000
0420
0420
0820
0822
17FF
2820
4820
0820
0820
0820
0824
0BFE
0800
0800
0000
ENDCHAR

STARTCHAR 577
ENCODING 42316
SWIDTH 640 0
DWIDTH 16 0
BBX 16 16 0 -1
BITMAP
0000
0420
0420
0820
0924
113E
29E4
4F24
0924
0928
0920
0922
0902
08FF
0800
0000
ENDCHAR

STARTCHAR 578
ENCODING 42317
SWIDTH 640 0
DWIDTH 16 0
BBX 16 16 0 -1
BITMAP
0000
0410
0410
0812
0BFF
1010
2890
4890
0850
0850
0820
0850
0888
0907
0A02
0000
ENDCHAR

STARTCHAR 579
ENCODING 42318
SWIDTH 640 0
DWIDTH 16 0
BBX 16 16 0 -1
BITMAP
0000
0440
0450
0448
0848
0842
107F
2BC0
4820
0820
0810
0812
080A
0806
0803
0000
ENDCHAR

STARTCHAR 580
ENCODING 42319
SWIDTH 640 0
DWIDTH 16 0
BBX 16 16 0 -1
BITMAP
0000
0080
0140
0220
0510
0888
1087
6012
07F8
0010
0020
0240
0180
0080
0080
0000
ENDCHAR

STARTCHAR 581
ENCODING 42320
SWIDTH 640 0
DWIDTH 16 0
BBX 16 16 0 -1
BITMAP
0000
0820
0820
1020
1020
2222
5222
1222
1222
1222
1222
1222
13FE
1202
1000
0000
ENDCHAR

STARTCHAR 582
ENCODING 42321
SWIDTH 640 0
DWIDTH 16 0
BBX 16 16 0 -1
BITMAP
0000
0400
0402
05FF
0822
1822
2922
48A2
08A2
0842
0842
0882
0902
0A1C
0C08
0000
ENDCHAR

STARTCHAR 583
ENCODING 42322
SWIDTH 640 0
DWIDTH 16 0
BBX 16 16 0 -1
BITMAP
0000
0200
0104
7FFE
0200
0420
0810
3FF8
0448
0440
0440
0842
1042
2042
403F
0000
ENDCHAR

STARTCHAR 584
ENCODING 42323
SWIDTH 640 0
DWIDTH 16 0
BBX 16 16 0 -1
BITMAP
0000
0008
1FFC
1008
1008
1008
1FF8
1248
0240
0240
0440
0442
0842
1042
203F
0000
ENDCHAR

STARTCHAR 585
ENCODING 42324
SWIDTH 640 0
DWIDTH 16 0
BBX 16 16 0 -1
BITMAP
0000
0080
0088
0FFC
0888
0888
0FF8
0888
088A
7FFF
0808
0808
0808
0838
0810
0000
ENDCHAR

STARTCHAR 586
ENCODING 42325
SWIDTH 640 0
DWIDTH 16 0
BBX 16 16 0 -1
BITMAP
0000
0208
1F7C
1248
1248
1248
124A
7FFF
1248
1248
1248
1248
2288
24B8
4110
0000
ENDCHAR

STARTCHAR 587
ENCODING 42326
SWIDTH 640 0
DWIDTH 16 0
BBX 16 16 0 -1
BITMAP
0000
0210
03F8
0410
0A20
1140
0080
0360
0418
1907
60C2
0060
0300
00C0
0060
0000
ENDCHAR

STARTCHAR 588
ENCODING 42327
SWIDTH 640 0
DWIDTH 16 0
BBX 16 16 0 -1
BITMAP
0000
0000
0002
3E3F
2222
2222
2222
2222
2222
23E2
2002
2002
2002
3FFE
2002
0000
ENDCHAR

STARTCHAR 589
ENCODING 42328
SWIDTH 640 0
DWIDTH 16 0
BBX 16 16 0 -1
BITMAP
0000
0080
0080
1084
1084
1084
1FFC
1084
0080
0080
2082
2082
2082
3FFE
2002
0000
ENDCHAR

STARTCHAR 590
ENCODING 42329
SWIDTH 640 0
DWIDTH 16 0
BBX 16 16 0 -1
BITMAP
0000
0020
07F0
0420
0420
0420
0424
7C3E
4004
4004
4004
4004
4004
7FFC
4004
0000
ENDCHAR

STARTCHAR 591
ENCODING 42330
SWIDTH 640 0
DWIDTH 16 0
BBX 16 16 0 -1
BITMAP
0000
0101
3F81
0401
0411
0411
0491
7FD1
0411
0411
0411
0801
0801
1007
2002
0000
ENDCHAR

STARTCHAR 592
ENCODING 42331
SWIDTH 640 0
DWIDTH 16 0
BBX 16 16 0 -1
BITMAP
0000
0800
0800
0800
0902
7FBF
0922
0922
0922
0922
1122
1122
113E
2722
4200
0000
ENDCHAR

STARTCHAR 593
ENCODING 42332
SWIDTH 640 0
DWIDTH 16 0
BBX 16 16 0 -1
BITMAP
0000
0040
0440
7E40
0842
0BFF
0842
0842
0842
0E82
7882
2082
0112
020C
0408
0000
ENDCHAR

STARTCHAR 594
ENCODING 42333
SWIDTH 640 0
DWIDTH 16 0
BBX 16 16 0 -1
BITMAP
0000
0400
0404
0FFE
0804
1044
2FE4
4844
0844
0FC4
085C
0808
0801
0801
07FF
0000
ENDCHAR

STARTCHAR 595
ENCODING 42334
SWIDTH 640 0
DWIDTH 16 0
BBX 16 16 0 -1
BITMAP
0000
0400
0402
0FFF
0922
1122
2522
4322
02A2
0462
08B2
1112
2202
041C
0008
0000
ENDCHAR

STARTCHAR 596
ENCODING 42335
SWIDTH 640 0
DWIDTH 16 0
BBX 16 16 0 -1
BITMAP
0000
0440
0440
0440
044C
0458
7C60
0440
0440
0440
0440
0442
0642
1842
603F
0000
ENDCHAR

STARTCHAR 597
ENCODING 42336
SWIDTH 640 0
DWIDTH 16 0
BBX 16 16 0 -1
BITMAP
0000
0004
7FFE
2040
2044
2FFE
2444
2444
2444
245C
2448
2040
2042
3FFF
2000
0000
ENDCHAR

STARTCHAR 598
ENCODING 42337
SWIDTH 640 0
DWIDTH 16 0
BBX 16 16 0 -1
BITMAP
0000
0408
041C
05E0
0820
1020
2822
4BFF
0820
0820
0820
0820
0820
0820
0820
0000
ENDCHAR

STARTCHAR 599
ENCODING 42338
SWIDTH 640 0
DWIDTH 16 0
BBX 16 16 0 -1
BITMAP
0000
088C
0488
0490
0080
1FFC
0080
0080
0082
7FFF
0080
0080
0080
0080
0080
0000
ENDCHAR

STARTCHAR 600
ENCODING 42339
SWIDTH 640 0
DWIDTH 16 0
BBX 16 16 0 -1
BITMAP
0000
0080
0084
3FFE
0080
0490
0490
0412
7FFF
0410
0410
0810
0810
1010
2010
0000
ENDCHAR

STARTCHAR 601
ENCODING 42340
SWIDTH 640 0
DWIDTH 16 0
BBX 16 16 0 -1
BITMAP
0000
0100
0110
01F8
0100
0102
7FFF
0100
0100
0140
0130
0118
0108
0100
0100
0000
ENDCHAR

STARTCHAR 602
ENCODING 42341
SWIDTH 640 0
DWIDTH 16 0
BBX 16 16 0 -1
BITMAP
0000
0000
0100
0100
0108
01FC
0100
0100
0104
3FFE
2004
2004
2004
3FFC
2004
0000
ENDCHAR

STARTCHAR 603
ENCODING 42342
SWIDTH 640 0
DWIDTH 16 0
BBX 16 16 0 -1
BITMAP
0000
0200
0702
387F
1122
1122
1122
1122
1722
392A
0124
0220
0C20
3020
0020
0000
ENDCHAR

STARTCHAR 604
ENCODING 42343
SWIDTH 640 0
DWIDTH 16 0
BBX 16 16 0 -1
BITMAP
0000
00FC
1F00
1002
1FFF
1000
1008
13FC
1208
1208
1238
2210
2202
4202
01FF
0000
ENDCHAR

STARTCHAR 605
ENCODING 42344
SWIDTH 640 0
DWIDTH 16 0
BBX 16 16 0 -1
BITMAP
0000
0080
0084
3FFE
0080
0080
0082
7FFF
0100
0100
0210
0408
0804
3FFE
0002
0000
ENDCHAR

STARTCHAR 606
ENCODING 42345
SWIDTH 640 0
DWIDTH 16 0
BBX 16 16 0 -1
BITMAP
0000
0002
7FFF
0008
0088
1FC8
1088
1088
1088
1F88
1088
0008
0008
0070
0020
0000
ENDCHAR

STARTCHAR 607
ENCODING 42346
SWIDTH 640 0
DWIDTH 16 0
BBX 16 16 0 -1
BITMAP
0000
0080
0080
0082
7FFF
0080
0080
0088
0FFC
0808
0808
0808
0808
0FF8
0808
0000
ENDCHAR

STARTCHAR 608
ENCODING 42347
SWIDTH 640 0
DWIDTH 16 0
BBX 16 16 0 -1
BITMAP
0000
0100
0102
7FFF
0200
0200
0400
0404
0FFE
1404
2404
4404
0404
07FC
0404
0000
ENDCHAR

STARTCHAR 609
ENCODING 42348
SWIDTH 640 0
DWIDTH 16 0
BBX 16 16 0 -1
BITMAP
0000
0004
1FFE
0204
0204
0404
0448
0830
1024
27FE
4404
0404
0404
07FC
0404
0000
ENDCHAR

STARTCHAR 610
ENCODING 42349
SWIDTH 640 0
DWIDTH 16 0
BBX 16 16 0 -1
BITMAP
0000
0000
0002
04FF
7E10
4410
4410
4410
4410
4410
7C10
4410
0010
0070
0020
0000
ENDCHAR

STARTCHAR 611
ENCODING 42350
SWIDTH 640 0
DWIDTH 16 0
BBX 16 16 0 -1
BITMAP
0000
0002
04FF
7E42
4442
4442
4442
4442
4442
7C52
444C
0048
0040
0040
0040
0000
ENDCHAR

STARTCHAR 612
ENCODING 42351
SWIDTH 640 0
DWIDTH 16 0
BBX 16 16 0 -1
BITMAP
0000
0002
00FF
0422
7E22
4422
4422
4422
4442
7C42
4482
0082
0112
020C
0408
0000
ENDCHAR

STARTCHAR 613
ENCODING 42352
SWIDTH 640 0
DWIDTH 16 0
BBX 16 16 0 -1
BITMAP
0000
0000
0002
08FF
7C02
480A
4812
4822
4842
4982
7902
4802
0012
000C
0008
0000
ENDCHAR

STARTCHAR 614
ENCODING 42353
SWIDTH 640 0
DWIDTH 16 0
BBX 16 16 0 -1
BITMAP
0000
0004
7FFE
0004
0044
7FE4
0004
0084
3FC4
2084
2084
3F84
2084
001C
0008
0000
ENDCHAR

STARTCHAR 615
ENCODING 42354
SWIDTH 640 0
DWIDTH 16 0
BBX 16 16 0 -1
BITMAP
0000
0004
3FFE
2000
2010
23F8
2210
2210
2210
23F0
2210
2000
2002
3FFF
2000
0000
ENDCHAR

STARTCHAR 616
ENCODING 42355
SWIDTH 640 0
DWIDTH 16 0
BBX 16 16 0 -1
BITMAP
0000
0004
0004
0444
7E44
4444
4444
4444
4447
444C
7C74
44C4
0004
0004
0004
0000
ENDCHAR

STARTCHAR 617
ENCODING 42356
SWIDTH 640 0
DWIDTH 16 0
BBX 16 16 0 -1
BITMAP
0000
0008
0FFC
0808
0808
0FF8
0888
0082
3FFF
0102
0102
0202
0412
080C
1008
0000
ENDCHAR

STARTCHAR 618
ENCODING 42357
SWIDTH 640 0
DWIDTH 16 0
BBX 16 16 0 -1
BITMAP
0000
0008
1FFC
1008
1008
1008
1008
1FF8
1008
0000
0420
0C10
100C
2006
4002
0000
ENDCHAR

STARTCHAR 619
ENCODING 42358
SWIDTH 640 0
DWIDTH 16 0
BBX 16 16 0 -1
BITMAP
0000
0080
0084
1FFE
1084
1084
1FFC
1084
0480
0280
0100
02C0
0430
180F
6002
0000
ENDCHAR

STARTCHAR 620
ENCODING 42359
SWIDTH 640 0
DWIDTH 16 0
BBX 16 16 0 -1
BITMAP
0000
0080
0080
0880
7C80
4884
488E
48F0
4B80
4880
7880
4882
0082
0082
007F
0000
ENDCHAR

STARTCHAR 621
ENCODING 42360
SWIDTH 640 0
DWIDTH 16 0
BBX 16 16 0 -1
BITMAP
0000
0200
0200
0410
0808
1004
7FFE
0002
0008
1FFC
1008
1008
1008
1FF8
1008
0000
ENDCHAR

STARTCHAR 622
ENCODING 42361
SWIDTH 640 0
DWIDTH 16 0
BBX 16 16 0 -1
BITMAP
0000
0800
0802
0FFF
1002
1022
27F2
4422
0422
0422
07E2
0422
0002
001C
0008
0000
ENDCHAR

STARTCHAR 623
ENCODING 42362
SWIDTH 640 0
DWIDTH 16 0
BBX 16 16 0 -1
BITMAP
0000
0010
0098
0490
7E90
4490
4490
4490
4490
4490
7C90
4508
0108
0207
0402
0000
ENDCHAR

STARTCHAR 624
ENCODING 42363
SWIDTH 640 0
DWIDTH 16 0
BBX 16 16 0 -1
BITMAP
0000
0020
0020
0420
7E22
44FF
4422
4422
4422
7C42
4442
0082
0112
020C
0408
0000
ENDCHAR

STARTCHAR 625
ENCODING 42364
SWIDTH 640 0
DWIDTH 16 0
BBX 16 16 0 -1
BITMAP
0000
0000
0002
7FFF
2222
2222
2222
2222
2222
241E
2802
2002
3FFE
2002
0000
0000
ENDCHAR

STARTCHAR 626
ENCODING 42365
SWIDTH 640 0
DWIDTH 16 0
BBX 16 16 0 -1
BITMAP
0000
0002
3FFF
2002
2082
2082
2082
2102
2182
2262
2432
2812
2002
3FFE
2002
0000
ENDCHAR

STARTCHAR 627
ENCODING 42366
SWIDTH 640 0
DWIDTH 16 0
BBX 16 16 0 -1
BITMAP
0000
0410
0410
0890
0FD0
1090
1098
3116
4913
0610
0210
0410
0810
1010
0010
0000
ENDCHAR

STARTCHAR 628
ENCODING 42401
SWIDTH 640 0
DWIDTH 16 0
BBX 16 16 0 -1
BITMAP
0000
0080
0088
0FFC
0888
0888
0888
088A
7FFF
0080
0140
0220
0418
1807
6002
0000
ENDCHAR

STARTCHAR 629
ENCODING 42402
SWIDTH 640 0
DWIDTH 16 0
BBX 16 16 0 -1
BITMAP
0000
0080
0880
0888
0FFC
1080
2080
0082
7FFF
0080
0140
0220
0418
1807
6002
0000
ENDCHAR

STARTCHAR 630
ENCODING 42403
SWIDTH 640 0
DWIDTH 16 0
BBX 16 16 0 -1
BITMAP
0000
1000
1002
127F
7F02
1242
1244
2244
1228
0C28
0C10
1228
2244
4083
0102
0000
ENDCHAR

STARTCHAR 631
ENCODING 42404
SWIDTH 640 0
DWIDTH 16 0
BBX 16 16 0 -1
BITMAP
0000
0804
09FE
0844
7E44
1248
124A
125F
2482
1482
0882
1502
2512
420C
0408
0000
ENDCHAR

STARTCHAR 632
ENCODING 42405
SWIDTH 640 0
DWIDTH 16 0
BBX 16 16 0 -1
BITMAP
0000
1FF8
0210
0212
043F
0802
0BF2
1024
20C0
0042
1FFF
0040
0040
01C0
0080
0000
ENDCHAR

STARTCHAR 633
ENCODING 42406
SWIDTH 640 0
DWIDTH 16 0
BBX 16 16 0 -1
BITMAP
0000
0100
0082
3FFF
2002
4004
0000
0410
0430
04C0
0700
0404
0404
0404
03FE
0000
ENDCHAR

STARTCHAR 634
ENCODING 42407
SWIDTH 640 0
DWIDTH 16 0
BBX 16 16 0 -1
BITMAP
0000
0004
1FFE
1004
1004
1FFC
1000
1208
1218
1260
1380
1202
2202
2202
41FF
0000
ENDCHAR

STARTCHAR 635
ENCODING 42408
SWIDTH 640 0
DWIDTH 16 0
BBX 16 16 0 -1
BITMAP
0000
0008
3FFC
1000
1000
1008
1FFC
1008
1008
1FF8
1008
1000
1004
1FFE
1000
0000
ENDCHAR

STARTCHAR 636
ENCODING 42409
SWIDTH 640 0
DWIDTH 16 0
BBX 16 16 0 -1
BITMAP
0000
0002
00FF
7E20
0820
0840
0842
08FF
0802
0E02
7802
2002
0024
0018
0010
0000
ENDCHAR

STARTCHAR 637
ENCODING 42410
SWIDTH 640 0
DWIDTH 16 0
BBX 16 16 0 -1
BITMAP
0000
0100
0100
0104
7FFE
0200
0200
0408
07FC
0840
1040
2040
4042
1FFF
0000
0000
ENDCHAR

STARTCHAR 638
ENCODING 42411
SWIDTH 640 0
DWIDTH 16 0
BBX 16 16 0 -1
BITMAP
0000
0100
0080
0002
7FFF
0080
0084
1FFE
1084
1084
1084
109C
1088
0080
0080
0000
ENDCHAR

STARTCHAR 639
ENCODING 42412
SWIDTH 640 0
DWIDTH 16 0
BBX 16 16 0 -1
BITMAP
0000
0100
0104
7FFE
0200
0480
0884
1FFE
2884
4884
0884
089C
0888
0080
0080
0000
ENDCHAR

STARTCHAR 640
ENCODING 42413
SWIDTH 640 0
DWIDTH 16 0
BBX 16 16 0 -1
BITMAP
0000
0004
3FFE
0080
0888
0488
0490
0082
7FFF
0080
0080
0080
0080
0080
0080
0000
ENDCHAR

STARTCHAR 641
ENCODING 42414
SWIDTH 640 0
DWIDTH 16 0
BBX 16 16 0 -1
BITMAP
0000
0020
0820
0820
1022
12FF
6222
1422
0822
1022
2442
7E42
2282
011C
0208
0000
ENDCHAR

STARTCHAR 642
ENCODING 42415
SWIDTH 640 0
DWIDTH 16 0
BBX 16 16 0 -1
BITMAP
0000
0180
0220
0410
1FF8
0008
0220
0222
7FFF
0220
0220
0420
0420
0820
1020
0000
ENDCHAR

STARTCHAR 643
ENCODING 42416
SWIDTH 640 0
DWIDTH 16 0
BBX 16 16 0 -1
BITMAP
0000
0200
7F10
0218
0210
3E10
2020
2220
7F20
0240
0248
0284
25FE
1881
1001
0000
ENDCHAR

STARTCHAR 644
ENCODING 42417
SWIDTH 640 0
DWIDTH 16 0
BBX 16 16 0 -1
BITMAP
0000
0440
0448
7FFC
0448
0448
3FF8
2440
2442
7FFF
0442
0842
084E
1044
2040
0000
ENDCHAR

STARTCHAR 645
ENCODING 42418
SWIDTH 640 0
DWIDTH 16 0
BBX 16 16 0 -1
BITMAP
0000
0100
0090
0098
0410
2424
2423
2441
4480
0500
0604
0C04
1404
23FE
0000
0000
ENDCHAR

STARTCHAR 646
ENCODING 42419
SWIDTH 640 0
DWIDTH 16 0
BBX 16 16 0 -1
BITMAP
0000
0048
0044
0040
1FFE
0840
0840
0844
0824
0828
0810
1030
104A
2086
4003
0000
ENDCHAR

STARTCHAR 647
ENCODING 42420
SWIDTH 640 0
DWIDTH 16 0
BBX 16 16 0 -1
BITMAP
0000
0800
0802
08FF
7E10
0810
0810
0C10
1810
6810
0810
0810
0810
3870
1020
0000
ENDCHAR

STARTCHAR 648
ENCODING 42421
SWIDTH 640 0
DWIDTH 16 0
BBX 16 16 0 -1
BITMAP
0000
0800
0804
09FE
7E44
0848
0A4A
0C5F
1842
6882
0882
0882
0912
390C
1208
0000
ENDCHAR

STARTCHAR 649
ENCODING 42422
SWIDTH 640 0
DWIDTH 16 0
BBX 16 16 0 -1
BITMAP
0000
0800
0810
0898
7E90
0890
0A90
0C90
1890
6890
0908
090C
0A07
3802
1000
0000
ENDCHAR

STARTCHAR 650
ENCODING 42423
SWIDTH 640 0
DWIDTH 16 0
BBX 16 16 0 -1
BITMAP
0000
0820
0820
0820
7E20
0830
082C
0A26
0C22
1820
6820
0820
0820
3820
1020
0000
ENDCHAR

STARTCHAR 651
ENCODING 42424
SWIDTH 640 0
DWIDTH 16 0
BBX 16 16 0 -1
BITMAP
0000
003C
1FC0
0800
0804
0FFE
0840
0840
09E0
1058
104C
2044
2040
4040
0040
0000
ENDCHAR

STARTCHAR 652
ENCODING 42425
SWIDTH 640 0
DWIDTH 16 0
BBX 16 16 0 -1
BITMAP
0000
0008
0FFC
0808
0808
0FF8
0808
0808
0808
0FF8
0808
0000
0002
7FFF
0000
0000
ENDCHAR

STARTCHAR 653
ENCODING 42426
SWIDTH 640 0
DWIDTH 16 0
BBX 16 16 0 -1
BITMAP
0000
0090
0088
0088
0082
7FFF
0080
0888
0888
0888
1088
1088
2087
0080
0080
0000
ENDCHAR

STARTCHAR 654
ENCODING 42427
SWIDTH 640 0
DWIDTH 16 0
BBX 16 16 0 -1
BITMAP
0000
0080
0080
0084
3FFE
01C0
02A0
02A0
0490
0490
0888
17F7
6082
0080
0080
0000
ENDCHAR

STARTCHAR 655
ENCODING 42428
SWIDTH 640 0
DWIDTH 16 0
BBX 16 16 0 -1
BITMAP
0000
0080
0084
3FFE
0080
0082
7FFF
01C0
02A0
0490
0888
1087
2082
0080
0080
0000
ENDCHAR

STARTCHAR 656
ENCODING 42429
SWIDTH 640 0
DWIDTH 16 0
BBX 16 16 0 -1
BITMAP
0000
0080
0082
7FFF
0080
0084
3FFE
01C0
02A0
0490
088C
1087
6082
0080
0080
0000
ENDCHAR

STARTCHAR 657
ENCODING 42430
SWIDTH 640 0
DWIDTH 16 0
BBX 16 16 0 -1
BITMAP
0000
0420
0420
0420
7FA0
0420
0C20
0E20
1520
1520
2422
0422
0422
041F
0400
0000
ENDCHAR

STARTCHAR 658
ENCODING 42431
SWIDTH 640 0
DWIDTH 16 0
BBX 16 16 0 -1
BITMAP
0000
0004
3FFE
0080
0080
0080
0888
08FC
0880
0880
0880
0880
0882
7FFF
0000
0000
ENDCHAR

STARTCHAR 659
ENCODING 42432
SWIDTH 640 0
DWIDTH 16 0
BBX 16 16 0 -1
BITMAP
0000
0008
0FFC
0508
0488
0488
040A
7FFF
0908
0888
0888
1FFE
0008
0070
0020
0000
ENDCHAR

STARTCHAR 660
ENCODING 42433
SWIDTH 640 0
DWIDTH 16 0
BBX 16 16 0 -1
BITMAP
0000
0008
3FFC
1008
1008
1FF8
1080
1084
1FFE
1080
1040
1042
1222
1C1A
7007
0000
ENDCHAR

STARTCHAR 661
ENCODING 42434
SWIDTH 640 0
DWIDTH 16 0
BBX 16 16 0 -1
BITMAP
0000
0008
007C
3FC0
1040
1040
1044
1FFE
1020
1020
1010
1212
140A
19E6
7003
0000
ENDCHAR

STARTCHAR 662
ENCODING 42435
SWIDTH 640 0
DWIDTH 16 0
BBX 16 16 0 -1
BITMAP
0000
0300
0080
0000
07C4
0084
0088
3ED0
02A0
0490
0888
1087
2082
0380
0100
0000
ENDCHAR

STARTCHAR 663
ENCODING 42436
SWIDTH 640 0
DWIDTH 16 0
BBX 16 16 0 -1
BITMAP
0000
2020
1820
0820
4020
3022
13FF
0020
0820
1020
7020
1020
1020
1020
1020
0000
ENDCHAR

STARTCHAR 664
ENCODING 42437
SWIDTH 640 0
DWIDTH 16 0
BBX 16 16 0 -1
BITMAP
0000
2000
1802
0BFF
4020
3020
1020
0420
0820
1020
7020
1020
1020
10E0
1040
0000
ENDCHAR

STARTCHAR 665
ENCODING 42438
SWIDTH 640 0
DWIDTH 16 0
BBX 16 16 0 -1
BITMAP
0000
2000
1804
0BFE
0104
4104
3104
1124
0518
0910
7100
1102
1102
1102
10FF
0000
ENDCHAR

STARTCHAR 666
ENCODING 42439
SWIDTH 640 0
DWIDTH 16 0
BBX 16 16 0 -1
BITMAP
0000
2200
1404
09FE
1484
2484
4484
0CA4
1498
2490
4480
0482
2482
187F
1000
0000
ENDCHAR

STARTCHAR 667
ENCODING 42440
SWIDTH 640 0
DWIDTH 16 0
BBX 16 16 0 -1
BITMAP
0000
0100
0084
7FFE
0100
0200
0420
1840
0480
0300
0210
0408
0804
7FFE
2002
0000
ENDCHAR

STARTCHAR 668
ENCODING 42441
SWIDTH 640 0
DWIDTH 16 0
BBX 16 16 0 -1
BITMAP
0000
0000
0004
3FFE
0080
0080
0088
1FFC
0080
0090
0088
0088
0082
7FFF
0000
0000
ENDCHAR

STARTCHAR 669
ENCODING 42442
SWIDTH 640 0
DWIDTH 16 0
BBX 16 16 0 -1
BITMAP
0000
000C
00F0
1F20
0920
0920
0910
0910
0910
1108
1148
1124
21D2
2F13
4001
0000
ENDCHAR

STARTCHAR 670
ENCODING 42443
SWIDTH 640 0
DWIDTH 16 0
BBX 16 16 0 -1
BITMAP
0000
0008
7FFC
0800
0800
0820
0FF0
0820
0A20
0920
11A0
1022
1E22
7022
201F
0000
ENDCHAR

STARTCHAR 671
ENCODING 42444
SWIDTH 640 0
DWIDTH 16 0
BBX 16 16 0 -1
BITMAP
0000
0410
0410
0412
7FFF
0410
0410
0410
07F0
0410
0410
0410
0410
07F0
0410
0000
ENDCHAR

STARTCHAR 672
ENCODING 42445
SWIDTH 640 0
DWIDTH 16 0
BBX 16 16 0 -1
BITMAP
0000
0080
0880
0884
1FFE
1080
2080
4088
0FFC
0080
0080
0080
0082
7FFF
0000
0000
ENDCHAR

STARTCHAR 673
ENCODING 42446
SWIDTH 640 0
DWIDTH 16 0
BBX 16 16 0 -1
BITMAP
0000
0004
1FFE
1084
1084
1FFC
1084
1084
1FFC
1084
1084
1084
2084
209C
4008
0000
ENDCHAR

STARTCHAR 674
ENCODING 42447
SWIDTH 640 0
DWIDTH 16 0
BBX 16 16 0 -1
BITMAP
0000
0004
1FFE
1084
1084
1FFC
1084
1084
1FFC
1084
1084
109C
2089
2081
407F
0000
ENDCHAR

STARTCHAR 675
ENCODING 42448
SWIDTH 640 0
DWIDTH 16 0
BBX 16 16 0 -1
BITMAP
0000
0000
0002
3FFF
2082
2082
2082
2082
3FFE
2082
2082
2082
2082
3FFE
2002
0000
ENDCHAR

STARTCHAR 676
ENCODING 42449
SWIDTH 640 0
DWIDTH 16 0
BBX 16 16 0 -1
BITMAP
0000
0080
0080
0080
0082
3FFF
2082
2082
2082
3FFE
2082
2082
2082
3FFE
2002
0000
ENDCHAR

STARTCHAR 677
ENCODING 42450
SWIDTH 640 0
DWIDTH 16 0
BBX 16 16 0 -1
BITMAP
0000
0002
3FFF
2082
2082
3FFE
2082
2082
3FFE
2082
0080
0080
0080
0080
0080
0000
ENDCHAR

STARTCHAR 678
ENCODING 42451
SWIDTH 640 0
DWIDTH 16 0
BBX 16 16 0 -1
BITMAP
0000
0080
0080
0084
1FFE
1084
1084
1FFC
1084
1084
1FFC
1084
0080
0080
0080
0000
ENDCHAR

STARTCHAR 679
ENCODING 42452
SWIDTH 640 0
DWIDTH 16 0
BBX 16 16 0 -1
BITMAP
0000
0004
3FFE
0084
0088
0480
0480
0488
08FC
0880
1480
1280
2180
4040
003F
0000
ENDCHAR

STARTCHAR 680
ENCODING 42453
SWIDTH 640 0
DWIDTH 16 0
BBX 16 16 0 -1
BITMAP
0000
0100
0200
0404
1FFE
0804
0804
0804
0FFC
0804
0804
0804
0804
0FFC
0804
0000
ENDCHAR

STARTCHAR 681
ENCODING 42454
SWIDTH 640 0
DWIDTH 16 0
BBX 16 16 0 -1
BITMAP
0000
0040
0042
1FFF
0842
0844
0840
0BFC
0808
0910
08A0
1040
10B0
230F
4C02
0000
ENDCHAR

STARTCHAR 682
ENCODING 42455
SWIDTH 640 0
DWIDTH 16 0
BBX 16 16 0 -1
BITMAP
0000
0000
0008
1FFC
1248
1248
1248
1248
1248
1248
1248
1248
124A
7FFF
0000
0000
ENDCHAR

STARTCHAR 683
ENCODING 42456
SWIDTH 640 0
DWIDTH 16 0
BBX 16 16 0 -1
BITMAP
0000
0008
1FFC
1008
1008
1008
1FF8
1008
1008
1FF8
1008
1008
1008
1FF8
1008
0000
ENDCHAR

STARTCHAR 684
ENCODING 42457
SWIDTH 640 0
DWIDTH 16 0
BBX 16 16 0 -1
BITMAP
0000
0010
0FF8
0020
0140
0082
3FFF
0182
0244
0440
0840
1040
2040
01C0
0080
0000
ENDCHAR

STARTCHAR 685
ENCODING 42458
SWIDTH 640 0
DWIDTH 16 0
BBX 16 16 0 -1
BITMAP
0000
0400
0408
0FFC
1080
2080
0082
7FFF
0180
0140
0240
0420
0818
1007
6002
0000
ENDCHAR

STARTCHAR 686
ENCODING 42459
SWIDTH 640 0
DWIDTH 16 0
BBX 16 16 0 -1
BITMAP
0000
0002
7FFF
0100
0200
0200
0404
0FFE
1404
2404
4404
0404
0404
07FC
0404
0000
ENDCHAR

STARTCHAR 687
ENCODING 42460
SWIDTH 640 0
DWIDTH 16 0
BBX 16 16 0 -1
BITMAP
0000
0008
1FFC
0000
0000
0002
7FFF
0080
0890
1888
2086
4082
0080
0380
0100
0000
ENDCHAR

STARTCHAR 688
ENCODING 42461
SWIDTH 640 0
DWIDTH 16 0
BBX 16 16 0 -1
BITMAP
0000
0008
001C
1FE0
0080
0082
7FFF
0080
01C0
02A0
0490
088C
1087
2182
0080
0000
ENDCHAR

STARTCHAR 689
ENCODING 42462
SWIDTH 640 0
DWIDTH 16 0
BBX 16 16 0 -1
BITMAP
0000
0100
0080
0082
3FFF
2002
4044
0240
0220
0420
0810
0808
1007
2002
0000
0000
ENDCHAR

STARTCHAR 690
ENCODING 42463
SWIDTH 640 0
DWIDTH 16 0
BBX 16 16 0 -1
BITMAP
0000
0100
0080
0084
3FFE
0000
0008
0818
0410
0620
0220
0240
0002
7FFF
0000
0000
ENDCHAR

STARTCHAR 691
ENCODING 42464
SWIDTH 640 0
DWIDTH 16 0
BBX 16 16 0 -1
BITMAP
0000
0010
1FF8
0040
0182
0086
3E88
02F0
0490
0888
3087
4082
0180
1FFE
0000
0000
ENDCHAR

STARTCHAR 692
ENCODING 42465
SWIDTH 640 0
DWIDTH 16 0
BBX 16 16 0 -1
BITMAP
0000
0078
1F80
0080
0088
1FFC
0080
0082
7FFF
0100
0200
0408
0804
3FFE
1002
0000
ENDCHAR

STARTCHAR 693
ENCODING 42466
SWIDTH 640 0
DWIDTH 16 0
BBX 16 16 0 -1
BITMAP
0000
0078
0F80
0400
0404
07FE
0410
0410
0412
7FFF
0000
0100
0300
0400
0800
0000
ENDCHAR

STARTCHAR 694
ENCODING 42467
SWIDTH 640 0
DWIDTH 16 0
BBX 16 16 0 -1
BITMAP
0000
0038
0FC0
0400
0404
07FE
0410
0410
0412
7FFF
0000
0020
0018
000C
0004
0000
ENDCHAR

STARTCHAR 695
ENCODING 42468
SWIDTH 640 0
DWIDTH 16 0
BBX 16 16 0 -1
BITMAP
0000
0820
0820
0920
0FA0
0820
0820
0920
3FA0
2120
2122
2122
2122
3F22
211F
0000
ENDCHAR

STARTCHAR 696
ENCODING 42469
SWIDTH 640 0
DWIDTH 16 0
BBX 16 16 0 -1
BITMAP
0000
0008
3FFC
0200
0210
03F8
0410
0590
0450
0A10
0990
0090
0022
7FFF
0000
0000
ENDCHAR

STARTCHAR 697
ENCODING 42470
SWIDTH 640 0
DWIDTH 16 0
BBX 16 16 0 -1
BITMAP
0000
0080
0082
7FFF
0410
040C
0816
1220
0140
0080
0140
0220
0418
1807
6002
0000
ENDCHAR

STARTCHAR 698
ENCODING 42471
SWIDTH 640 0
DWIDTH 16 0
BBX 16 16 0 -1
BITMAP
0000
0100
0080
0082
7FFF
0220
0220
1228
1224
2222
4222
0420
0420
08E0
1040
0000
ENDCHAR

STARTCHAR 699
ENCODING 42472
SWIDTH 640 0
DWIDTH 16 0
BBX 16 16 0 -1
BITMAP
0000
0100
0082
7FFF
0100
0230
0C40
0288
0118
0220
0C60
0090
0308
0C06
3002
0000
ENDCHAR

STARTCHAR 700
ENCODING 42473
SWIDTH 640 0
DWIDTH 16 0
BBX 16 16 0 -1
BITMAP
0000
0440
0420
0802
0BFF
1040
2844
487E
0844
0844
0844
0884
0884
0938
0A10
0000
ENDCHAR

STARTCHAR 701
ENCODING 42474
SWIDTH 640 0
DWIDTH 16 0
BBX 16 16 0 -1
BITMAP
0000
0440
0422
09FF
0800
1008
28FC
4888
0888
0888
0888
0889
0909
0909
0A07
0000
ENDCHAR

STARTCHAR 702
ENCODING 42475
SWIDTH 640 0
DWIDTH 16 0
BBX 16 16 0 -1
BITMAP
0000
0420
0420
0820
1122
2126
5124
1228
1020
1050
1088
1088
1104
1207
1402
0000
ENDCHAR

STARTCHAR 703
ENCODING 42476
SWIDTH 640 0
DWIDTH 16 0
BBX 16 16 0 -1
BITMAP
0000
0404
05FE
0444
0844
13FF
2844
4844
09FC
0844
0840
0880
0880
0900
0A00
0000
ENDCHAR

STARTCHAR 704
ENCODING 42477
SWIDTH 640 0
DWIDTH 16 0
BBX 16 16 0 -1
BITMAP
0000
0820
0820
1024
11FE
2020
5020
1022
13FF
1050
1048
1088
1104
1203
1402
0000
ENDCHAR

STARTCHAR 705
ENCODING 42478
SWIDTH 640 0
DWIDTH 16 0
BBX 16 16 0 -1
BITMAP
0000
0800
0808
0BFC
1040
2040
5048
13FC
1088
1088
1088
1088
108A
17FF
1000
0000
ENDCHAR

STARTCHAR 706
ENCODING 42479
SWIDTH 640 0
DWIDTH 16 0
BBX 16 16 0 -1
BITMAP
0000
0440
0450
0448
0848
107E
2BC0
4844
0848
0830
0820
0852
088A
0906
0803
0000
ENDCHAR

STARTCHAR 707
ENCODING 42480
SWIDTH 640 0
DWIDTH 16 0
BBX 16 16 0 -1
BITMAP
0000
0420
0420
0822
0BFF
1820
2870
4870
08A8
08A8
0924
0A23
0C22
0820
0820
0000
ENDCHAR

STARTCHAR 708
ENCODING 42481
SWIDTH 640 0
DWIDTH 16 0
BBX 16 16 0 -1
BITMAP
0000
0428
0424
0824
0820
13FF
2820
4820
0850
0850
0888
0888
0904
0A03
0C02
0000
ENDCHAR

STARTCHAR 709
ENCODING 42482
SWIDTH 640 0
DWIDTH 16 0
BBX 16 16 0 -1
BITMAP
0000
0420
0420
0820
1022
23FF
5222
1222
1222
13FE
1222
1020
1020
1020
1020
0000
ENDCHAR

STARTCHAR 710
ENCODING 42483
SWIDTH 640 0
DWIDTH 16 0
BBX 16 16 0 -1
BITMAP
0000
0820
0920
1124
11FE
2220
5220
1420
1022
17FF
1020
1020
1020
1020
1020
0000
ENDCHAR

STARTCHAR 711
ENCODING 42484
SWIDTH 640 0
DWIDTH 16 0
BBX 16 16 0 -1
BITMAP
0000
0400
0404
081E
09E0
1020
2820
4822
0BFF
0820
0820
0820
0824
09FE
0800
0000
ENDCHAR

STARTCHAR 712
ENCODING 42485
SWIDTH 640 0
DWIDTH 16 0
BBX 16 16 0 -1
BITMAP
0000
0800
0840
1082
273F
5222
1222
1222
1222
1222
12AE
1324
1620
1020
1020
0000
ENDCHAR

STARTCHAR 713
ENCODING 42486
SWIDTH 640 0
DWIDTH 16 0
BBX 16 16 0 -1
BITMAP
0000
0410
0510
0910
0912
1116
29D8
4910
0910
0910
0912
0952
0992
0B0F
0800
0000
ENDCHAR

STARTCHAR 714
ENCODING 42487
SWIDTH 640 0
DWIDTH 16 0
BBX 16 16 0 -1
BITMAP
0000
0410
0490
0888
0908
1107
2A02
4C08
09FC
0888
0888
0908
0908
0A70
0820
0000
ENDCHAR

STARTCHAR 715
ENCODING 42488
SWIDTH 640 0
DWIDTH 16 0
BBX 16 16 0 -1
BITMAP
0000
0080
0140
0220
0410
0888
1087
6082
0490
04F8
0480
0480
0482
7FFF
0000
0000
ENDCHAR

STARTCHAR 716
ENCODING 42489
SWIDTH 640 0
DWIDTH 16 0
BBX 16 16 0 -1
BITMAP
0000
0804
0BFE
1084
1088
2092
50BF
1082
1142
1124
1118
1218
1224
1443
1081
0000
ENDCHAR

STARTCHAR 717
ENCODING 42490
SWIDTH 640 0
DWIDTH 16 0
BBX 16 16 0 -1
BITMAP
0000
0084
088C
0488
0490
0082
7FFF
0140
0140
0240
0442
0442
0842
103F
2000
0000
ENDCHAR

STARTCHAR 718
ENCODING 42491
SWIDTH 640 0
DWIDTH 16 0
BBX 16 16 0 -1
BITMAP
0000
0000
1428
1248
1188
1148
1628
1008
1FF8
1248
0240
0440
0842
1042
203F
0000
ENDCHAR

STARTCHAR 719
ENCODING 42492
SWIDTH 640 0
DWIDTH 16 0
BBX 16 16 0 -1
BITMAP
0000
0240
0240
324C
0A50
0A60
0240
0660
0A50
324C
0440
0440
0842
1042
603F
0000
ENDCHAR

STARTCHAR 720
ENCODING 42493
SWIDTH 640 0
DWIDTH 16 0
BBX 16 16 0 -1
BITMAP
0000
0080
0888
0FFC
0880
1080
0082
7FFF
0140
0240
0240
0442
0842
1042
203F
0000
ENDCHAR

STARTCHAR 721
ENCODING 42494
SWIDTH 640 0
DWIDTH 16 0
BBX 16 16 0 -1
BITMAP
0000
0380
0440
0820
1018
2FE7
4102
0100
0120
1FF0
0100
0100
0108
7FFC
0000
0000
ENDCHAR

STARTCHAR 722
ENCODING 42560
SWIDTH 640 0
DWIDTH 16 0
BBX 16 16 0 -1
BITMAP
0000
0220
0220
0224
3FFE
0220
0220
0220
0222
7FFF
0000
0410
0408
080C
1004
0000
ENDCHAR

STARTCHAR 723
ENCODING 42561
SWIDTH 640 0
DWIDTH 16 0
BBX 16 16 0 -1
BITMAP
0000
0004
3FFE
0080
0088
0FFC
0888
0FF8
0888
088A
7FFF
0808
0808
0838
0810
0000
ENDCHAR

STARTCHAR 724
ENCODING 42562
SWIDTH 640 0
DWIDTH 16 0
BBX 16 16 0 -1
BITMAP
0000
2040
1040
1842
0046
07C8
00D0
0960
1150
7248
1244
1447
1842
11C0
1080
0000
ENDCHAR

STARTCHAR 725
ENCODING 42563
SWIDTH 640 0
DWIDTH 16 0
BBX 16 16 0 -1
BITMAP
0000
0082
3FC2
0802
0892
0FD2
1092
1092
2912
4512
0212
0402
0802
100E
2004
0000
ENDCHAR

STARTCHAR 726
ENCODING 42564
SWIDTH 640 0
DWIDTH 16 0
BBX 16 16 0 -1
BITMAP
0000
0082
3FC2
0902
0912
0912
0912
7FD2
0912
0912
0912
1102
1102
210E
0104
0000
ENDCHAR

STARTCHAR 727
ENCODING 42565
SWIDTH 640 0
DWIDTH 16 0
BBX 16 16 0 -1
BITMAP
0000
0901
0881
0809
0BC9
7C09
0809
0889
0889
0509
0609
0A41
1141
60C7
0062
0000
ENDCHAR

STARTCHAR 728
ENCODING 42566
SWIDTH 640 0
DWIDTH 16 0
BBX 16 16 0 -1
BITMAP
0000
0801
0841
1FE9
1549
2549
4549
0949
0A49
1249
2249
0441
0841
1387
0102
0000
ENDCHAR

STARTCHAR 729
ENCODING 42567
SWIDTH 640 0
DWIDTH 16 0
BBX 16 16 0 -1
BITMAP
0000
0082
1FC2
1082
1092
1F92
1092
1092
1F92
1092
1092
1082
2082
228E
4104
0000
ENDCHAR

STARTCHAR 730
ENCODING 42568
SWIDTH 640 0
DWIDTH 16 0
BBX 16 16 0 -1
BITMAP
0000
0080
0488
0484
1896
0062
0180
0E00
7088
0FFC
0108
0208
0408
1870
6020
0000
ENDCHAR

STARTCHAR 731
ENCODING 42569
SWIDTH 640 0
DWIDTH 16 0
BBX 16 16 0 -1
BITMAP
0000
0800
0802
1FFF
1002
2242
4152
0892
0952
0A52
0FF2
0812
0002
001C
0008
0000
ENDCHAR

STARTCHAR 732
ENCODING 42570
SWIDTH 640 0
DWIDTH 16 0
BBX 16 16 0 -1
BITMAP
0000
0004
7FFE
2000
2010
27F8
2080
20A0
27F0
2080
2088
2FFC
2000
3FFF
2000
0000
ENDCHAR

STARTCHAR 733
ENCODING 42571
SWIDTH 640 0
DWIDTH 16 0
BBX 16 16 0 -1
BITMAP
0000
0004
3FFE
2000
2038
27C0
2208
23FC
2220
2220
2220
2420
2822
3FFF
2000
0000
ENDCHAR

STARTCHAR 734
ENCODING 42572
SWIDTH 640 0
DWIDTH 16 0
BBX 16 16 0 -1
BITMAP
0000
0302
7C7F
2042
2042
2242
3F42
2042
2042
2242
2C5C
7048
4040
0040
0040
0000
ENDCHAR

STARTCHAR 735
ENCODING 42573
SWIDTH 640 0
DWIDTH 16 0
BBX 16 16 0 -1
BITMAP
0000
0420
07F0
0820
1044
2FFE
0800
09FC
0908
0908
0938
1110
1102
2102
40FF
0000
ENDCHAR

STARTCHAR 736
ENCODING 42574
SWIDTH 640 0
DWIDTH 16 0
BBX 16 16 0 -1
BITMAP
0000
0080
0082
7FFF
0080
0088
1FFC
0000
0008
0FFC
0808
0808
0808
0FF8
0808
0000
ENDCHAR

STARTCHAR 737
ENCODING 42575
SWIDTH 640 0
DWIDTH 16 0
BBX 16 16 0 -1
BITMAP
0000
0080
0082
7FFF
0080
0084
1FFE
1084
1FFC
1084
0480
0300
02C0
0C38
7007
0000
ENDCHAR

STARTCHAR 738
ENCODING 42576
SWIDTH 640 0
DWIDTH 16 0
BBX 16 16 0 -1
BITMAP
0000
0002
3FFF
2002
2012
2FFA
2002
27F2
2412
2412
27F2
2412
2002
200E
2004
0000
ENDCHAR

STARTCHAR 739
ENCODING 42577
SWIDTH 640 0
DWIDTH 16 0
BBX 16 16 0 -1
BITMAP
0000
0008
0FFC
0808
0808
0FF8
0888
0082
3FFF
1082
1082
1082
108E
1084
0080
0000
ENDCHAR

STARTCHAR 740
ENCODING 42578
SWIDTH 640 0
DWIDTH 16 0
BBX 16 16 0 -1
BITMAP
0000
0020
0020
0420
7E20
4424
45FE
4420
4420
7C20
4420
0020
0022
07FF
0000
0000
ENDCHAR

STARTCHAR 741
ENCODING 42579
SWIDTH 640 0
DWIDTH 16 0
BBX 16 16 0 -1
BITMAP
0000
0004
09FE
7C20
4820
4822
4BFF
4820
4820
7820
4820
0020
0020
00E0
0040
0000
ENDCHAR

STARTCHAR 742
ENCODING 42580
SWIDTH 640 0
DWIDTH 16 0
BBX 16 16 0 -1
BITMAP
0000
0008
0008
080A
7DFF
4808
4808
4888
4848
4848
7808
4808
0008
0038
0010
0000
ENDCHAR

STARTCHAR 743
ENCODING 42581
SWIDTH 640 0
DWIDTH 16 0
BBX 16 16 0 -1
BITMAP
0000
0200
03F8
0408
0A10
1120
00C0
0330
0C0F
7002
07F8
0408
0408
07F8
0408
0000
ENDCHAR

STARTCHAR 744
ENCODING 42582
SWIDTH 640 0
DWIDTH 16 0
BBX 16 16 0 -1
BITMAP
0000
0100
0200
0402
3FFF
2002
2022
27F2
2422
2422
27E2
2422
2002
200E
2004
0000
ENDCHAR

STARTCHAR 745
ENCODING 42583
SWIDTH 640 0
DWIDTH 16 0
BBX 16 16 0 -1
BITMAP
0000
0108
01FC
0608
1A10
0120
00C0
0300
0C04
77FE
0404
0404
0404
07FC
0404
0000
ENDCHAR

STARTCHAR 746
ENCODING 42584
SWIDTH 640 0
DWIDTH 16 0
BBX 16 16 0 -1
BITMAP
0000
0080
0140
0220
0410
180C
67F3
0000
0010
07F8
0410
0410
0410
07F0
0410
0000
ENDCHAR

STARTCHAR 747
ENCODING 42585
SWIDTH 640 0
DWIDTH 16 0
BBX 16 16 0 -1
BITMAP
0000
0040
0442
7EFF
4500
4608
44FC
4408
4410
7C20
4440
0082
0102
0102
00FF
0000
ENDCHAR

STARTCHAR 748
ENCODING 42586
SWIDTH 640 0
DWIDTH 16 0
BBX 16 16 0 -1
BITMAP
0000
0008
003C
1FC0
1000
1002
1FFF
1000
1004
13FE
1204
2204
2204
43FC
0204
0000
ENDCHAR

STARTCHAR 749
ENCODING 42587
SWIDTH 640 0
DWIDTH 16 0
BBX 16 16 0 -1
BITMAP
0000
0010
0010
0410
7E20
4444
4584
4408
4410
4420
7C40
4484
0102
07FF
0001
0000
ENDCHAR

STARTCHAR 750
ENCODING 42588
SWIDTH 640 0
DWIDTH 16 0
BBX 16 16 0 -1
BITMAP
0000
0004
000E
00F0
0420
7E20
4422
443F
45E0
4420
7C20
4422
0022
0022
001F
0000
ENDCHAR

STARTCHAR 751
ENCODING 42589
SWIDTH 640 0
DWIDTH 16 0
BBX 16 16 0 -1
BITMAP
0000
0002
3FFF
2082
2082
2FFA
2082
2142
2122
2212
241A
280A
2002
3FFE
2002
0000
ENDCHAR

STARTCHAR 752
ENCODING 42590
SWIDTH 640 0
DWIDTH 16 0
BBX 16 16 0 -1
BITMAP
0000
0000
0002
3FFF
2002
2012
27FA
2412
2412
2412
27F2
2412
2002
3FFE
2002
0000
ENDCHAR

STARTCHAR 753
ENCODING 42591
SWIDTH 640 0
DWIDTH 16 0
BBX 16 16 0 -1
BITMAP
0000
0002
7FFF
4002
47F2
4042
4182
5FFA
4082
4082
4082
4382
4102
7FFE
4002
0000
ENDCHAR

STARTCHAR 754
ENCODING 42592
SWIDTH 640 0
DWIDTH 16 0
BBX 16 16 0 -1
BITMAP
0000
0802
0882
0892
0892
7E92
0892
0892
0892
0E92
7892
2112
0102
0202
0402
0000
ENDCHAR

STARTCHAR 755
ENCODING 42593
SWIDTH 640 0
DWIDTH 16 0
BBX 16 16 0 -1
BITMAP
0000
0020
1020
1120
1124
113E
7DE4
1324
1124
1134
1128
1121
1D01
7101
20FF
0000
ENDCHAR

STARTCHAR 756
ENCODING 42594
SWIDTH 640 0
DWIDTH 16 0
BBX 16 16 0 -1
BITMAP
0000
0100
0102
7FFF
0200
0220
0420
0424
09FE
1820
2820
4820
0822
0BFF
0800
0000
ENDCHAR

STARTCHAR 757
ENCODING 42595
SWIDTH 640 0
DWIDTH 16 0
BBX 16 16 0 -1
BITMAP
0000
0080
0088
1FFC
0080
0082
7FFF
0080
0088
1FFC
0080
0080
0082
7FFF
0000
0000
ENDCHAR

STARTCHAR 758
ENCODING 42596
SWIDTH 640 0
DWIDTH 16 0
BBX 16 16 0 -1
BITMAP
0000
0804
08FE
0800
7E02
09FF
0840
0842
08FF
0E02
7802
2002
0024
0018
0010
0000
ENDCHAR

STARTCHAR 759
ENCODING 42597
SWIDTH 640 0
DWIDTH 16 0
BBX 16 16 0 -1
BITMAP
0000
0800
0804
08FE
0804
0884
7E84
0884
08FC
0884
0E80
7880
2082
0082
007F
0000
ENDCHAR

STARTCHAR 760
ENCODING 42598
SWIDTH 640 0
DWIDTH 16 0
BBX 16 16 0 -1
BITMAP
0000
0804
08FE
0810
0810
7E10
0812
09FF
0810
0F10
7810
2010
0010
0070
0020
0000
ENDCHAR

STARTCHAR 761
ENCODING 42599
SWIDTH 640 0
DWIDTH 16 0
BBX 16 16 0 -1
BITMAP
0000
0008
1FFC
1008
1028
17F8
1108
11E8
1228
1228
1548
10CA
208A
2306
4C03
0000
ENDCHAR

STARTCHAR 762
ENCODING 42600
SWIDTH 640 0
DWIDTH 16 0
BBX 16 16 0 -1
BITMAP
0000
0210
03F8
0410
1C20
02C0
0100
0644
38FE
0104
0608
1930
00C0
0700
3800
0000
ENDCHAR

STARTCHAR 763
ENCODING 42601
SWIDTH 640 0
DWIDTH 16 0
BBX 16 16 0 -1
BITMAP
0000
0080
0082
7FFF
0080
1FF8
0088
0FF8
0880
1FFE
0082
014C
0620
1818
6007
0000
ENDCHAR

STARTCHAR 764
ENCODING 42602
SWIDTH 640 0
DWIDTH 16 0
BBX 16 16 0 -1
BITMAP
0000
0080
0084
3FFE
0140
0630
1BEF
6002
1FFC
0200
07F0
0010
0010
01E0
0040
0000
ENDCHAR

STARTCHAR 765
ENCODING 42603
SWIDTH 640 0
DWIDTH 16 0
BBX 16 16 0 -1
BITMAP
0000
0100
0084
3FFE
0400
0408
07FC
0100
0102
7FFF
0610
0120
00C0
0330
1C0C
0000
ENDCHAR

STARTCHAR 766
ENCODING 42604
SWIDTH 640 0
DWIDTH 16 0
BBX 16 16 0 -1
BITMAP
0000
0804
08FE
0810
7E10
1212
13FF
1210
2210
1410
0810
1410
2210
4210
0010
0000
ENDCHAR

STARTCHAR 767
ENCODING 42605
SWIDTH 640 0
DWIDTH 16 0
BBX 16 16 0 -1
BITMAP
0000
1000
1004
10FE
1004
7E04
1204
12FC
1284
2280
1480
0880
1482
2482
407F
0000
ENDCHAR

STARTCHAR 768
ENCODING 42606
SWIDTH 640 0
DWIDTH 16 0
BBX 16 16 0 -1
BITMAP
0000
0802
08FF
0804
7E08
1230
1210
12FF
2208
1408
0808
1408
2208
4070
0020
0000
ENDCHAR

STARTCHAR 769
ENCODING 42607
SWIDTH 640 0
DWIDTH 16 0
BBX 16 16 0 -1
BITMAP
0000
0810
0810
0810
7E92
129F
12F2
1392
229A
1494
0890
0891
1481
227F
4000
0000
ENDCHAR

STARTCHAR 770
ENCODING 42608
SWIDTH 640 0
DWIDTH 16 0
BBX 16 16 0 -1
BITMAP
0000
0800
0800
0902
7FBF
0922
0922
1122
3122
0A22
0422
0A3E
1122
2100
4000
0000
ENDCHAR

STARTCHAR 771
ENCODING 42609
SWIDTH 640 0
DWIDTH 16 0
BBX 16 16 0 -1
BITMAP
0000
0840
0842
087F
7E82
1302
1242
1222
2222
1402
0802
1402
1202
221C
4008
0000
ENDCHAR

STARTCHAR 772
ENCODING 42610
SWIDTH 640 0
DWIDTH 16 0
BBX 16 16 0 -1
BITMAP
0000
0100
0080
1FFE
1002
2024
0FF0
0040
0182
7FFF
0080
0080
0080
0780
0100
0000
ENDCHAR

STARTCHAR 773
ENCODING 42611
SWIDTH 640 0
DWIDTH 16 0
BBX 16 16 0 -1
BITMAP
0000
0100
0102
7FFF
0200
04FC
0808
0830
1812
2BFF
4810
0810
0810
0870
0820
0000
ENDCHAR

STARTCHAR 774
ENCODING 42612
SWIDTH 640 0
DWIDTH 16 0
BBX 16 16 0 -1
BITMAP
0000
0100
0080
3FFF
2001
4012
0FF8
0080
0084
3FFE
0080
0080
0080
0380
0100
0000
ENDCHAR

STARTCHAR 775
ENCODING 42613
SWIDTH 640 0
DWIDTH 16 0
BBX 16 16 0 -1
BITMAP
0000
0100
0082
3FFF
2002
4024
0020
3FFE
0020
0820
0420
0420
0020
00E0
0040
0000
ENDCHAR

STARTCHAR 776
ENCODING 42614
SWIDTH 640 0
DWIDTH 16 0
BBX 16 16 0 -1
BITMAP
0000
0100
0082
3FFF
2002
4004
0070
0F80
0100
0108
01FC
7F00
0102
0102
00FF
0000
ENDCHAR

STARTCHAR 777
ENCODING 42615
SWIDTH 640 0
DWIDTH 16 0
BBX 16 16 0 -1
BITMAP
0000
0100
0084
1FFE
1004
2108
0102
7FFF
0210
0C10
0320
00C0
0360
0C18
300C
0000
ENDCHAR

STARTCHAR 778
ENCODING 42616
SWIDTH 640 0
DWIDTH 16 0
BBX 16 16 0 -1
BITMAP
0000
0080
0084
3FFE
0080
0088
1FFC
0010
0012
7FFF
0010
0810
0410
04F0
0020
0000
ENDCHAR

STARTCHAR 779
ENCODING 42617
SWIDTH 640 0
DWIDTH 16 0
BBX 16 16 0 -1
BITMAP
0000
0080
0490
0488
088C
1184
0000
0082
7FFF
0080
0140
0220
0418
1807
6002
0000
ENDCHAR

STARTCHAR 780
ENCODING 42618
SWIDTH 640 0
DWIDTH 16 0
BBX 16 16 0 -1
BITMAP
0000
1040
1042
107F
5480
5504
547E
5404
5408
5410
5420
7C40
4482
0082
007F
0000
ENDCHAR

STARTCHAR 781
ENCODING 42619
SWIDTH 640 0
DWIDTH 16 0
BBX 16 16 0 -1
BITMAP
0000
0802
0842
0842
0842
2A52
294A
294A
4842
0842
0842
0842
1042
1002
2002
0000
ENDCHAR

STARTCHAR 782
ENCODING 42620
SWIDTH 640 0
DWIDTH 16 0
BBX 16 16 0 -1
BITMAP
0000
1008
14FC
7E88
5488
5488
54C8
54A8
54A8
5C88
5488
110A
110A
120A
1407
0000
ENDCHAR

STARTCHAR 783
ENCODING 42621
SWIDTH 640 0
DWIDTH 16 0
BBX 16 16 0 -1
BITMAP
0000
0808
0618
0220
1FFE
0210
0210
0212
7FFF
0210
0210
0410
0410
0810
1010
0000
ENDCHAR

STARTCHAR 784
ENCODING 42622
SWIDTH 640 0
DWIDTH 16 0
BBX 16 16 0 -1
BITMAP
0000
0800
0808
0FFC
1080
2090
4FF8
0880
0880
0882
7FFF
0080
0080
0080
0080
0000
ENDCHAR

STARTCHAR 785
ENCODING 42657
SWIDTH 640 0
DWIDTH 16 0
BBX 16 16 0 -1
BITMAP
0000
0040
0050
0048
0042
7FFF
0040
0040
3F20
0420
0410
0792
780A
2006
0002
0000
ENDCHAR

STARTCHAR 786
ENCODING 42658
SWIDTH 640 0
DWIDTH 16 0
BBX 16 16 0 -1
BITMAP
0000
0410
3E90
0490
0492
3C9F
21F2
2092
7C92
0496
0490
0481
0481
387F
1000
0000
ENDCHAR

STARTCHAR 787
ENCODING 42659
SWIDTH 640 0
DWIDTH 16 0
BBX 16 16 0 -1
BITMAP
0000
0840
0830
0810
0802
2DFF
2A80
2A80
4880
0880
0880
0880
0882
087F
0800
0000
ENDCHAR

STARTCHAR 788
ENCODING 42660
SWIDTH 640 0
DWIDTH 16 0
BBX 16 16 0 -1
BITMAP
0000
0808
0808
0808
280A
2CFF
2A08
2808
4888
0848
0848
0808
0808
0838
0810
0000
ENDCHAR

STARTCHAR 789
ENCODING 42661
SWIDTH 640 0
DWIDTH 16 0
BBX 16 16 0 -1
BITMAP
0000
0048
0044
0040
3FFE
0040
0840
0844
7F44
0828
0830
1052
118A
2206
4003
0000
ENDCHAR

STARTCHAR 790
ENCODING 42662
SWIDTH 640 0
DWIDTH 16 0
BBX 16 16 0 -1
BITMAP
0000
0048
0044
0040
1FFE
1040
1040
1044
1024
1E28
1010
1032
204A
2086
4003
0000
ENDCHAR

STARTCHAR 791
ENCODING 42663
SWIDTH 640 0
DWIDTH 16 0
BBX 16 16 0 -1
BITMAP
0000
0050
0048
0042
1FFF
1040
1044
1444
1228
1328
1030
1052
208A
2306
4003
0000
ENDCHAR

STARTCHAR 792
ENCODING 42664
SWIDTH 640 0
DWIDTH 16 0
BBX 16 16 0 -1
BITMAP
0000
0020
0028
0024
1FFE
1020
1120
1FA4
1124
1128
1730
2232
204A
4086
0003
0000
ENDCHAR

STARTCHAR 793
ENCODING 42665
SWIDTH 640 0
DWIDTH 16 0
BBX 16 16 0 -1
BITMAP
0000
0400
0400
0402
7F7F
0442
0542
0642
0C42
7442
0442
047E
0442
1C00
0800
0000
ENDCHAR

STARTCHAR 794
ENCODING 42666
SWIDTH 640 0
DWIDTH 16 0
BBX 16 16 0 -1
BITMAP
0000
0800
0804
09FE
7E20
0820
0A20
0C20
1820
6820
0820
0822
0BFF
3800
1000
0000
ENDCHAR

STARTCHAR 795
ENCODING 42667
SWIDTH 640 0
DWIDTH 16 0
BBX 16 16 0 -1
BITMAP
0000
0808
081C
09E0
7E40
0840
0844
0C7E
19C0
6840
0840
0842
0842
3842
103F
0000
ENDCHAR

STARTCHAR 796
ENCODING 42668
SWIDTH 640 0
DWIDTH 16 0
BBX 16 16 0 -1
BITMAP
0000
0440
0440
2442
247F
2484
2484
2544
2428
3C28
6410
0428
0444
0483
0502
0000
ENDCHAR

STARTCHAR 797
ENCODING 42669
SWIDTH 640 0
DWIDTH 16 0
BBX 16 16 0 -1
BITMAP
0000
0008
0FFC
0808
0FF8
0808
0FF8
0888
0082
7FFF
0080
0080
0080
0080
0080
0000
ENDCHAR

STARTCHAR 798
ENCODING 42670
SWIDTH 640 0
DWIDTH 16 0
BBX 16 16 0 -1
BITMAP
0000
0818
08E0
0F00
3804
0804
07FE
0000
0808
0FFC
0808
0FF8
0808
0FF8
0808
0000
ENDCHAR

STARTCHAR 799
ENCODING 42671
SWIDTH 640 0
DWIDTH 16 0
BBX 16 16 0 -1
BITMAP
0000
0400
0402
07FF
0802
1022
27F2
0422
07E2
0422
07E2
0422
0002
001C
0008
0000
ENDCHAR

STARTCHAR 800
ENCODING 42672
SWIDTH 640 0
DWIDTH 16 0
BBX 16 16 0 -1
BITMAP
0000
1000
1004
127E
7F44
1244
127C
1244
1244
1244
127C
2244
2200
2202
41FF
0000
ENDCHAR

STARTCHAR 801
ENCODING 42673
SWIDTH 640 0
DWIDTH 16 0
BBX 16 16 0 -1
BITMAP
0000
0220
0220
0222
3FFF
2222
2222
2222
3FFE
2222
2222
2222
2222
3FFE
2002
0000
ENDCHAR

STARTCHAR 802
ENCODING 42674
SWIDTH 640 0
DWIDTH 16 0
BBX 16 16 0 -1
BITMAP
0000
0100
0108
1FFC
1108
1FF8
1108
1FF8
1108
0110
00A0
00C0
0322
0C1A
3007
0000
ENDCHAR

STARTCHAR 803
ENCODING 42675
SWIDTH 640 0
DWIDTH 16 0
BBX 16 16 0 -1
BITMAP
0000
0100
0102
7FFF
0200
0208
07FC
0C08
17F8
2408
07F8
0408
0408
0438
0410
0000
ENDCHAR

STARTCHAR 804
ENCODING 42676
SWIDTH 640 0
DWIDTH 16 0
BBX 16 16 0 -1
BITMAP
0000
0800
0802
09FF
0820
7E40
1844
1CFE
2A04
2A04
4804
0804
0804
0838
0810
0000
ENDCHAR

STARTCHAR 805
ENCODING 42677
SWIDTH 640 0
DWIDTH 16 0
BBX 16 16 0 -1
BITMAP
0000
0810
0810
0810
7F10
0818
1C16
1A13
2911
2910
4810
0810
0810
0810
0810
0000
ENDCHAR

STARTCHAR 806
ENCODING 42678
SWIDTH 640 0
DWIDTH 16 0
BBX 16 16 0 -1
BITMAP
0000
0080
0880
0888
0FFC
1080
0082
7FFF
01C0
02A0
0490
0888
1087
2082
0080
0000
ENDCHAR

STARTCHAR 807
ENCODING 42679
SWIDTH 640 0
DWIDTH 16 0
BBX 16 16 0 -1
BITMAP
0000
0010
0FF8
0410
0410
080F
3080
0082
7FFF
01C0
06A0
1898
6087
0382
0100
0000
ENDCHAR

STARTCHAR 808
ENCODING 42680
SWIDTH 640 0
DWIDTH 16 0
BBX 16 16 0 -1
BITMAP
0000
2040
1840
0882
00FF
0502
0924
1220
7020
1050
1050
1088
1084
1107
1202
0000
ENDCHAR

STARTCHAR 809
ENCODING 42681
SWIDTH 640 0
DWIDTH 16 0
BBX 16 16 0 -1
BITMAP
0000
0220
0220
0222
1226
1228
13B0
1220
1220
1220
1222
1222
13A2
7C22
201F
0000
ENDCHAR

STARTCHAR 810
ENCODING 42682
SWIDTH 640 0
DWIDTH 16 0
BBX 16 16 0 -1
BITMAP
0000
0002
7FFF
0420
0820
0922
1FA6
1128
3130
4A20
0622
0422
0822
101F
2000
0000
ENDCHAR

STARTCHAR 811
ENCODING 42683
SWIDTH 640 0
DWIDTH 16 0
BBX 16 16 0 -1
BITMAP
0000
1000
1FF8
1000
2FE0
4008
1FFC
0008
3FC8
0888
09E8
1029
1029
21C5
4083
0000
ENDCHAR

STARTCHAR 812
ENCODING 42684
SWIDTH 640 0
DWIDTH 16 0
BBX 16 16 0 -1
BITMAP
0000
4040
3040
1040
0048
47FF
3088
1088
0310
0890
1060
6050
2088
210C
2604
0000
ENDCHAR

STARTCHAR 813
ENCODING 42685
SWIDTH 640 0
DWIDTH 16 0
BBX 16 16 0 -1
BITMAP
0000
4000
3004
11FE
0020
4020
3020
1022
03FF
0820
7020
1020
1020
1020
1020
0000
ENDCHAR

STARTCHAR 814
ENCODING 42686
SWIDTH 640 0
DWIDTH 16 0
BBX 16 16 0 -1
BITMAP
0000
4004
31FE
1020
0020
4022
33FF
1020
0420
0820
7020
1020
1020
10E0
1040
0000
ENDCHAR

STARTCHAR 815
ENCODING 42687
SWIDTH 640 0
DWIDTH 16 0
BBX 16 16 0 -1
BITMAP
0000
2000
1804
0BFE
4020
3020
1420
0420
0820
7020
1020
1022
17FF
1000
1000
0000
ENDCHAR

STARTCHAR 816
ENCODING 42688
SWIDTH 640 0
DWIDTH 16 0
BBX 16 16 0 -1
BITMAP
0000
2020
1920
0924
413E
31E4
1724
0924
1128
7120
1122
1102
1102
10FF
1000
0000
ENDCHAR

STARTCHAR 817
ENCODING 42689
SWIDTH 640 0
DWIDTH 16 0
BBX 16 16 0 -1
BITMAP
0000
1040
0C42
047F
4082
3082
1102
0544
0A24
1028
7010
1020
1040
1080
1100
0000
ENDCHAR

STARTCHAR 818
ENCODING 42690
SWIDTH 640 0
DWIDTH 16 0
BBX 16 16 0 -1
BITMAP
0000
0020
2020
1820
0820
4020
3222
1222
0A22
1222
7222
1222
1222
13FE
1202
0000
ENDCHAR

STARTCHAR 819
ENCODING 42691
SWIDTH 640 0
DWIDTH 16 0
BBX 16 16 0 -1
BITMAP
0000
2008
19FC
0800
4002
33FF
1040
0484
09FE
1004
7004
1004
1004
1078
1010
0000
ENDCHAR

STARTCHAR 820
ENCODING 42692
SWIDTH 640 0
DWIDTH 16 0
BBX 16 16 0 -1
BITMAP
0000
2008
19FC
0808
4088
3088
1088
05C8
08A8
10A8
7088
1089
1109
1109
1207
0000
ENDCHAR

STARTCHAR 821
ENCODING 42693
SWIDTH 640 0
DWIDTH 16 0
BBX 16 16 0 -1
BITMAP
0000
0080
2080
1088
17FC
0088
4088
2288
2188
00C8
08A8
1129
6109
2209
2407
0000
ENDCHAR

STARTCHAR 822
ENCODING 42694
SWIDTH 640 0
DWIDTH 16 0
BBX 16 16 0 -1
BITMAP
0000
2000
1808
09FC
4088
3088
1088
00C8
04A8
08A8
7088
110A
110A
120A
1407
0000
ENDCHAR

STARTCHAR 823
ENCODING 42695
SWIDTH 640 0
DWIDTH 16 0
BBX 16 16 0 -1
BITMAP
0000
0200
0202
7FFF
0240
0444
064C
0950
0840
10A0
20A0
4110
0208
0407
1802
0000
ENDCHAR

STARTCHAR 824
ENCODING 42696
SWIDTH 640 0
DWIDTH 16 0
BBX 16 16 0 -1
BITMAP
0000
0100
0100
0210
0408
1FFC
0084
0890
0FF8
1080
0082
7FFF
0080
0080
0080
0000
ENDCHAR

STARTCHAR 825
ENCODING 42697
SWIDTH 640 0
DWIDTH 16 0
BBX 16 16 0 -1
BITMAP
0000
0440
1440
1442
1F46
2448
2450
4460
0740
0C40
3442
0442
0442
043F
0400
0000
ENDCHAR

STARTCHAR 826
ENCODING 42698
SWIDTH 640 0
DWIDTH 16 0
BBX 16 16 0 -1
BITMAP
0000
0004
7FFE
0100
0200
0408
1FFC
1008
1008
1FF8
1008
1008
1008
1FF8
1008
0000
ENDCHAR

STARTCHAR 827
ENCODING 42699
SWIDTH 640 0
DWIDTH 16 0
BBX 16 16 0 -1
BITMAP
0000
0820
0820
0922
1FBF
1448
2448
2488
4408
0408
0408
0408
0408
0438
0410
0000
ENDCHAR

STARTCHAR 828
ENCODING 42700
SWIDTH 640 0
DWIDTH 16 0
BBX 16 16 0 -1
BITMAP
0000
0088
188C
0490
04A0
0082
7FFF
01C0
02A0
0490
0888
1087
6082
0080
0080
0000
ENDCHAR

STARTCHAR 829
ENCODING 42701
SWIDTH 640 0
DWIDTH 16 0
BBX 16 16 0 -1
BITMAP
0000
0100
0100
0220
0420
1C40
0280
0310
0408
3FFC
0084
0490
088C
3084
0180
0000
ENDCHAR

STARTCHAR 830
ENCODING 42702
SWIDTH 640 0
DWIDTH 16 0
BBX 16 16 0 -1
BITMAP
0000
0400
0400
0408
0FFC
1080
2080
0082
7FFF
0080
1084
1084
1084
1FFC
1004
0000
ENDCHAR

STARTCHAR 831
ENCODING 42703
SWIDTH 640 0
DWIDTH 16 0
BBX 16 16 0 -1
BITMAP
0000
0430
0220
0244
3FFE
0080
0088
1FFC
0080
0080
0082
7FFF
0080
0080
0080
0000
ENDCHAR

STARTCHAR 832
ENCODING 42704
SWIDTH 640 0
DWIDTH 16 0
BBX 16 16 0 -1
BITMAP
0000
0202
3F7F
0202
2222
1212
1212
0202
0A0A
1212
6262
0202
0202
1C1C
0808
0000
ENDCHAR

STARTCHAR 833
ENCODING 42705
SWIDTH 640 0
DWIDTH 16 0
BBX 16 16 0 -1
BITMAP
0000
0100
0104
1FEC
0110
0122
7FFF
0080
030C
0530
09C0
1300
6104
0104
00FE
0000
ENDCHAR

STARTCHAR 834
ENCODING 42706
SWIDTH 640 0
DWIDTH 16 0
BBX 16 16 0 -1
BITMAP
0000
0100
0108
0FF0
0120
0142
7FFF
0300
05F8
0900
13F8
6008
0008
0070
0020
0000
ENDCHAR

STARTCHAR 835
ENCODING 42707
SWIDTH 640 0
DWIDTH 16 0
BBX 16 16 0 -1
BITMAP
0000
0002
7FFF
0200
0200
0402
3FFF
2222
2222
2222
2222
2222
2222
222E
2004
0000
ENDCHAR

STARTCHAR 836
ENCODING 42708
SWIDTH 640 0
DWIDTH 16 0
BBX 16 16 0 -1
BITMAP
0000
008C
00F0
3F80
0088
1FFC
0080
0082
7FFF
01C0
02A0
0498
0887
3082
0080
0000
ENDCHAR

STARTCHAR 837
ENCODING 42709
SWIDTH 640 0
DWIDTH 16 0
BBX 16 16 0 -1
BITMAP
0000
0004
3FFE
0410
0410
07F0
0410
0410
07F0
0410
0412
7FFF
0010
0010
0010
0000
ENDCHAR

STARTCHAR 838
ENCODING 42710
SWIDTH 640 0
DWIDTH 16 0
BBX 16 16 0 -1
BITMAP
0000
0080
0084
1FFE
0084
7FFF
0084
1FFC
0080
3FFE
0080
7FFF
0080
0080
0080
0000
ENDCHAR

STARTCHAR 839
ENCODING 42711
SWIDTH 640 0
DWIDTH 16 0
BBX 16 16 0 -1
BITMAP
0000
0080
0080
0082
3FFF
2082
2162
2232
2492
2082
2162
2232
2402
200E
2004
0000
ENDCHAR

STARTCHAR 840
ENCODING 42712
SWIDTH 640 0
DWIDTH 16 0
BBX 16 16 0 -1
BITMAP
0000
0210
1F10
1210
1212
1E7F
1212
1212
1E12
1212
1222
1222
2242
2E9C
4408
0000
ENDCHAR

STARTCHAR 841
ENCODING 42713
SWIDTH 640 0
DWIDTH 16 0
BBX 16 16 0 -1
BITMAP
0000
0200
1F08
127C
1248
1E48
1248
1248
1E48
1248
1248
1249
2249
2E89
4507
0000
ENDCHAR

STARTCHAR 842
ENCODING 42714
SWIDTH 640 0
DWIDTH 16 0
BBX 16 16 0 -1
BITMAP
0000
0008
7FFC
2100
2100
2108
3FFC
2008
2008
3FF8
2108
2100
2104
3FFE
2000
0000
ENDCHAR

STARTCHAR 843
ENCODING 42715
SWIDTH 640 0
DWIDTH 16 0
BBX 16 16 0 -1
BITMAP
0000
0200
0400
0804
1FFE
0804
0804
0FFC
0804
0804
0FFC
0804
0804
0FFC
0804
0000
ENDCHAR

STARTCHAR 844
ENCODING 42716
SWIDTH 640 0
DWIDTH 16 0
BBX 16 16 0 -1
BITMAP
0000
0004
3FFE
0100
0210
0408
1FFC
0084
0080
1FFC
0080
0080
0082
7FFF
0000
0000
ENDCHAR

STARTCHAR 845
ENCODING 42717
SWIDTH 640 0
DWIDTH 16 0
BBX 16 16 0 -1
BITMAP
0000
0100
0380
0C02
703F
2002
2002
2202
3F3E
2002
2002
2002
2002
3FFE
2002
0000
ENDCHAR

STARTCHAR 846
ENCODING 42718
SWIDTH 640 0
DWIDTH 16 0
BBX 16 16 0 -1
BITMAP
0000
0078
1F80
0080
0082
7FFF
0080
0080
0088
1FFC
1008
1008
1008
1FF8
1008
0000
ENDCHAR

STARTCHAR 847
ENCODING 42719
SWIDTH 640 0
DWIDTH 16 0
BBX 16 16 0 -1
BITMAP
0000
0004
0804
0904
0FBF
1124
1124
1124
2A24
467F
0404
0804
1004
6004
0004
0000
ENDCHAR

STARTCHAR 848
ENCODING 42720
SWIDTH 640 0
DWIDTH 16 0
BBX 16 16 0 -1
BITMAP
0000
0100
0210
0FF8
0410
0510
0492
7FFF
0410
0510
0490
0890
0810
1070
2020
0000
ENDCHAR

STARTCHAR 849
ENCODING 42721
SWIDTH 640 0
DWIDTH 16 0
BBX 16 16 0 -1
BITMAP
0000
0008
1FFC
0808
0FF8
0808
0FF8
0800
0A08
0930
08C0
0840
0A30
1C0F
7004
0000
ENDCHAR

STARTCHAR 850
ENCODING 42722
SWIDTH 640 0
DWIDTH 16 0
BBX 16 16 0 -1
BITMAP
0000
0400
0420
0FF0
1040
6088
1FFC
1088
1088
1FF8
1008
1000
1002
1002
0FFF
0000
ENDCHAR

STARTCHAR 851
ENCODING 42723
SWIDTH 640 0
DWIDTH 16 0
BBX 16 16 0 -1
BITMAP
0000
0220
0222
7FFF
0220
0000
0210
0610
1A20
0140
0080
0140
0630
180F
6002
0000
ENDCHAR

STARTCHAR 852
ENCODING 42724
SWIDTH 640 0
DWIDTH 16 0
BBX 16 16 0 -1
BITMAP
0000
0080
0080
0084
1FFE
1084
1084
1084
1FFC
1084
0080
0084
00FE
3F03
1001
0000
ENDCHAR

STARTCHAR 853
ENCODING 42725
SWIDTH 640 0
DWIDTH 16 0
BBX 16 16 0 -1
BITMAP
0000
0200
0200
0400
0808
3FFC
1248
1248
1248
1248
1248
1248
124A
7FFF
0000
0000
ENDCHAR

STARTCHAR 854
ENCODING 42726
SWIDTH 640 0
DWIDTH 16 0
BBX 16 16 0 -1
BITMAP
0000
0804
08FE
1000
2400
0402
09FF
1008
2808
4808
0808
0808
0808
0878
0810
0000
ENDCHAR

STARTCHAR 855
ENCODING 42727
SWIDTH 640 0
DWIDTH 16 0
BBX 16 16 0 -1
BITMAP
0000
0100
0082
7FFF
0100
0288
0490
0C60
1440
2420
4410
0488
0507
0602
1C00
0000
ENDCHAR

STARTCHAR 856
ENCODING 42728
SWIDTH 640 0
DWIDTH 16 0
BBX 16 16 0 -1
BITMAP
0000
0004
7FFE
0240
0240
0244
3FFE
2244
2244
2244
2474
2804
2004
3FFC
2004
0000
ENDCHAR

STARTCHAR 857
ENCODING 42729
SWIDTH 640 0
DWIDTH 16 0
BBX 16 16 0 -1
BITMAP
0000
0004
040E
7EF0
2410
2810
3012
29FF
2410
2410
2410
3410
2810
2010
2010
0000
ENDCHAR

STARTCHAR 858
ENCODING 42730
SWIDTH 640 0
DWIDTH 16 0
BBX 16 16 0 -1
BITMAP
0000
0080
0088
1FFC
1088
1FF8
1088
0082
3FFF
2082
2082
3FFE
2082
0080
0080
0000
ENDCHAR

STARTCHAR 859
ENCODING 42731
SWIDTH 640 0
DWIDTH 16 0
BBX 16 16 0 -1
BITMAP
0000
0084
3FFE
0000
0FF8
0808
0FF8
0000
1FF8
0020
01C0
0080
0080
0380
0100
0000
ENDCHAR

STARTCHAR 860
ENCODING 42732
SWIDTH 640 0
DWIDTH 16 0
BBX 16 16 0 -1
BITMAP
0000
0440
0420
0824
0BFE
1000
2904
4884
0888
0898
0810
0822
0BFF
0800
0800
0000
ENDCHAR

STARTCHAR 861
ENCODING 42733
SWIDTH 640 0
DWIDTH 16 0
BBX 16 16 0 -1
BITMAP
0000
0440
0420
0422
09FF
1020
2820
4824
09FE
0820
0820
0820
0822
0BFF
0800
0000
ENDCHAR

STARTCHAR 862
ENCODING 42734
SWIDTH 640 0
DWIDTH 16 0
BBX 16 16 0 -1
BITMAP
0000
0820
0820
13FF
2201
5202
1008
13FE
1020
1020
1020
1020
1020
11E0
1040
0000
ENDCHAR

STARTCHAR 863
ENCODING 42735
SWIDTH 640 0
DWIDTH 16 0
BBX 16 16 0 -1
BITMAP
0000
0420
0422
0BFF
0A02
1204
2880
4884
0888
0890
08E0
0882
0882
0882
087F
0000
ENDCHAR

STARTCHAR 864
ENCODING 42736
SWIDTH 640 0
DWIDTH 16 0
BBX 16 16 0 -1
BITMAP
0000
0408
05FC
0800
0BFE
1040
2842
4FFF
0888
0908
0890
0860
0850
088C
0904
0000
ENDCHAR

STARTCHAR 865
ENCODING 42737
SWIDTH 640 0
DWIDTH 16 0
BBX 16 16 0 -1
BITMAP
0000
0420
0524
04A4
08A8
1020
19FC
2820
4822
0BFF
0820
0820
0820
0820
0820
0000
ENDCHAR

STARTCHAR 866
ENCODING 42738
SWIDTH 640 0
DWIDTH 16 0
BBX 16 16 0 -1
BITMAP
0000
0890
0894
13FE
1094
2094
53FC
1290
1292
17FF
1092
1112
1116
1214
1410
0000
ENDCHAR

STARTCHAR 867
ENCODING 42739
SWIDTH 640 0
DWIDTH 16 0
BBX 16 16 0 -1
BITMAP
0000
0800
0802
0BFF
1004
3024
53F4
1224
1224
1224
13E4
1224
1004
101C
1008
0000
ENDCHAR

STARTCHAR 868
ENCODING 42740
SWIDTH 640 0
DWIDTH 16 0
BBX 16 16 0 -1
BITMAP
0000
0420
0420
0822
0BFF
1020
2820
4824
09FE
0904
0904
0904
0904
09FC
0904
0000
ENDCHAR

STARTCHAR 869
ENCODING 42741
SWIDTH 640 0
DWIDTH 16 0
BBX 16 16 0 -1
BITMAP
0000
0440
0442
0BFF
0840
1840
2880
4884
08FE
0910
0A10
0C10
0812
0BFF
0800
0000
ENDCHAR

STARTCHAR 870
ENCODING 42742
SWIDTH 640 0
DWIDTH 16 0
BBX 16 16 0 -1
BITMAP
0000
0440
0440
0842
0BFF
1080
2880
4904
09FE
0A84
0C84
0884
0884
08FC
0884
0000
ENDCHAR

STARTCHAR 871
ENCODING 42743
SWIDTH 640 0
DWIDTH 16 0
BBX 16 16 0 -1
BITMAP
0000
1200
1200
2200
2242
4FFF
2252
2252
2252
2252
2252
2452
245E
29D2
2080
0000
ENDCHAR

STARTCHAR 872
ENCODING 42744
SWIDTH 640 0
DWIDTH 16 0
BBX 16 16 0 -1
BITMAP
0000
0402
05FF
0802
0812
11FA
2802
49FA
0912
0912
09F2
0912
0802
080E
0804
0000
ENDCHAR

STARTCHAR 873
ENCODING 42745
SWIDTH 640 0
DWIDTH 16 0
BBX 16 16 0 -1
BITMAP
0000
0420
0420
0422
0BFF
1A22
2A22
4BFE
0A22
0A22
0BFE
0A22
0820
0820
0820
0000
ENDCHAR

STARTCHAR 874
ENCODING 42746
SWIDTH 640 0
DWIDTH 16 0
BBX 16 16 0 -1
BITMAP
0000
0800
0800
0802
13FF
1222
2222
5222
13FE
1222
1222
1222
13FE
1202
1000
0000
ENDCHAR

STARTCHAR 875
ENCODING 42747
SWIDTH 640 0
DWIDTH 16 0
BBX 16 16 0 -1
BITMAP
0000
0420
0420
0824
083E
1020
2820
4822
09FF
0902
0902
0902
0902
09FE
0902
0000
ENDCHAR

STARTCHAR 876
ENCODING 42748
SWIDTH 640 0
DWIDTH 16 0
BBX 16 16 0 -1
BITMAP
0000
0400
0404
0844
0924
1124
3124
5104
1104
1144
118C
110A
1611
1021
1040
0000
ENDCHAR

STARTCHAR 877
ENCODING 42749
SWIDTH 640 0
DWIDTH 16 0
BBX 16 16 0 -1
BITMAP
0000
0800
0804
09FE
1104
2104
51FC
1104
1104
11FC
1104
1000
1002
17FF
1000
0000
ENDCHAR

STARTCHAR 878
ENCODING 42750
SWIDTH 640 0
DWIDTH 16 0
BBX 16 16 0 -1
BITMAP
0000
0800
0802
13FF
2222
5222
13FE
1222
1222
13FE
1222
1222
1222
1422
1806
0000
ENDCHAR

STARTCHAR 879
ENCODING 42816
SWIDTH 640 0
DWIDTH 16 0
BBX 16 16 0 -1
BITMAP
0000
0480
0482
08FF
0920
1120
2A24
483E
0820
0820
0822
083F
0820
0820
0820
0000
ENDCHAR

STARTCHAR 880
ENCODING 42817
SWIDTH 640 0
DWIDTH 16 0
BBX 16 16 0 -1
BITMAP
0000
0880
0882
11FF
1102
2224
5420
1020
1128
1124
1122
1222
1022
10E0
1040
0000
ENDCHAR

STARTCHAR 881
ENCODING 42818
SWIDTH 640 0
DWIDTH 16 0
BBX 16 16 0 -1
BITMAP
0000
0440
0440
0882
09FF
1282
2882
4882
08FE
0882
0882
0882
0882
08FE
0882
0000
ENDCHAR

STARTCHAR 882
ENCODING 42819
SWIDTH 640 0
DWIDTH 16 0
BBX 16 16 0 -1
BITMAP
0000
0804
081E
0BE0
1220
2220
5224
13FE
1220
1220
1210
1292
130A
1606
12F3
0000
ENDCHAR

STARTCHAR 883
ENCODING 42820
SWIDTH 640 0
DWIDTH 16 0
BBX 16 16 0 -1
BITMAP
0000
0420
0450
0850
0888
1144
2A27
4C22
0800
09FC
0804
0848
0830
0820
0820
0000
ENDCHAR

STARTCHAR 884
ENCODING 42821
SWIDTH 640 0
DWIDTH 16 0
BBX 16 16 0 -1
BITMAP
0000
0080
0140
0220
0410
0808
17F7
6082
0088
1FFC
0080
0890
108C
2384
0100
0000
ENDCHAR

STARTCHAR 885
ENCODING 42822
SWIDTH 640 0
DWIDTH 16 0
BBX 16 16 0 -1
BITMAP
0000
0480
0482
09FF
0902
1212
2DFA
4912
0912
0912
09F2
0912
0802
081C
0808
0000
ENDCHAR

STARTCHAR 886
ENCODING 42823
SWIDTH 640 0
DWIDTH 16 0
BBX 16 16 0 -1
BITMAP
0000
0840
0842
0BFF
1080
20A0
5122
13FF
1522
1922
1122
1122
112E
1124
1020
0000
ENDCHAR

STARTCHAR 887
ENCODING 42824
SWIDTH 640 0
DWIDTH 16 0
BBX 16 16 0 -1
BITMAP
0000
0820
0920
1124
11FE
2120
5220
1022
13FF
1020
1050
1048
1084
1103
1202
0000
ENDCHAR

STARTCHAR 888
ENCODING 42825
SWIDTH 640 0
DWIDTH 16 0
BBX 16 16 0 -1
BITMAP
0000
0460
0810
1008
6017
1FF8
1010
1010
1FF0
1290
0480
0482
0882
1082
607F
0000
ENDCHAR

STARTCHAR 889
ENCODING 42826
SWIDTH 640 0
DWIDTH 16 0
BBX 16 16 0 -1
BITMAP
0000
0100
0104
7FFE
0100
0110
1FF8
1010
1010
1FF0
1290
0280
0482
1882
607F
0000
ENDCHAR

STARTCHAR 890
ENCODING 42827
SWIDTH 640 0
DWIDTH 16 0
BBX 16 16 0 -1
BITMAP
0000
0820
0FF0
1040
2088
5FFC
1108
1108
1FF8
1288
0280
0480
0882
1082
607F
0000
ENDCHAR

STARTCHAR 891
ENCODING 42828
SWIDTH 640 0
DWIDTH 16 0
BBX 16 16 0 -1
BITMAP
0000
0010
0078
0F80
0408
07FC
0420
0420
0422
7FFF
0000
0420
0C18
100C
2004
0000
ENDCHAR

STARTCHAR 892
ENCODING 42829
SWIDTH 640 0
DWIDTH 16 0
BBX 16 16 0 -1
BITMAP
0000
0020
2020
1840
0884
0102
03FF
0801
1004
71FE
1104
1104
1104
11FC
1104
0000
ENDCHAR

STARTCHAR 893
ENCODING 42830
SWIDTH 640 0
DWIDTH 16 0
BBX 16 16 0 -1
BITMAP
0000
00C0
40A0
3110
1208
0487
0842
0048
0BFC
1010
6020
2140
2080
2060
0020
0000
ENDCHAR

STARTCHAR 894
ENCODING 42831
SWIDTH 640 0
DWIDTH 16 0
BBX 16 16 0 -1
BITMAP
0000
0082
1FC2
1092
1092
1F92
0412
0492
3FD2
0492
0892
0892
1082
270E
4204
0000
ENDCHAR

STARTCHAR 895
ENCODING 42832
SWIDTH 640 0
DWIDTH 16 0
BBX 16 16 0 -1
BITMAP
0000
0202
2222
1A62
0A82
0212
3FD2
0212
0212
7FD2
0212
0412
0402
080E
1004
0000
ENDCHAR

STARTCHAR 896
ENCODING 42833
SWIDTH 640 0
DWIDTH 16 0
BBX 16 16 0 -1
BITMAP
0000
0081
03C1
3E01
0209
0249
7FE9
0609
0709
0A89
0A49
1249
2201
0207
0202
0000
ENDCHAR

STARTCHAR 897
ENCODING 42834
SWIDTH 640 0
DWIDTH 16 0
BBX 16 16 0 -1
BITMAP
0000
0441
1DE1
1549
1549
1549
1549
3FE9
1549
1549
1549
1549
2541
2EC7
4442
0000
ENDCHAR

STARTCHAR 898
ENCODING 42835
SWIDTH 640 0
DWIDTH 16 0
BBX 16 16 0 -1
BITMAP
0000
1001
1041
1FE9
2049
4249
1F49
1249
1249
1E49
12C9
1081
1021
1027
0FE2
0000
ENDCHAR

STARTCHAR 899
ENCODING 42836
SWIDTH 640 0
DWIDTH 16 0
BBX 16 16 0 -1
BITMAP
0000
0810
0A10
3F10
0812
087F
0912
7F92
0812
0A12
1122
7F22
2142
009C
0108
0000
ENDCHAR

STARTCHAR 900
ENCODING 42837
SWIDTH 640 0
DWIDTH 16 0
BBX 16 16 0 -1
BITMAP
0000
0110
1F90
1112
117F
1F12
1112
1112
1F12
1122
1122
17A2
7842
209C
0108
0000
ENDCHAR

STARTCHAR 901
ENCODING 42838
SWIDTH 640 0
DWIDTH 16 0
BBX 16 16 0 -1
BITMAP
0000
0402
7FBF
0902
3124
0A18
0614
1923
2000
0084
1FFE
0104
0204
0C38
3010
0000
ENDCHAR

STARTCHAR 902
ENCODING 42839
SWIDTH 640 0
DWIDTH 16 0
BBX 16 16 0 -1
BITMAP
0000
1010
1110
3F90
4112
017F
3D12
2512
2512
3D12
2522
0122
0142
0E5C
0488
0000
ENDCHAR

STARTCHAR 903
ENCODING 42840
SWIDTH 640 0
DWIDTH 16 0
BBX 16 16 0 -1
BITMAP
0000
0004
7FFE
4000
4008
4FFC
4888
4FF8
4888
4FF8
4888
4080
4082
7FFF
4000
0000
ENDCHAR

STARTCHAR 904
ENCODING 42841
SWIDTH 640 0
DWIDTH 16 0
BBX 16 16 0 -1
BITMAP
0000
0100
7F82
217F
3F22
2122
3F22
2022
242A
2226
2524
2920
7020
0020
0020
0000
ENDCHAR

STARTCHAR 905
ENCODING 42842
SWIDTH 640 0
DWIDTH 16 0
BBX 16 16 0 -1
BITMAP
0000
0E02
707F
2242
3252
2A4A
2A4A
2242
2652
3A4C
6248
0440
0440
0840
0040
0000
ENDCHAR

STARTCHAR 906
ENCODING 42843
SWIDTH 640 0
DWIDTH 16 0
BBX 16 16 0 -1
BITMAP
0000
0080
3FFE
0420
0240
0180
0160
0618
1807
6012
0FF8
0810
0810
0FF0
0810
0000
ENDCHAR

STARTCHAR 907
ENCODING 42844
SWIDTH 640 0
DWIDTH 16 0
BBX 16 16 0 -1
BITMAP
0000
0040
0022
05FF
7E00
4408
44FC
4488
4488
7C88
4488
0109
0109
0209
0407
0000
ENDCHAR

STARTCHAR 908
ENCODING 42845
SWIDTH 640 0
DWIDTH 16 0
BBX 16 16 0 -1
BITMAP
0000
0010
00F8
3F00
0100
0102
7FFF
0420
0818
3007
4FF2
0810
0810
0FF0
0810
0000
ENDCHAR

STARTCHAR 909
ENCODING 42846
SWIDTH 640 0
DWIDTH 16 0
BBX 16 16 0 -1
BITMAP
0000
0004
3FFE
0200
0210
1FF8
0410
0412
7FFF
0000
0FF8
0808
0808
0FF8
0808
0000
ENDCHAR

STARTCHAR 910
ENCODING 42847
SWIDTH 640 0
DWIDTH 16 0
BBX 16 16 0 -1
BITMAP
0000
0002
7FFF
0040
0180
02B0
048C
1883
6089
0FFC
0808
0808
0808
0FF8
0808
0000
ENDCHAR

STARTCHAR 911
ENCODING 42848
SWIDTH 640 0
DWIDTH 16 0
BBX 16 16 0 -1
BITMAP
0000
0004
09FE
7D04
4904
4904
49FC
4904
4940
7920
4920
0210
0208
0407
0802
0000
ENDCHAR

STARTCHAR 912
ENCODING 42849
SWIDTH 640 0
DWIDTH 16 0
BBX 16 16 0 -1
BITMAP
0000
0004
09FE
7D24
4924
4924
4924
4924
49FC
7904
4900
0100
0102
0102
00FF
0000
ENDCHAR

STARTCHAR 913
ENCODING 42850
SWIDTH 640 0
DWIDTH 16 0
BBX 16 16 0 -1
BITMAP
0000
0008
0FFC
0808
0808
0FF8
0888
0082
7FFF
01C0
02A0
0498
1887
6082
0080
0000
ENDCHAR

STARTCHAR 914
ENCODING 42851
SWIDTH 640 0
DWIDTH 16 0
BBX 16 16 0 -1
BITMAP
0000
0002
01FF
0900
7D02
497F
4922
4922
4922
792E
4924
0120
0221
0221
041F
0000
ENDCHAR

STARTCHAR 915
ENCODING 42852
SWIDTH 640 0
DWIDTH 16 0
BBX 16 16 0 -1
BITMAP
0000
0010
07F8
0410
1410
17F0
1008
1FFC
0108
010A
7FFF
0140
0220
0C18
7006
0000
ENDCHAR

STARTCHAR 916
ENCODING 42853
SWIDTH 640 0
DWIDTH 16 0
BBX 16 16 0 -1
BITMAP
0000
0008
0FFC
0808
0808
0FF8
080C
0070
0F80
0088
1FFC
0080
0082
3FFF
0000
0000
ENDCHAR

STARTCHAR 917
ENCODING 42854
SWIDTH 640 0
DWIDTH 16 0
BBX 16 16 0 -1
BITMAP
0000
0008
1FFC
1008
1008
1FF8
1108
0200
0404
3FFE
2004
2004
2004
3FFC
2004
0000
ENDCHAR

STARTCHAR 918
ENCODING 42855
SWIDTH 640 0
DWIDTH 16 0
BBX 16 16 0 -1
BITMAP
0000
0008
1FFC
0108
7FFF
0108
1FF8
0200
0408
0FFC
1408
2408
4408
07F8
0408
0000
ENDCHAR

STARTCHAR 919
ENCODING 42856
SWIDTH 640 0
DWIDTH 16 0
BBX 16 16 0 -1
BITMAP
0000
0010
0050
0048
0848
7C84
4883
4902
4AFC
4844
7844
4884
0084
0138
0210
0000
ENDCHAR

STARTCHAR 920
ENCODING 42857
SWIDTH 640 0
DWIDTH 16 0
BBX 16 16 0 -1
BITMAP
0000
0080
0880
0888
1FFC
2080
0082
7FFF
0000
0008
0FFC
0808
0808
0FF8
0808
0000
ENDCHAR

STARTCHAR 921
ENCODING 42858
SWIDTH 640 0
DWIDTH 16 0
BBX 16 16 0 -1
BITMAP
0000
0040
0040
0842
7CFF
4882
4924
4928
4A20
7820
4850
0048
0084
0303
0C02
0000
ENDCHAR

STARTCHAR 922
ENCODING 42859
SWIDTH 640 0
DWIDTH 16 0
BBX 16 16 0 -1
BITMAP
0000
0080
0882
7CFF
4952
4A52
4852
4892
4892
7922
4A22
0042
0082
011C
0008
0000
ENDCHAR

STARTCHAR 923
ENCODING 42860
SWIDTH 640 0
DWIDTH 16 0
BBX 16 16 0 -1
BITMAP
0000
0008
09FC
7C88
4888
4890
48BC
4884
4944
7928
4A10
0228
0444
0887
0102
0000
ENDCHAR

STARTCHAR 924
ENCODING 42861
SWIDTH 640 0
DWIDTH 16 0
BBX 16 16 0 -1
BITMAP
0000
0010
0010
0420
7E44
4482
45FF
4449
4448
7C48
4488
0089
0109
0209
0407
0000
ENDCHAR

STARTCHAR 925
ENCODING 42862
SWIDTH 640 0
DWIDTH 16 0
BBX 16 16 0 -1
BITMAP
0000
0020
0020
0820
7C20
48A4
48A2
4921
4925
4A24
7824
4808
0010
0060
0380
0000
ENDCHAR

STARTCHAR 926
ENCODING 42863
SWIDTH 640 0
DWIDTH 16 0
BBX 16 16 0 -1
BITMAP
0000
0020
0020
0822
7DFF
4922
4922
4922
4952
494A
798A
4902
0102
010E
0104
0000
ENDCHAR

STARTCHAR 927
ENCODING 42864
SWIDTH 640 0
DWIDTH 16 0
BBX 16 16 0 -1
BITMAP
0000
0020
0028
0824
7C20
4822
4BFF
4860
4850
7890
4888
0108
0104
0203
0402
0000
ENDCHAR

STARTCHAR 928
ENCODING 42865
SWIDTH 640 0
DWIDTH 16 0
BBX 16 16 0 -1
BITMAP
0000
0048
03E8
0848
7C88
4908
4888
48A8
48C8
4B88
7889
4889
0089
0387
0100
0000
ENDCHAR

STARTCHAR 929
ENCODING 42866
SWIDTH 640 0
DWIDTH 16 0
BBX 16 16 0 -1
BITMAP
0000
0002
01FF
0408
7E48
4448
448A
45FF
4408
7C18
4428
00C8
0708
0038
0010
0000
ENDCHAR

STARTCHAR 930
ENCODING 42867
SWIDTH 640 0
DWIDTH 16 0
BBX 16 16 0 -1
BITMAP
0000
0020
0020
0822
7DFF
4820
4824
49FE
4808
4890
7860
4860
0098
0307
0C02
0000
ENDCHAR

STARTCHAR 931
ENCODING 42868
SWIDTH 640 0
DWIDTH 16 0
BBX 16 16 0 -1
BITMAP
0000
01C0
0220
0410
0908
1087
6092
07F8
0020
0048
0FFC
0808
0808
0FF8
0808
0000
ENDCHAR

STARTCHAR 932
ENCODING 42869
SWIDTH 640 0
DWIDTH 16 0
BBX 16 16 0 -1
BITMAP
0000
0020
0020
0450
7E50
4488
4547
4622
4404
45FE
7C08
4408
0010
0020
0040
0000
ENDCHAR

STARTCHAR 933
ENCODING 42870
SWIDTH 640 0
DWIDTH 16 0
BBX 16 16 0 -1
BITMAP
0000
0004
000E
09F0
7C80
4882
48FF
4888
4888
7888
4908
0108
0208
0408
0008
0000
ENDCHAR

STARTCHAR 934
ENCODING 42871
SWIDTH 640 0
DWIDTH 16 0
BBX 16 16 0 -1
BITMAP
0000
0800
0800
1004
3FFE
5084
1484
1324
1324
14C4
18C4
1124
1224
1FFC
1004
0000
ENDCHAR

STARTCHAR 935
ENCODING 42872
SWIDTH 640 0
DWIDTH 16 0
BBX 16 16 0 -1
BITMAP
0000
0002
3FFF
2082
2082
2FFA
2082
2182
21C2
22A2
249A
288A
2082
3FFE
2002
0000
ENDCHAR

STARTCHAR 936
ENCODING 42873
SWIDTH 640 0
DWIDTH 16 0
BBX 16 16 0 -1
BITMAP
0000
0002
3FFF
2082
2092
2FFA
2082
2492
2492
27F2
2082
207A
2002
3FFE
2002
0000
ENDCHAR

STARTCHAR 937
ENCODING 42874
SWIDTH 640 0
DWIDTH 16 0
BBX 16 16 0 -1
BITMAP
0000
0002
3FFF
2402
27FA
2A4A
2A4A
324A
244A
248A
288A
313A
2212
3FFE
2002
0000
ENDCHAR

STARTCHAR 938
ENCODING 42875
SWIDTH 640 0
DWIDTH 16 0
BBX 16 16 0 -1
BITMAP
0000
0840
0820
0802
09FF
7E40
0844
087E
0844
0E44
7844
2084
00A4
0118
0210
0000
ENDCHAR

STARTCHAR 939
ENCODING 42876
SWIDTH 640 0
DWIDTH 16 0
BBX 16 16 0 -1
BITMAP
0000
0840
0822
09FF
0800
7E08
08FC
0888
0888
0E88
7888
2088
0109
0109
0207
0000
ENDCHAR

STARTCHAR 940
ENCODING 42877
SWIDTH 640 0
DWIDTH 16 0
BBX 16 16 0 -1
BITMAP
0000
0020
1020
1020
1120
7D24
113E
1120
1120
1520
1920
7120
4122
0FFF
0000
0000
ENDCHAR

STARTCHAR 941
ENCODING 42878
SWIDTH 640 0
DWIDTH 16 0
BBX 16 16 0 -1
BITMAP
0000
1004
10FE
1084
10A4
7C94
1094
13FF
1084
1084
1C84
7104
2104
021C
0408
0000
ENDCHAR

STARTCHAR 942
ENCODING 42913
SWIDTH 640 0
DWIDTH 16 0
BBX 16 16 0 -1
BITMAP
0000
0840
0842
087F
0882
7E82
0962
0812
0802
0812
0EE2
7842
2002
001C
0008
0000
ENDCHAR

STARTCHAR 943
ENCODING 42914
SWIDTH 640 0
DWIDTH 16 0
BBX 16 16 0 -1
BITMAP
0000
0840
0842
087F
7E82
08A4
0920
0820
0820
0850
0E50
7088
2104
0207
0402
0000
ENDCHAR

STARTCHAR 944
ENCODING 42915
SWIDTH 640 0
DWIDTH 16 0
BBX 16 16 0 -1
BITMAP
0000
0804
09FE
0884
0888
7E8A
089F
0882
08C4
0F24
7928
2110
0228
0247
0482
0000
ENDCHAR

STARTCHAR 945
ENCODING 42916
SWIDTH 640 0
DWIDTH 16 0
BBX 16 16 0 -1
BITMAP
0000
0080
0488
0488
0C98
0A94
12A2
20C2
0088
0FFC
0080
0080
0082
7FFF
0000
0000
ENDCHAR

STARTCHAR 946
ENCODING 42917
SWIDTH 640 0
DWIDTH 16 0
BBX 16 16 0 -1
BITMAP
0000
1002
13FF
1010
1020
7C40
10A0
1124
1222
1021
1C21
7020
2020
0020
0020
0000
ENDCHAR

STARTCHAR 947
ENCODING 42918
SWIDTH 640 0
DWIDTH 16 0
BBX 16 16 0 -1
BITMAP
0000
080E
09F0
0880
0880
7E82
08FF
0888
0888
0E88
7888
0108
0108
0208
0408
0000
ENDCHAR

STARTCHAR 948
ENCODING 42919
SWIDTH 640 0
DWIDTH 16 0
BBX 16 16 0 -1
BITMAP
0000
0420
2420
2420
2420
3C20
0422
05FF
7C20
2420
2420
2420
2424
45FE
0400
0000
ENDCHAR

STARTCHAR 949
ENCODING 42920
SWIDTH 640 0
DWIDTH 16 0
BBX 16 16 0 -1
BITMAP
0000
0080
0084
3FFE
0080
0888
0888
1494
62A3
0080
0140
0220
0418
1807
6002
0000
ENDCHAR

STARTCHAR 950
ENCODING 42921
SWIDTH 640 0
DWIDTH 16 0
BBX 16 16 0 -1
BITMAP
0000
0420
2420
2420
2422
3DFF
0444
0444
7C88
2448
2430
2428
2444
4482
0502
0000
ENDCHAR

STARTCHAR 951
ENCODING 42922
SWIDTH 640 0
DWIDTH 16 0
BBX 16 16 0 -1
BITMAP
0000
0806
0818
08E0
7E42
127F
1242
1242
227E
1442
0840
1480
2280
4100
0200
0000
ENDCHAR

STARTCHAR 952
ENCODING 42923
SWIDTH 640 0
DWIDTH 16 0
BBX 16 16 0 -1
BITMAP
0000
0820
0810
0802
7EFF
1240
1244
127E
2244
1444
0844
1484
2484
4138
0210
0000
ENDCHAR

STARTCHAR 953
ENCODING 42924
SWIDTH 640 0
DWIDTH 16 0
BBX 16 16 0 -1
BITMAP
0000
0800
0804
08FE
0824
7E24
1224
1224
12FC
2224
1424
0824
1424
25FF
4000
0000
ENDCHAR

STARTCHAR 954
ENCODING 42925
SWIDTH 640 0
DWIDTH 16 0
BBX 16 16 0 -1
BITMAP
0000
0890
0890
0890
0892
7E96
12F8
1290
1290
2290
1490
0892
14B2
24D2
418F
0000
ENDCHAR

STARTCHAR 955
ENCODING 42926
SWIDTH 640 0
DWIDTH 16 0
BBX 16 16 0 -1
BITMAP
0000
1010
1010
1210
7F54
1252
1253
1251
2290
1494
0804
1408
2210
4060
0180
0000
ENDCHAR

STARTCHAR 956
ENCODING 42927
SWIDTH 640 0
DWIDTH 16 0
BBX 16 16 0 -1
BITMAP
0000
0804
080E
08F0
7E10
1210
1212
13FF
2210
1428
0828
1444
2284
4103
0202
0000
ENDCHAR

STARTCHAR 957
ENCODING 42928
SWIDTH 640 0
DWIDTH 16 0
BBX 16 16 0 -1
BITMAP
0000
0804
09FE
0848
7E48
1248
124A
13FF
2248
1448
0848
1448
2288
4088
0108
0000
ENDCHAR

STARTCHAR 958
ENCODING 42929
SWIDTH 640 0
DWIDTH 16 0
BBX 16 16 0 -1
BITMAP
0000
0804
08FE
0804
0828
7E10
12FF
1211
1212
2210
1410
0810
1410
2270
4020
0000
ENDCHAR

STARTCHAR 959
ENCODING 42930
SWIDTH 640 0
DWIDTH 16 0
BBX 16 16 0 -1
BITMAP
0000
0810
0812
09FF
7E10
1214
127E
1204
2244
1448
0828
1410
2228
40C7
0102
0000
ENDCHAR

STARTCHAR 960
ENCODING 42931
SWIDTH 640 0
DWIDTH 16 0
BBX 16 16 0 -1
BITMAP
0000
0000
1004
100E
10F0
7E10
1210
1212
12FF
2210
1410
0810
1414
22FE
4200
0000
ENDCHAR

STARTCHAR 961
ENCODING 42932
SWIDTH 640 0
DWIDTH 16 0
BBX 16 16 0 -1
BITMAP
0000
003C
1FC0
010C
0888
0490
0420
0108
7FFF
0210
0C20
0340
00C0
0730
380C
0000
ENDCHAR

STARTCHAR 962
ENCODING 42933
SWIDTH 640 0
DWIDTH 16 0
BBX 16 16 0 -1
BITMAP
0000
0080
0084
0FF8
0090
00A2
7FFF
0100
07F0
0844
1FFE
2040
4040
01C0
0080
0000
ENDCHAR

STARTCHAR 963
ENCODING 42934
SWIDTH 640 0
DWIDTH 16 0
BBX 16 16 0 -1
BITMAP
0000
0220
3F20
0222
147F
0844
0A44
0CC4
7924
2828
0810
0828
0844
3887
1102
0000
ENDCHAR

STARTCHAR 964
ENCODING 42935
SWIDTH 640 0
DWIDTH 16 0
BBX 16 16 0 -1
BITMAP
0000
003C
1FC0
0008
0888
0490
0FF8
0020
00C2
7FFF
0040
0040
0040
03C0
0080
0000
ENDCHAR

STARTCHAR 965
ENCODING 42936
SWIDTH 640 0
DWIDTH 16 0
BBX 16 16 0 -1
BITMAP
0000
0080
0084
3FFE
0080
3FFF
2002
4FF4
0040
0184
3FFE
0080
0080
0380
0100
0000
ENDCHAR

STARTCHAR 966
ENCODING 42937
SWIDTH 640 0
DWIDTH 16 0
BBX 16 16 0 -1
BITMAP
0000
0100
0082
3FFF
2002
4024
0FF0
0004
3FFE
0240
0240
0440
0842
1042
203F
0000
ENDCHAR

STARTCHAR 967
ENCODING 42938
SWIDTH 640 0
DWIDTH 16 0
BBX 16 16 0 -1
BITMAP
0000
0100
0082
3FFF
2002
4084
0080
3FFE
01C0
02A0
0490
188C
6083
0080
0080
0000
ENDCHAR

STARTCHAR 968
ENCODING 42939
SWIDTH 640 0
DWIDTH 16 0
BBX 16 16 0 -1
BITMAP
0000
0100
0084
3FFE
2004
4108
0102
7FFF
0200
0480
0480
0910
1208
27FC
4004
0000
ENDCHAR

STARTCHAR 969
ENCODING 42940
SWIDTH 640 0
DWIDTH 16 0
BBX 16 16 0 -1
BITMAP
0000
1010
1010
1228
7F44
1082
1529
1428
1428
1448
1448
1489
2401
23FF
4000
0000
ENDCHAR

STARTCHAR 970
ENCODING 42941
SWIDTH 640 0
DWIDTH 16 0
BBX 16 16 0 -1
BITMAP
0000
0008
1FFC
1008
1FF8
1002
1FFF
1002
17E2
1422
1422
27E2
2422
400E
0004
0000
ENDCHAR

STARTCHAR 971
ENCODING 42942
SWIDTH 640 0
DWIDTH 16 0
BBX 16 16 0 -1
BITMAP
0000
0004
1FFE
1004
1004
1FFC
1420
1420
1526
17B8
1420
1422
24A2
2722
4C1F
0000
ENDCHAR

STARTCHAR 972
ENCODING 42943
SWIDTH 640 0
DWIDTH 16 0
BBX 16 16 0 -1
BITMAP
0000
0004
1FFE
1004
1004
1FFC
1040
1046
1764
1158
1248
2447
2842
41C0
0080
0000
ENDCHAR

STARTCHAR 973
ENCODING 42944
SWIDTH 640 0
DWIDTH 16 0
BBX 16 16 0 -1
BITMAP
0000
0004
1FFE
1004
1FFC
1030
17C0
1080
10FC
1780
1080
20FE
2F80
4081
007F
0000
ENDCHAR

STARTCHAR 974
ENCODING 42945
SWIDTH 640 0
DWIDTH 16 0
BBX 16 16 0 -1
BITMAP
0000
0020
1020
1024
11FE
5420
5424
55FE
5404
5488
5450
7C20
4458
0087
0302
0000
ENDCHAR

STARTCHAR 975
ENCODING 42946
SWIDTH 640 0
DWIDTH 16 0
BBX 16 16 0 -1
BITMAP
0000
0080
1084
1084
1FFC
1084
0360
0518
1887
6082
0FF0
0010
0020
00C0
0100
0000
ENDCHAR

STARTCHAR 976
ENCODING 42947
SWIDTH 640 0
DWIDTH 16 0
BBX 16 16 0 -1
BITMAP
0000
02E0
0410
0808
17F7
6112
0210
0C70
3020
0080
1084
1084
1084
1FFC
1004
0000
ENDCHAR

STARTCHAR 977
ENCODING 42948
SWIDTH 640 0
DWIDTH 16 0
BBX 16 16 0 -1
BITMAP
0000
0080
0888
0888
0FF8
0000
1FF8
0410
0478
0608
0910
08E0
10A0
2318
4C07
0000
ENDCHAR

STARTCHAR 978
ENCODING 42949
SWIDTH 640 0
DWIDTH 16 0
BBX 16 16 0 -1
BITMAP
0000
0004
3FFE
0080
0888
0888
0888
1494
1494
22A2
42C2
0080
0082
7FFF
0000
0000
ENDCHAR

STARTCHAR 979
ENCODING 42950
SWIDTH 640 0
DWIDTH 16 0
BBX 16 16 0 -1
BITMAP
0000
0738
00C0
0330
1C08
0102
7FFF
0240
0444
1FFE
6444
0444
045C
0448
0040
0000
ENDCHAR

STARTCHAR 980
ENCODING 42951
SWIDTH 640 0
DWIDTH 16 0
BBX 16 16 0 -1
BITMAP
0000
0080
1FFE
1000
1010
17F8
1020
10C2
1FFF
1042
1044
1040
2040
21C0
4080
0000
ENDCHAR

STARTCHAR 981
ENCODING 42952
SWIDTH 640 0
DWIDTH 16 0
BBX 16 16 0 -1
BITMAP
0000
0080
0042
1FFF
1000
1220
1220
1222
13A6
1238
1220
1222
22A2
2322
4E1F
0000
ENDCHAR

STARTCHAR 982
ENCODING 42953
SWIDTH 640 0
DWIDTH 16 0
BBX 16 16 0 -1
BITMAP
0000
0080
0042
1FFF
1040
1044
17FE
10E0
10D0
1148
1244
2447
2842
4040
0040
0000
ENDCHAR

STARTCHAR 983
ENCODING 42954
SWIDTH 640 0
DWIDTH 16 0
BBX 16 16 0 -1
BITMAP
0000
0008
001C
7DE0
0420
0820
1024
3DFE
0420
0420
2420
19FC
1800
2600
41FF
0000
ENDCHAR

STARTCHAR 984
ENCODING 42955
SWIDTH 640 0
DWIDTH 16 0
BBX 16 16 0 -1
BITMAP
0000
0004
1FFE
0080
0FF8
0082
3FFF
0210
0212
7FFF
0210
0410
0410
0810
1010
0000
ENDCHAR

STARTCHAR 985
ENCODING 42956
SWIDTH 640 0
DWIDTH 16 0
BBX 16 16 0 -1
BITMAP
0000
0430
0244
1FFE
0084
0FFC
0880
0882
1FFF
0182
0282
0492
088C
3088
0080
0000
ENDCHAR

STARTCHAR 986
ENCODING 42957
SWIDTH 640 0
DWIDTH 16 0
BBX 16 16 0 -1
BITMAP
0000
0104
1F84
1108
1910
1526
1504
1108
7FD0
1102
1106
1104
2108
2710
4220
0000
ENDCHAR

STARTCHAR 987
ENCODING 42958
SWIDTH 640 0
DWIDTH 16 0
BBX 16 16 0 -1
BITMAP
0000
0042
3FE2
0884
0888
0890
0882
7FE4
0888
0891
0881
0882
1084
1088
2090
0000
ENDCHAR

STARTCHAR 988
ENCODING 42959
SWIDTH 640 0
DWIDTH 16 0
BBX 16 16 0 -1
BITMAP
0000
0840
0820
1002
23FF
4840
0844
107E
2844
4844
0884
0884
0904
0A38
0810
0000
ENDCHAR

STARTCHAR 989
ENCODING 42960
SWIDTH 640 0
DWIDTH 16 0
BBX 16 16 0 -1
BITMAP
0000
0408
04FC
0888
1088
2507
0A00
11FC
2884
4888
0850
0820
0858
0987
0A02
0000
ENDCHAR

STARTCHAR 990
ENCODING 42961
SWIDTH 640 0
DWIDTH 16 0
BBX 16 16 0 -1
BITMAP
0000
0100
0082
7FFF
0800
0800
0808
0FFC
0000
0080
2442
2441
2409
4408
03FC
0000
ENDCHAR

STARTCHAR 991
ENCODING 42962
SWIDTH 640 0
DWIDTH 16 0
BBX 16 16 0 -1
BITMAP
0000
0008
1FFC
0008
0008
1FF8
1000
1002
0FFE
0000
0904
28C3
2849
4808
07FC
0000
ENDCHAR

STARTCHAR 992
ENCODING 42963
SWIDTH 640 0
DWIDTH 16 0
BBX 16 16 0 -1
BITMAP
0000
0080
0080
0082
3FFF
0080
0088
0FFC
0000
0080
0444
2443
2409
4408
03FC
0000
ENDCHAR

STARTCHAR 993
ENCODING 42964
SWIDTH 640 0
DWIDTH 16 0
BBX 16 16 0 -1
BITMAP
0000
0008
1FFC
0108
0908
0608
0208
0438
0810
0100
04C0
2442
2411
4411
03F8
0000
ENDCHAR

STARTCHAR 994
ENCODING 42965
SWIDTH 640 0
DWIDTH 16 0
BBX 16 16 0 -1
BITMAP
0000
0820
0820
0822
29FF
2D22
2A24
2A20
4840
0850
0890
0892
0912
0912
0A0F
0000
ENDCHAR

STARTCHAR 995
ENCODING 42966
SWIDTH 640 0
DWIDTH 16 0
BBX 16 16 0 -1
BITMAP
0000
0840
0840
0844
2DFE
2A44
2A44
4844
0BFF
0840
08A0
0890
0908
0A07
0802
0000
ENDCHAR

STARTCHAR 996
ENCODING 42967
SWIDTH 640 0
DWIDTH 16 0
BBX 16 16 0 -1
BITMAP
0000
0800
0804
09FE
2844
2C44
2A44
287C
49C4
0844
0844
0844
0844
0BFF
0800
0000
ENDCHAR

STARTCHAR 997
ENCODING 42968
SWIDTH 640 0
DWIDTH 16 0
BBX 16 16 0 -1
BITMAP
0000
0810
0850
0848
2C88
2A84
2907
4A22
0820
0840
0888
0904
0BFE
0802
0800
0000
ENDCHAR

STARTCHAR 998
ENCODING 42969
SWIDTH 640 0
DWIDTH 16 0
BBX 16 16 0 -1
BITMAP
0000
0020
0028
0024
7FFF
0020
0920
0924
3FA4
0928
0910
1112
112A
2046
0003
0000
ENDCHAR

STARTCHAR 999
ENCODING 42970
SWIDTH 640 0
DWIDTH 16 0
BBX 16 16 0 -1
BITMAP
0000
0350
1C48
0448
0442
7FFF
0440
0448
0648
0C30
7420
0452
048A
1C06
0803
0000
ENDCHAR

STARTCHAR 1000
ENCODING 42971
SWIDTH 640 0
DWIDTH 16 0
BBX 16 16 0 -1
BITMAP
0000
0820
0820
0820
7EA8
08A4
08A3
0D21
1924
6A24
0824
0808
0810
3860
1380
0000
ENDCHAR

STARTCHAR 1001
ENCODING 42972
SWIDTH 640 0
DWIDTH 16 0
BBX 16 16 0 -1
BITMAP
0000
0820
0822
09FF
7E00
0808
0AFC
0C48
1848
6848
0848
0849
0889
3889
1107
0000
ENDCHAR

STARTCHAR 1002
ENCODING 42973
SWIDTH 640 0
DWIDTH 16 0
BBX 16 16 0 -1
BITMAP
0000
0888
0868
0828
7E08
0888
0868
0C28
1808
680F
0BF8
0808
0808
3808
1008
0000
ENDCHAR

STARTCHAR 1003
ENCODING 42974
SWIDTH 640 0
DWIDTH 16 0
BBX 16 16 0 -1
BITMAP
0000
0820
0824
09FE
7E20
0828
08FC
0C08
1888
6888
0850
0820
0858
3887
1102
0000
ENDCHAR

STARTCHAR 1004
ENCODING 42975
SWIDTH 640 0
DWIDTH 16 0
BBX 16 16 0 -1
BITMAP
0000
0810
0810
0814
7EFE
0810
0A10
0C12
19FF
6810
0828
0824
0844
3883
1102
0000
ENDCHAR

STARTCHAR 1005
ENCODING 42976
SWIDTH 640 0
DWIDTH 16 0
BBX 16 16 0 -1
BITMAP
0000
0820
0820
0824
7EFE
0824
0824
0C24
19FF
6820
0850
0848
0884
3903
1202
0000
ENDCHAR

STARTCHAR 1006
ENCODING 42977
SWIDTH 640 0
DWIDTH 16 0
BBX 16 16 0 -1
BITMAP
0000
0808
09FC
0848
7E48
0848
0A48
0C78
19C8
6848
0848
0848
084A
3BFF
1000
0000
ENDCHAR

STARTCHAR 1007
ENCODING 42978
SWIDTH 640 0
DWIDTH 16 0
BBX 16 16 0 -1
BITMAP
0000
0800
0802
08FF
7E92
0892
0892
0AFE
0C82
1880
6880
0882
0882
387F
1000
0000
ENDCHAR

STARTCHAR 1008
ENCODING 42979
SWIDTH 640 0
DWIDTH 16 0
BBX 16 16 0 -1
BITMAP
0000
0802
09FF
0900
7F04
097E
0B44
0D44
1944
695C
0948
0940
0942
3A42
103F
0000
ENDCHAR

STARTCHAR 1009
ENCODING 42980
SWIDTH 640 0
DWIDTH 16 0
BBX 16 16 0 -1
BITMAP
0000
0858
0844
0840
7E4E
09F0
0840
0C24
1828
6830
0820
0852
088A
3906
1003
0000
ENDCHAR

STARTCHAR 1010
ENCODING 42981
SWIDTH 640 0
DWIDTH 16 0
BBX 16 16 0 -1
BITMAP
0000
0910
0910
0910
7F12
0916
09D8
0D10
1910
6910
0910
0951
0991
3B0F
1000
0000
ENDCHAR

STARTCHAR 1011
ENCODING 42982
SWIDTH 640 0
DWIDTH 16 0
BBX 16 16 0 -1
BITMAP
0000
0806
081C
09E0
7E80
0884
08FE
0A84
0CA4
18A4
6898
0898
0914
3923
1242
0000
ENDCHAR

STARTCHAR 1012
ENCODING 42983
SWIDTH 640 0
DWIDTH 16 0
BBX 16 16 0 -1
BITMAP
0000
0804
09FE
0808
0850
7E22
09FF
0822
0C24
1820
6820
0820
0820
38E0
1040
0000
ENDCHAR

STARTCHAR 1013
ENCODING 42984
SWIDTH 640 0
DWIDTH 16 0
BBX 16 16 0 -1
BITMAP
0000
0810
0810
0810
7E10
0894
0A9E
0C90
1890
6890
0890
0890
0892
3BFF
1000
0000
ENDCHAR

STARTCHAR 1014
ENCODING 42985
SWIDTH 640 0
DWIDTH 16 0
BBX 16 16 0 -1
BITMAP
0000
0804
081E
08E0
7E80
0882
0AFF
0C88
1888
6888
0888
0908
0908
3A08
1008
0000
ENDCHAR

STARTCHAR 1015
ENCODING 42986
SWIDTH 640 0
DWIDTH 16 0
BBX 16 16 0 -1
BITMAP
0000
0810
0858
0850
7E88
0887
0902
0C00
19FC
6844
0844
0884
08A4
3918
1210
0000
ENDCHAR

STARTCHAR 1016
ENCODING 42987
SWIDTH 640 0
DWIDTH 16 0
BBX 16 16 0 -1
BITMAP
0000
0808
08FC
0888
7E88
0887
0908
0CFC
1808
6888
0850
0820
0858
3887
1102
0000
ENDCHAR

STARTCHAR 1017
ENCODING 42988
SWIDTH 640 0
DWIDTH 16 0
BBX 16 16 0 -1
BITMAP
0000
0804
081E
09E0
0888
7EA8
08A8
08A8
0CA8
18A4
68A4
0922
0922
3A21
1020
0000
ENDCHAR

STARTCHAR 1018
ENCODING 42989
SWIDTH 640 0
DWIDTH 16 0
BBX 16 16 0 -1
BITMAP
0000
1000
1040
1042
7C9F
1312
1112
1112
1912
3132
5152
1196
1310
7010
2010
0000
ENDCHAR

STARTCHAR 1019
ENCODING 42990
SWIDTH 640 0
DWIDTH 16 0
BBX 16 16 0 -1
BITMAP
0000
0820
0810
0812
7EFF
0804
0C44
0844
1828
6828
0810
0828
0844
3883
1102
0000
ENDCHAR

STARTCHAR 1020
ENCODING 42991
SWIDTH 640 0
DWIDTH 16 0
BBX 16 16 0 -1
BITMAP
0000
0040
0240
3F40
0242
027F
3E84
2144
2248
2028
2010
2428
3844
6083
0102
0000
ENDCHAR

STARTCHAR 1021
ENCODING 42992
SWIDTH 640 0
DWIDTH 16 0
BBX 16 16 0 -1
BITMAP
0000
0040
0440
7E84
08FE
0908
0A08
0888
0890
0860
0E20
7850
2088
0107
0602
0000
ENDCHAR

STARTCHAR 1022
ENCODING 42993
SWIDTH 640 0
DWIDTH 16 0
BBX 16 16 0 -1
BITMAP
0000
0840
0840
1042
107F
2484
5484
1544
1628
1428
1410
1428
1044
1083
1102
0000
ENDCHAR

STARTCHAR 1023
ENCODING 42994
SWIDTH 640 0
DWIDTH 16 0
BBX 16 16 0 -1
BITMAP
0000
0008
0FFC
0808
0FF8
0808
0FF8
0000
0FF8
0080
0082
7FFF
0080
0080
0080
0000
ENDCHAR

STARTCHAR 1024
ENCODING 42995
SWIDTH 640 0
DWIDTH 16 0
BBX 16 16 0 -1
BITMAP
0000
0002
3FFF
0080
0084
1FFE
1084
1FFC
1084
1FFC
1084
0680
01C0
0638
7807
0000
ENDCHAR

STARTCHAR 1025
ENCODING 42996
SWIDTH 640 0
DWIDTH 16 0
BBX 16 16 0 -1
BITMAP
0000
0080
0082
7FFF
0084
1FFE
1084
1084
1FFC
11C4
02A0
0498
1887
6082
0080
0000
ENDCHAR

STARTCHAR 1026
ENCODING 42997
SWIDTH 640 0
DWIDTH 16 0
BBX 16 16 0 -1
BITMAP
0000
0080
3FFE
02A0
0498
1887
60A2
07F0
0040
0084
3FFE
0080
0080
0380
0100
0000
ENDCHAR

STARTCHAR 1027
ENCODING 42998
SWIDTH 640 0
DWIDTH 16 0
BBX 16 16 0 -1
BITMAP
0000
0080
0082
7FFF
01C0
02A0
0498
1887
6008
0FFC
0808
0808
0808
0FF8
0808
0000
ENDCHAR

STARTCHAR 1028
ENCODING 42999
SWIDTH 640 0
DWIDTH 16 0
BBX 16 16 0 -1
BITMAP
0000
0808
0808
080A
7EFF
0808
1818
1C28
2A28
2A48
4848
0888
0908
0838
0810
0000
ENDCHAR

STARTCHAR 1029
ENCODING 43000
SWIDTH 640 0
DWIDTH 16 0
BBX 16 16 0 -1
BITMAP
0000
0808
0808
0808
7E0A
09FF
1808
1C08
2A88
2A48
4848
0808
0808
0838
0810
0000
ENDCHAR

STARTCHAR 1030
ENCODING 43001
SWIDTH 640 0
DWIDTH 16 0
BBX 16 16 0 -1
BITMAP
0000
0810
0810
0A10
7F10
0814
18FE
1C10
2A10
2A10
4810
0810
0812
09FF
0800
0000
ENDCHAR

STARTCHAR 1031
ENCODING 43002
SWIDTH 640 0
DWIDTH 16 0
BBX 16 16 0 -1
BITMAP
0000
0810
0810
0812
7EFF
0810
1890
1C90
2A50
4850
0820
0830
0848
0887
0902
0000
ENDCHAR

STARTCHAR 1032
ENCODING 43003
SWIDTH 640 0
DWIDTH 16 0
BBX 16 16 0 -1
BITMAP
0000
0800
0804
08FE
7E04
0804
1884
1CFC
2A84
2880
4880
0882
0882
0882
087F
0000
ENDCHAR

STARTCHAR 1033
ENCODING 43004
SWIDTH 640 0
DWIDTH 16 0
BBX 16 16 0 -1
BITMAP
0000
0404
0408
0410
7F60
0C04
0E08
1510
1560
2401
4402
0404
0408
0430
04C0
0000
ENDCHAR

STARTCHAR 1034
ENCODING 43005
SWIDTH 640 0
DWIDTH 16 0
BBX 16 16 0 -1
BITMAP
0000
0800
0804
08FE
7E10
0810
1812
1DFF
2A10
2810
4810
0810
0810
0810
0810
0000
ENDCHAR

STARTCHAR 1035
ENCODING 43006
SWIDTH 640 0
DWIDTH 16 0
BBX 16 16 0 -1
BITMAP
0000
0800
0804
08FE
7E10
0810
1810
1C10
2A10
2A10
4810
0812
09FF
0800
0800
0000
ENDCHAR

STARTCHAR 1036
ENCODING 43072
SWIDTH 640 0
DWIDTH 16 0
BBX 16 16 0 -1
BITMAP
0000
0840
0840
0842
7EFF
0882
1902
1C42
2A22
2A22
4802
0802
0802
083C
0808
0000
ENDCHAR

STARTCHAR 1037
ENCODING 43073
SWIDTH 640 0
DWIDTH 16 0
BBX 16 16 0 -1
BITMAP
0000
0100
0084
3FFE
0800
0808
0FFC
0080
0084
3FFE
02C0
04B0
188F
6084
0080
0000
ENDCHAR

STARTCHAR 1038
ENCODING 43074
SWIDTH 640 0
DWIDTH 16 0
BBX 16 16 0 -1
BITMAP
0000
0080
0488
04FC
0480
0482
7FFF
0080
0488
048C
0888
1090
0060
0380
3C00
0000
ENDCHAR

STARTCHAR 1039
ENCODING 43075
SWIDTH 640 0
DWIDTH 16 0
BBX 16 16 0 -1
BITMAP
0000
0804
0FFE
1000
2008
0FFC
0908
088A
7FFF
0908
0888
1088
1FFE
0010
00E0
0000
ENDCHAR

STARTCHAR 1040
ENCODING 43076
SWIDTH 640 0
DWIDTH 16 0
BBX 16 16 0 -1
BITMAP
0000
0090
0088
3FFE
0080
1084
0C8C
00D0
02A0
0490
0888
3087
0082
0380
0100
0000
ENDCHAR

STARTCHAR 1041
ENCODING 43077
SWIDTH 640 0
DWIDTH 16 0
BBX 16 16 0 -1
BITMAP
0000
0008
1FFC
0080
0082
7FFF
0080
0084
3EC8
02B0
0490
0888
3087
4382
0100
0000
ENDCHAR

STARTCHAR 1042
ENCODING 43078
SWIDTH 640 0
DWIDTH 16 0
BBX 16 16 0 -1
BITMAP
0000
0020
1020
0C20
40A8
30A4
1123
0521
0A24
1064
7028
1010
1060
1180
1600
0000
ENDCHAR

STARTCHAR 1043
ENCODING 43079
SWIDTH 640 0
DWIDTH 16 0
BBX 16 16 0 -1
BITMAP
0000
1000
0820
0818
4008
2080
2084
0882
1283
1281
6280
2484
2484
207E
2000
0000
ENDCHAR

STARTCHAR 1044
ENCODING 43080
SWIDTH 640 0
DWIDTH 16 0
BBX 16 16 0 -1
BITMAP
0000
2040
1844
0BFE
4244
3448
1040
04A0
08A0
10A0
70A2
1122
1222
141F
1000
0000
ENDCHAR

STARTCHAR 1045
ENCODING 43081
SWIDTH 640 0
DWIDTH 16 0
BBX 16 16 0 -1
BITMAP
0000
2002
1BFF
0A02
4204
3000
1090
0090
0890
1090
7090
1112
1112
1212
140F
0000
ENDCHAR

STARTCHAR 1046
ENCODING 43082
SWIDTH 640 0
DWIDTH 16 0
BBX 16 16 0 -1
BITMAP
0000
4004
33FE
1000
0000
4002
37FF
1090
0090
0890
7090
1111
1111
1211
140F
0000
ENDCHAR

STARTCHAR 1047
ENCODING 43083
SWIDTH 640 0
DWIDTH 16 0
BBX 16 16 0 -1
BITMAP
0000
2020
1822
09FF
4020
3022
11FF
0122
0922
1122
7122
112E
1124
1020
1020
0000
ENDCHAR

STARTCHAR 1048
ENCODING 43084
SWIDTH 640 0
DWIDTH 16 0
BBX 16 16 0 -1
BITMAP
0000
2004
19FE
0820
4020
3020
1024
05FE
0820
1020
7020
1020
1022
17FF
1000
0000
ENDCHAR

STARTCHAR 1049
ENCODING 43085
SWIDTH 640 0
DWIDTH 16 0
BBX 16 16 0 -1
BITMAP
0000
2040
1840
0848
41FC
3048
1048
004A
0BFF
1040
70A0
1090
1108
1207
1404
0000
ENDCHAR

STARTCHAR 1050
ENCODING 43086
SWIDTH 640 0
DWIDTH 16 0
BBX 16 16 0 -1
BITMAP
0000
2020
1820
0822
43FF
3020
1070
04A8
08A8
1124
7124
1223
1422
1020
1020
0000
ENDCHAR

STARTCHAR 1051
ENCODING 43087
SWIDTH 640 0
DWIDTH 16 0
BBX 16 16 0 -1
BITMAP
0000
2020
1820
0822
43FF
3020
1020
0420
0850
7088
10C8
1124
1223
1402
1000
0000
ENDCHAR

STARTCHAR 1052
ENCODING 43088
SWIDTH 640 0
DWIDTH 16 0
BBX 16 16 0 -1
BITMAP
0000
2020
1820
0822
43FF
3020
1222
0222
0A22
13FE
7222
1020
1022
1022
101F
0000
ENDCHAR

STARTCHAR 1053
ENCODING 43089
SWIDTH 640 0
DWIDTH 16 0
BBX 16 16 0 -1
BITMAP
0000
1000
0802
09FF
4102
2102
2102
09FE
1102
7102
1102
1102
11FE
1102
1000
0000
ENDCHAR

STARTCHAR 1054
ENCODING 43090
SWIDTH 640 0
DWIDTH 16 0
BBX 16 16 0 -1
BITMAP
0000
0020
2020
1020
1022
03FF
4222
3222
1222
03FE
0A22
1020
7020
1020
1020
0000
ENDCHAR

STARTCHAR 1055
ENCODING 43091
SWIDTH 640 0
DWIDTH 16 0
BBX 16 16 0 -1
BITMAP
0000
2008
19FC
0908
0108
4206
3008
11FC
0008
0888
1050
7020
1050
118F
1604
0000
ENDCHAR

STARTCHAR 1056
ENCODING 43092
SWIDTH 640 0
DWIDTH 16 0
BBX 16 16 0 -1
BITMAP
0000
0100
2104
19FE
0A00
43FC
3400
13F8
0008
0808
7008
1009
1005
1003
1001
0000
ENDCHAR

STARTCHAR 1057
ENCODING 43093
SWIDTH 640 0
DWIDTH 16 0
BBX 16 16 0 -1
BITMAP
0000
201E
1BE0
0820
4020
3022
13FF
0020
0820
1020
7050
1088
1104
1207
1002
0000
ENDCHAR

STARTCHAR 1058
ENCODING 43094
SWIDTH 640 0
DWIDTH 16 0
BBX 16 16 0 -1
BITMAP
0000
2004
1BFE
0884
4088
3088
149E
04C2
08A4
3128
1110
1228
1244
1487
1102
0000
ENDCHAR

STARTCHAR 1059
ENCODING 43095
SWIDTH 640 0
DWIDTH 16 0
BBX 16 16 0 -1
BITMAP
0000
2090
1890
0888
4108
3207
140A
03FC
0888
1088
7088
1108
1108
1270
1420
0000
ENDCHAR

STARTCHAR 1060
ENCODING 43096
SWIDTH 640 0
DWIDTH 16 0
BBX 16 16 0 -1
BITMAP
0000
2080
1860
0820
4002
23FF
2040
0840
0850
104C
7046
1042
1040
1040
1040
0000
ENDCHAR

STARTCHAR 1061
ENCODING 43097
SWIDTH 640 0
DWIDTH 16 0
BBX 16 16 0 -1
BITMAP
0000
2020
1822
0BFF
4000
2408
24FC
0888
0888
1088
7088
1109
1109
1209
1407
0000
ENDCHAR

STARTCHAR 1062
ENCODING 43098
SWIDTH 640 0
DWIDTH 16 0
BBX 16 16 0 -1
BITMAP
0000
0040
2020
1822
0BFF
4004
2484
0888
0848
1050
7020
1050
1088
1107
1202
0000
ENDCHAR

STARTCHAR 1063
ENCODING 43099
SWIDTH 640 0
DWIDTH 16 0
BBX 16 16 0 -1
BITMAP
0000
4004
37FE
1080
0088
40FC
3088
1108
0108
09F8
1110
6010
2022
27FF
2000
0000
ENDCHAR

STARTCHAR 1064
ENCODING 43100
SWIDTH 640 0
DWIDTH 16 0
BBX 16 16 0 -1
BITMAP
0000
2002
19FF
0820
4022
253F
2522
0922
09FE
1102
7002
1002
1002
101C
1008
0000
ENDCHAR

STARTCHAR 1065
ENCODING 43101
SWIDTH 640 0
DWIDTH 16 0
BBX 16 16 0 -1
BITMAP
0000
4010
3110
1110
0112
4116
31D8
1110
0110
0910
1112
6152
2392
260F
2000
0000
ENDCHAR

STARTCHAR 1066
ENCODING 43102
SWIDTH 640 0
DWIDTH 16 0
BBX 16 16 0 -1
BITMAP
0000
201E
19E0
0880
4080
3082
14FF
0488
0888
0888
7108
1108
1208
1408
1008
0000
ENDCHAR

STARTCHAR 1067
ENCODING 43103
SWIDTH 640 0
DWIDTH 16 0
BBX 16 16 0 -1
BITMAP
0000
0820
0820
0920
2A20
2C24
29FE
4820
0820
0820
0820
1420
1222
23FF
4200
0000
ENDCHAR

STARTCHAR 1068
ENCODING 43104
SWIDTH 640 0
DWIDTH 16 0
BBX 16 16 0 -1
BITMAP
0000
0820
0820
0A22
2A7F
2C82
2902
4842
0822
0822
1402
1202
2202
401C
0008
0000
ENDCHAR

STARTCHAR 1069
ENCODING 43105
SWIDTH 640 0
DWIDTH 16 0
BBX 16 16 0 -1
BITMAP
0000
0444
0888
3330
0888
0444
0000
188C
0898
04A0
0080
0140
0630
180F
6004
0000
ENDCHAR

STARTCHAR 1070
ENCODING 43106
SWIDTH 640 0
DWIDTH 16 0
BBX 16 16 0 -1
BITMAP
0000
0110
03F8
0410
0860
01A0
0618
1887
0092
0498
04A0
0980
0260
0C1F
7004
0000
ENDCHAR

STARTCHAR 1071
ENCODING 43107
SWIDTH 640 0
DWIDTH 16 0
BBX 16 16 0 -1
BITMAP
0000
0100
0080
3FFF
2001
4482
0490
0FF8
1080
0082
7FFF
0080
0080
0080
0080
0000
ENDCHAR

STARTCHAR 1072
ENCODING 43108
SWIDTH 640 0
DWIDTH 16 0
BBX 16 16 0 -1
BITMAP
0000
0410
1410
1410
1F10
2414
24FE
4410
0610
1C10
6410
0410
0412
1DFF
0800
0000
ENDCHAR

STARTCHAR 1073
ENCODING 43109
SWIDTH 640 0
DWIDTH 16 0
BBX 16 16 0 -1
BITMAP
0000
0810
2890
2890
2892
3E9F
48F2
0992
0C92
1894
6890
0882
0882
087F
0800
0000
ENDCHAR

STARTCHAR 1074
ENCODING 43110
SWIDTH 640 0
DWIDTH 16 0
BBX 16 16 0 -1
BITMAP
0000
0220
2220
1420
0822
1526
24A4
44A8
0C20
1420
2450
4450
0488
3907
1202
0000
ENDCHAR

STARTCHAR 1075
ENCODING 43111
SWIDTH 640 0
DWIDTH 16 0
BBX 16 16 0 -1
BITMAP
0000
2002
12FF
0C10
0810
1410
2410
04FE
0C10
1410
2410
4410
0412
39FF
1000
0000
ENDCHAR

STARTCHAR 1076
ENCODING 43112
SWIDTH 640 0
DWIDTH 16 0
BBX 16 16 0 -1
BITMAP
0000
0020
0224
7F3E
0844
0844
3E88
0808
0810
0F30
7828
2044
0082
0103
0201
0000
ENDCHAR

STARTCHAR 1077
ENCODING 43113
SWIDTH 640 0
DWIDTH 16 0
BBX 16 16 0 -1
BITMAP
0000
0010
1FF8
0020
0340
0084
1FFE
1084
1FFC
1084
1FFC
1084
1084
109C
1008
0000
ENDCHAR

STARTCHAR 1078
ENCODING 43114
SWIDTH 640 0
DWIDTH 16 0
BBX 16 16 0 -1
BITMAP
0000
0090
0088
7FFF
0080
0084
1FFE
1084
1FFC
1084
1FFC
1084
1084
109C
1008
0000
ENDCHAR

STARTCHAR 1079
ENCODING 43115
SWIDTH 640 0
DWIDTH 16 0
BBX 16 16 0 -1
BITMAP
0000
0004
1FFE
1084
1FFC
1084
1FFC
1080
0084
3FFE
0104
0204
0404
0838
3010
0000
ENDCHAR

STARTCHAR 1080
ENCODING 43116
SWIDTH 640 0
DWIDTH 16 0
BBX 16 16 0 -1
BITMAP
0000
0400
0402
0FFF
0802
1022
2FF2
4922
0FE2
0922
0922
0FE2
0822
000E
0004
0000
ENDCHAR

STARTCHAR 1081
ENCODING 43117
SWIDTH 640 0
DWIDTH 16 0
BBX 16 16 0 -1
BITMAP
0000
0100
0200
0408
1FFC
0808
0FF8
0808
0FF8
0882
00FF
7F80
0082
0082
007E
0000
ENDCHAR

STARTCHAR 1082
ENCODING 43118
SWIDTH 640 0
DWIDTH 16 0
BBX 16 16 0 -1
BITMAP
0000
0400
7E02
45FF
4410
7C10
4410
4410
7C10
4410
4410
4410
7C10
4470
0020
0000
ENDCHAR

STARTCHAR 1083
ENCODING 43119
SWIDTH 640 0
DWIDTH 16 0
BBX 16 16 0 -1
BITMAP
0000
0200
0210
0408
3FFC
0404
0410
0FF8
1080
0082
7FFF
0220
0418
080E
3004
0000
ENDCHAR

STARTCHAR 1084
ENCODING 43120
SWIDTH 640 0
DWIDTH 16 0
BBX 16 16 0 -1
BITMAP
0000
0110
0390
3C10
0410
0510
3FA0
0C20
0E24
1542
2442
45FF
0481
0401
0400
0000
ENDCHAR

STARTCHAR 1085
ENCODING 43121
SWIDTH 640 0
DWIDTH 16 0
BBX 16 16 0 -1
BITMAP
0000
00F0
0F80
0084
3FFE
02A0
0498
1887
67F2
0210
0238
0408
0408
0850
1020
0000
ENDCHAR

STARTCHAR 1086
ENCODING 43122
SWIDTH 640 0
DWIDTH 16 0
BBX 16 16 0 -1
BITMAP
0000
0078
1F80
0080
0082
7FFF
0290
0488
1887
2222
0220
0420
0422
0822
301F
0000
ENDCHAR

STARTCHAR 1087
ENCODING 43123
SWIDTH 640 0
DWIDTH 16 0
BBX 16 16 0 -1
BITMAP
0000
0100
0082
3FFF
2002
4424
0810
110C
0120
1FF0
0220
0222
0422
0822
101F
0000
ENDCHAR

STARTCHAR 1088
ENCODING 43124
SWIDTH 640 0
DWIDTH 16 0
BBX 16 16 0 -1
BITMAP
0000
007C
3F80
0200
0420
1C40
0380
0210
0408
3FFC
0084
0890
108C
2384
0100
0000
ENDCHAR

STARTCHAR 1089
ENCODING 43125
SWIDTH 640 0
DWIDTH 16 0
BBX 16 16 0 -1
BITMAP
0000
3FFF
2221
4222
0420
081C
0000
0FFC
0080
0082
7FFF
0080
0080
0080
0080
0000
ENDCHAR

STARTCHAR 1090
ENCODING 43126
SWIDTH 640 0
DWIDTH 16 0
BBX 16 16 0 -1
BITMAP
0000
0084
088C
0488
0490
0084
0FFE
0804
0FFC
0804
0FFC
0804
1004
101C
2008
0000
ENDCHAR

STARTCHAR 1091
ENCODING 43127
SWIDTH 640 0
DWIDTH 16 0
BBX 16 16 0 -1
BITMAP
0000
0100
0082
7FFF
0800
0FFC
0000
0FF8
0808
0FF8
0808
0FF8
0808
0838
0810
0000
ENDCHAR

STARTCHAR 1092
ENCODING 43128
SWIDTH 640 0
DWIDTH 16 0
BBX 16 16 0 -1
BITMAP
0000
0204
1F7E
1210
1210
1E10
1212
12FF
1210
1E10
1210
1210
2210
2E10
4410
0000
ENDCHAR

STARTCHAR 1093
ENCODING 43129
SWIDTH 640 0
DWIDTH 16 0
BBX 16 16 0 -1
BITMAP
0000
0204
1F04
1204
1204
1EFF
1204
1244
1E24
1224
1204
2204
2214
4E0C
0408
0000
ENDCHAR

STARTCHAR 1094
ENCODING 43130
SWIDTH 640 0
DWIDTH 16 0
BBX 16 16 0 -1
BITMAP
0000
0200
1F00
1204
12FE
1E10
1210
1210
1E10
1210
1210
1212
22FF
2E00
4400
0000
ENDCHAR

STARTCHAR 1095
ENCODING 43131
SWIDTH 640 0
DWIDTH 16 0
BBX 16 16 0 -1
BITMAP
0000
0210
1F10
1210
1210
1E14
12FE
1210
1E10
1210
1210
1212
22FF
2E00
4400
0000
ENDCHAR

STARTCHAR 1096
ENCODING 43132
SWIDTH 640 0
DWIDTH 16 0
BBX 16 16 0 -1
BITMAP
0000
0080
7FFF
0200
0408
3FFC
0002
0FF8
0808
0FF8
0808
0FF8
0808
1008
2018
0000
ENDCHAR

STARTCHAR 1097
ENCODING 43133
SWIDTH 640 0
DWIDTH 16 0
BBX 16 16 0 -1
BITMAP
0000
0200
0110
3FF8
1010
1FF0
1010
1FF0
1000
1210
1120
10C0
1230
1C0F
7002
0000
ENDCHAR

STARTCHAR 1098
ENCODING 43134
SWIDTH 640 0
DWIDTH 16 0
BBX 16 16 0 -1
BITMAP
0000
0410
0412
7FFF
0410
0100
0082
7FFF
0800
0800
0800
0800
0804
07FE
0000
0000
ENDCHAR

STARTCHAR 1099
ENCODING 43169
SWIDTH 640 0
DWIDTH 16 0
BBX 16 16 0 -1
BITMAP
0000
0420
0424
7FFE
0420
0008
1FFC
0080
0082
7FFF
0080
0080
0080
0380
0100
0000
ENDCHAR

STARTCHAR 1100
ENCODING 43170
SWIDTH 640 0
DWIDTH 16 0
BBX 16 16 0 -1
BITMAP
0000
0420
0422
7FFF
0420
1008
1FFC
1008
2408
4308
0108
0008
0008
00F0
0020
0000
ENDCHAR

STARTCHAR 1101
ENCODING 43171
SWIDTH 640 0
DWIDTH 16 0
BBX 16 16 0 -1
BITMAP
0000
0008
0FFC
0808
0FF8
0808
0FF8
0808
0808
0FF8
0A48
0240
0442
0842
303F
0000
ENDCHAR

STARTCHAR 1102
ENCODING 43172
SWIDTH 640 0
DWIDTH 16 0
BBX 16 16 0 -1
BITMAP
0000
0410
07F8
0820
1044
6FFE
0884
0FFC
0884
0884
0FFC
1004
1004
201C
4008
0000
ENDCHAR

STARTCHAR 1103
ENCODING 43173
SWIDTH 640 0
DWIDTH 16 0
BBX 16 16 0 -1
BITMAP
0000
0100
0080
0082
7FFF
0000
0FF8
0000
0FF8
0000
0FF8
0808
0808
0FF8
0808
0000
ENDCHAR

STARTCHAR 1104
ENCODING 43174
SWIDTH 640 0
DWIDTH 16 0
BBX 16 16 0 -1
BITMAP
0000
0420
0418
080C
1084
0140
0230
040F
1812
67F8
0410
0410
0410
07F0
0410
0000
ENDCHAR

STARTCHAR 1105
ENCODING 43175
SWIDTH 640 0
DWIDTH 16 0
BBX 16 16 0 -1
BITMAP
0000
0004
1FFE
0000
0008
0FFC
0808
0808
0FF8
0000
0410
0210
0222
7FFF
0000
0000
ENDCHAR

STARTCHAR 1106
ENCODING 43176
SWIDTH 640 0
DWIDTH 16 0
BBX 16 16 0 -1
BITMAP
0000
0002
7FFF
0304
048C
08D0
3160
0260
0450
18D0
0148
0647
1842
01C0
0080
0000
ENDCHAR

STARTCHAR 1107
ENCODING 43177
SWIDTH 640 0
DWIDTH 16 0
BBX 16 16 0 -1
BITMAP
0000
0008
1FFC
1008
1008
1FF8
1008
1008
1FF8
1008
1008
1FF8
0810
300C
4006
0000
ENDCHAR

STARTCHAR 1108
ENCODING 43178
SWIDTH 640 0
DWIDTH 16 0
BBX 16 16 0 -1
BITMAP
0000
0080
0088
1FFC
0080
0082
7FFF
0220
1224
1222
1223
2421
4421
08E0
1040
0000
ENDCHAR

STARTCHAR 1109
ENCODING 43179
SWIDTH 640 0
DWIDTH 16 0
BBX 16 16 0 -1
BITMAP
0000
0080
0088
1FFC
0080
0082
7FFF
0080
0888
08FC
0880
0C80
1280
2180
40FF
0000
ENDCHAR

STARTCHAR 1110
ENCODING 43180
SWIDTH 640 0
DWIDTH 16 0
BBX 16 16 0 -1
BITMAP
0000
0008
0FFC
0808
0808
0808
0FF8
0888
0080
0888
08FC
0880
1480
2280
41FF
0000
ENDCHAR

STARTCHAR 1111
ENCODING 43181
SWIDTH 640 0
DWIDTH 16 0
BBX 16 16 0 -1
BITMAP
0000
0100
0208
0FFC
0408
07F8
0409
07FA
040C
3FF8
0048
0188
0E08
7038
0010
0000
ENDCHAR

STARTCHAR 1112
ENCODING 43182
SWIDTH 640 0
DWIDTH 16 0
BBX 16 16 0 -1
BITMAP
0000
0080
0080
3FFE
0080
1FFC
1084
1FFC
1084
1FFC
0080
7FFF
0080
0080
0080
0000
ENDCHAR

STARTCHAR 1113
ENCODING 43183
SWIDTH 640 0
DWIDTH 16 0
BBX 16 16 0 -1
BITMAP
0000
0100
0088
1FFC
0410
0210
0222
7FFF
0080
0084
3FFE
0080
0080
0080
0080
0000
ENDCHAR

STARTCHAR 1114
ENCODING 43184
SWIDTH 640 0
DWIDTH 16 0
BBX 16 16 0 -1
BITMAP
0000
0008
1FFC
1000
1FF8
1000
1FFE
1200
1288
1250
1220
2218
2287
4302
0E00
0000
ENDCHAR

STARTCHAR 1115
ENCODING 43185
SWIDTH 640 0
DWIDTH 16 0
BBX 16 16 0 -1
BITMAP
0000
2004
10FE
1010
0010
7812
09FF
1010
3010
0810
0810
0870
1820
2400
43FF
0000
ENDCHAR

STARTCHAR 1116
ENCODING 43186
SWIDTH 640 0
DWIDTH 16 0
BBX 16 16 0 -1
BITMAP
0000
2020
1120
1120
0122
793F
09E2
1322
3124
0920
0902
0902
18FF
2400
43FF
0000
ENDCHAR

STARTCHAR 1117
ENCODING 43187
SWIDTH 640 0
DWIDTH 16 0
BBX 16 16 0 -1
BITMAP
0000
2008
11FC
1008
0048
7848
09C8
1068
3048
0849
0889
0889
1907
2400
43FF
0000
ENDCHAR

STARTCHAR 1118
ENCODING 43188
SWIDTH 640 0
DWIDTH 16 0
BBX 16 16 0 -1
BITMAP
0000
2080
1084
10FE
0100
7A08
08FC
1010
3860
0880
0904
0904
18FE
2400
43FF
0000
ENDCHAR

STARTCHAR 1119
ENCODING 43189
SWIDTH 640 0
DWIDTH 16 0
BBX 16 16 0 -1
BITMAP
0000
2000
1092
11B6
0124
7A48
0C90
1248
3124
09B6
0892
0892
1400
2200
41FF
0000
ENDCHAR

STARTCHAR 1120
ENCODING 43190
SWIDTH 640 0
DWIDTH 16 0
BBX 16 16 0 -1
BITMAP
0000
0008
0FFC
0808
0FF8
0004
3FFE
1084
1084
1FFC
1004
1000
1002
1002
0FFF
0000
ENDCHAR

STARTCHAR 1121
ENCODING 43191
SWIDTH 640 0
DWIDTH 16 0
BBX 16 16 0 -1
BITMAP
0000
0102
1FBF
0912
0914
0918
0914
7FD2
0911
0911
0919
1116
1114
2110
0110
0000
ENDCHAR

STARTCHAR 1122
ENCODING 43192
SWIDTH 640 0
DWIDTH 16 0
BBX 16 16 0 -1
BITMAP
0000
0102
3FBF
1222
1224
1228
3FA4
0622
0A21
1221
2221
422E
0224
0E20
0420
0000
ENDCHAR

STARTCHAR 1123
ENCODING 43193
SWIDTH 640 0
DWIDTH 16 0
BBX 16 16 0 -1
BITMAP
0000
0402
043F
7FA2
0424
0428
3F24
0422
0421
7FA1
0429
0826
0824
1020
2020
0000
ENDCHAR

STARTCHAR 1124
ENCODING 43194
SWIDTH 640 0
DWIDTH 16 0
BBX 16 16 0 -1
BITMAP
0000
0102
3FBF
0922
0924
3F28
0924
0922
7F21
0921
1131
112A
2724
4220
0020
0000
ENDCHAR

STARTCHAR 1125
ENCODING 43195
SWIDTH 640 0
DWIDTH 16 0
BBX 16 16 0 -1
BITMAP
0000
0004
3FFE
0240
0244
3FFE
1244
1244
1244
143C
1804
17F4
1004
1FFC
1004
0000
ENDCHAR

STARTCHAR 1126
ENCODING 43196
SWIDTH 640 0
DWIDTH 16 0
BBX 16 16 0 -1
BITMAP
0000
003C
1FC0
008C
1888
04B0
0080
7FFF
01C0
02A0
0490
1888
6087
0182
0080
0000
ENDCHAR

STARTCHAR 1127
ENCODING 43197
SWIDTH 640 0
DWIDTH 16 0
BBX 16 16 0 -1
BITMAP
0000
0008
0FFC
0888
0FF8
0888
0888
0FF8
0888
0080
1FFC
0080
0082
7FFF
0000
0000
ENDCHAR

STARTCHAR 1128
ENCODING 43198
SWIDTH 640 0
DWIDTH 16 0
BBX 16 16 0 -1
BITMAP
0000
0840
7C20
4802
53FF
5040
4844
447E
4444
6444
5884
5084
4104
4238
4010
0000
ENDCHAR

STARTCHAR 1129
ENCODING 43199
SWIDTH 640 0
DWIDTH 16 0
BBX 16 16 0 -1
BITMAP
0000
0400
7E04
44FE
4800
5002
4BFF
4848
4448
4448
6848
5089
4089
4109
4207
0000
ENDCHAR

STARTCHAR 1130
ENCODING 43200
SWIDTH 640 0
DWIDTH 16 0
BBX 16 16 0 -1
BITMAP
0000
0888
7C88
488A
53FF
6088
5088
4888
488A
4BFF
6888
5088
4108
4108
4208
0000
ENDCHAR

STARTCHAR 1131
ENCODING 43201
SWIDTH 640 0
DWIDTH 16 0
BBX 16 16 0 -1
BITMAP
0000
0004
081E
7DE0
4900
5104
51FE
4904
4948
4948
6930
5230
4248
4487
4902
0000
ENDCHAR

STARTCHAR 1132
ENCODING 43202
SWIDTH 640 0
DWIDTH 16 0
BBX 16 16 0 -1
BITMAP
0000
0440
7E20
4422
49FF
5000
4808
44FC
4488
4488
5C88
4889
4109
4109
4207
0000
ENDCHAR

STARTCHAR 1133
ENCODING 43203
SWIDTH 640 0
DWIDTH 16 0
BBX 16 16 0 -1
BITMAP
0000
0818
0610
0220
0004
3FFE
0220
0220
1224
0A24
0A28
0220
0222
7FFF
0000
0000
ENDCHAR

STARTCHAR 1134
ENCODING 43204
SWIDTH 640 0
DWIDTH 16 0
BBX 16 16 0 -1
BITMAP
0000
0038
0FC0
0080
0082
7FFF
0080
0492
3C96
0498
0491
0C91
748F
0080
0080
0000
ENDCHAR

STARTCHAR 1135
ENCODING 43205
SWIDTH 640 0
DWIDTH 16 0
BBX 16 16 0 -1
BITMAP
0000
0790
7810
2490
1490
1110
7F90
0210
0C10
0590
0E12
7412
0412
1C12
080F
0000
ENDCHAR

STARTCHAR 1136
ENCODING 43206
SWIDTH 640 0
DWIDTH 16 0
BBX 16 16 0 -1
BITMAP
0000
0080
3FFE
0080
0FF8
0888
0FF8
0084
1FFE
0084
7FFF
0084
1FFC
0080
0380
0000
ENDCHAR

STARTCHAR 1137
ENCODING 43207
SWIDTH 640 0
DWIDTH 16 0
BBX 16 16 0 -1
BITMAP
0000
0220
0220
1226
13B8
1220
1221
13A1
7E1F
2000
07F8
0000
0004
1FFE
0000
0000
ENDCHAR

STARTCHAR 1138
ENCODING 43208
SWIDTH 640 0
DWIDTH 16 0
BBX 16 16 0 -1
BITMAP
0000
0004
3FFE
0220
0220
0222
3E3F
2002
2002
3E3E
2222
0220
0222
7FFF
0000
0000
ENDCHAR

STARTCHAR 1139
ENCODING 43209
SWIDTH 640 0
DWIDTH 16 0
BBX 16 16 0 -1
BITMAP
0000
0080
3FFE
0000
07F8
0408
07F8
0000
07F8
0022
3FFF
0040
0040
01C0
0080
0000
ENDCHAR

STARTCHAR 1140
ENCODING 43210
SWIDTH 640 0
DWIDTH 16 0
BBX 16 16 0 -1
BITMAP
0000
0100
0082
7FFF
0000
0FFC
0808
0808
0FF8
0080
0490
0C8C
1086
2382
0100
0000
ENDCHAR

STARTCHAR 1141
ENCODING 43211
SWIDTH 640 0
DWIDTH 16 0
BBX 16 16 0 -1
BITMAP
0000
088C
0848
0850
13FE
3020
5028
11FC
1020
1022
17FF
1020
1020
1020
1020
0000
ENDCHAR

STARTCHAR 1142
ENCODING 43212
SWIDTH 640 0
DWIDTH 16 0
BBX 16 16 0 -1
BITMAP
0000
0440
0420
0422
0BFF
1040
28A0
48A4
09A8
0A90
0C90
0888
08A7
08C2
0980
0000
ENDCHAR

STARTCHAR 1143
ENCODING 43213
SWIDTH 640 0
DWIDTH 16 0
BBX 16 16 0 -1
BITMAP
0000
0420
0424
09FE
0820
1022
2BFF
4808
080A
0BFF
0908
0888
0888
0808
0818
0000
ENDCHAR

STARTCHAR 1144
ENCODING 43214
SWIDTH 640 0
DWIDTH 16 0
BBX 16 16 0 -1
BITMAP
0000
0420
0420
09FE
0820
1022
2BFF
4820
0820
09FE
0820
0820
0822
0BFF
0800
0000
ENDCHAR

STARTCHAR 1145
ENCODING 43215
SWIDTH 640 0
DWIDTH 16 0
BBX 16 16 0 -1
BITMAP
0000
0820
0822
0BFF
1020
2022
53FF
1222
13FE
1222
10A0
1060
1098
1107
1602
0000
ENDCHAR

STARTCHAR 1146
ENCODING 43216
SWIDTH 640 0
DWIDTH 16 0
BBX 16 16 0 -1
BITMAP
0000
0440
0442
0BF6
0848
1050
2862
4FFF
0880
0980
0A9C
0CE0
0882
0882
087F
0000
ENDCHAR

STARTCHAR 1147
ENCODING 43217
SWIDTH 640 0
DWIDTH 16 0
BBX 16 16 0 -1
BITMAP
0000
0888
0888
1088
13FE
2088
5088
1088
17FF
1000
1088
1084
1104
1102
1202
0000
ENDCHAR

STARTCHAR 1148
ENCODING 43218
SWIDTH 640 0
DWIDTH 16 0
BBX 16 16 0 -1
BITMAP
0000
0801
0821
0BF1
1101
21E9
5129
1229
1649
1149
1089
1101
1201
1407
1002
0000
ENDCHAR

STARTCHAR 1149
ENCODING 43219
SWIDTH 640 0
DWIDTH 16 0
BBX 16 16 0 -1
BITMAP
0000
0080
0082
7FFF
0890
0890
1498
26A6
01C0
02A0
0490
0888
1087
2382
0100
0000
ENDCHAR

STARTCHAR 1150
ENCODING 43220
SWIDTH 640 0
DWIDTH 16 0
BBX 16 16 0 -1
BITMAP
0000
0404
05FE
0504
0904
11FC
2800
48A8
08A8
08A8
0929
0929
0A29
0C27
0800
0000
ENDCHAR

STARTCHAR 1151
ENCODING 43221
SWIDTH 640 0
DWIDTH 16 0
BBX 16 16 0 -1
BITMAP
0000
0400
0402
05FF
0820
0820
1044
29FE
4904
0904
09FC
0904
0904
09FC
0904
0000
ENDCHAR

STARTCHAR 1152
ENCODING 43222
SWIDTH 640 0
DWIDTH 16 0
BBX 16 16 0 -1
BITMAP
0000
090C
0888
1090
23FE
5088
1088
108A
17FF
1088
1088
1108
1108
1208
1408
0000
ENDCHAR

STARTCHAR 1153
ENCODING 43223
SWIDTH 640 0
DWIDTH 16 0
BBX 16 16 0 -1
BITMAP
0000
0444
047E
0888
0B90
1060
2848
4892
0B3F
0842
09A4
0818
0810
0860
0980
0000
ENDCHAR

STARTCHAR 1154
ENCODING 43224
SWIDTH 640 0
DWIDTH 16 0
BBX 16 16 0 -1
BITMAP
0000
0804
0FFE
1404
15F4
2444
5444
15F4
1554
1554
1554
1555
1575
1843
1041
0000
ENDCHAR

STARTCHAR 1155
ENCODING 43225
SWIDTH 640 0
DWIDTH 16 0
BBX 16 16 0 -1
BITMAP
0000
0490
0490
0892
0896
1298
2990
4898
0996
0E92
0890
0911
0911
0A0F
0800
0000
ENDCHAR

STARTCHAR 1156
ENCODING 43226
SWIDTH 640 0
DWIDTH 16 0
BBX 16 16 0 -1
BITMAP
0000
01C0
0220
0410
0808
17F7
2000
0004
1FFE
1244
1244
1FFC
1244
125C
1008
0000
ENDCHAR

STARTCHAR 1157
ENCODING 43227
SWIDTH 640 0
DWIDTH 16 0
BBX 16 16 0 -1
BITMAP
0000
0400
0490
0888
1107
2608
51FC
1108
11F8
1108
11F8
1108
1108
1138
1110
0000
ENDCHAR

STARTCHAR 1158
ENCODING 43228
SWIDTH 640 0
DWIDTH 16 0
BBX 16 16 0 -1
BITMAP
0000
0420
0520
0924
09FE
1220
2822
4BFF
0860
0870
08A8
0924
0A27
0C22
0820
0000
ENDCHAR

STARTCHAR 1159
ENCODING 43229
SWIDTH 640 0
DWIDTH 16 0
BBX 16 16 0 -1
BITMAP
0000
0440
0442
0BFF
0880
1084
29FE
4A84
0CFC
0884
08FC
0884
0884
089C
0888
0000
ENDCHAR

STARTCHAR 1160
ENCODING 43230
SWIDTH 640 0
DWIDTH 16 0
BBX 16 16 0 -1
BITMAP
0000
0820
0850
1088
2107
5602
11FC
1020
1020
11FC
1020
1020
1022
17FF
1000
0000
ENDCHAR

STARTCHAR 1161
ENCODING 43231
SWIDTH 640 0
DWIDTH 16 0
BBX 16 16 0 -1
BITMAP
0000
0840
0FE0
1040
2090
5FF8
1110
1110
1FF0
1290
0480
04A0
0892
1082
607F
0000
ENDCHAR

STARTCHAR 1162
ENCODING 43232
SWIDTH 640 0
DWIDTH 16 0
BBX 16 16 0 -1
BITMAP
0000
0200
0408
787C
1008
1EF8
1008
1008
1FF8
1248
0240
0440
0842
1042
603F
0000
ENDCHAR

STARTCHAR 1163
ENCODING 43233
SWIDTH 640 0
DWIDTH 16 0
BBX 16 16 0 -1
BITMAP
0000
0004
1E3E
1224
1224
13E4
1004
1FFC
1224
0220
0220
0422
0822
1022
201F
0000
ENDCHAR

STARTCHAR 1164
ENCODING 43234
SWIDTH 640 0
DWIDTH 16 0
BBX 16 16 0 -1
BITMAP
0000
0002
7FFF
0100
0100
0102
7FFF
4102
4922
4922
5552
638A
4102
410E
4004
0000
ENDCHAR

STARTCHAR 1165
ENCODING 43235
SWIDTH 640 0
DWIDTH 16 0
BBX 16 16 0 -1
BITMAP
0000
0010
07F8
0410
07F0
0410
07F0
0410
07F0
0412
7FFF
0220
0610
080C
1004
0000
ENDCHAR

STARTCHAR 1166
ENCODING 43236
SWIDTH 640 0
DWIDTH 16 0
BBX 16 16 0 -1
BITMAP
0000
0410
0410
1FFC
0410
07F0
0410
07F0
0410
0412
7FFF
0000
0410
0C0C
1004
0000
ENDCHAR

STARTCHAR 1167
ENCODING 43237
SWIDTH 640 0
DWIDTH 16 0
BBX 16 16 0 -1
BITMAP
0000
0240
0240
0248
1FFC
1248
1248
1FF8
1248
124A
7FFF
0420
0C10
1018
2008
0000
ENDCHAR

STARTCHAR 1168
ENCODING 43238
SWIDTH 640 0
DWIDTH 16 0
BBX 16 16 0 -1
BITMAP
0000
0021
47F1
3101
1109
11E9
0129
0A29
1229
6549
20C9
2089
2101
2207
2402
0000
ENDCHAR

STARTCHAR 1169
ENCODING 43239
SWIDTH 640 0
DWIDTH 16 0
BBX 16 16 0 -1
BITMAP
0000
0010
1FF8
0040
4182
489A
4C92
42A2
4082
42A2
4C9A
588A
4102
7FFE
4002
0000
ENDCHAR

STARTCHAR 1170
ENCODING 43240
SWIDTH 640 0
DWIDTH 16 0
BBX 16 16 0 -1
BITMAP
0000
0401
0241
7FE1
0209
0449
1889
0509
0249
0C89
3109
0301
0CC1
7047
0002
0000
ENDCHAR

STARTCHAR 1171
ENCODING 43241
SWIDTH 640 0
DWIDTH 16 0
BBX 16 16 0 -1
BITMAP
0000
0888
0488
0490
1FFC
0080
3FFE
0220
0418
1BF7
6112
0110
0210
0470
0820
0000
ENDCHAR

STARTCHAR 1172
ENCODING 43242
SWIDTH 640 0
DWIDTH 16 0
BBX 16 16 0 -1
BITMAP
0000
0021
1FF1
1025
1FE5
1105
1125
17F5
1525
1525
1525
2521
2561
4107
0102
0000
ENDCHAR

STARTCHAR 1173
ENCODING 43243
SWIDTH 640 0
DWIDTH 16 0
BBX 16 16 0 -1
BITMAP
0000
0401
0481
7FC1
0409
0489
3FC9
2489
2489
2589
0E09
1501
24C1
4447
0402
0000
ENDCHAR

STARTCHAR 1174
ENCODING 43244
SWIDTH 640 0
DWIDTH 16 0
BBX 16 16 0 -1
BITMAP
0000
0081
3FC1
0809
0909
1089
3FC9
0449
0409
3F89
0409
0409
07C1
7C07
2002
0000
ENDCHAR

STARTCHAR 1175
ENCODING 43245
SWIDTH 640 0
DWIDTH 16 0
BBX 16 16 0 -1
BITMAP
0000
00C1
0301
3C01
0409
0489
7FC9
0409
0489
3FC9
2089
2089
2081
3F87
2082
0000
ENDCHAR

STARTCHAR 1176
ENCODING 43246
SWIDTH 640 0
DWIDTH 16 0
BBX 16 16 0 -1
BITMAP
0000
0201
1201
1FC9
1209
2249
5FE9
0209
1FE9
1249
1249
1241
12C1
1247
0202
0000
ENDCHAR

STARTCHAR 1177
ENCODING 43247
SWIDTH 640 0
DWIDTH 16 0
BBX 16 16 0 -1
BITMAP
0000
0101
3F81
1109
1109
14C9
2409
7FC9
0409
0E09
1589
2481
4401
0407
0402
0000
ENDCHAR

STARTCHAR 1178
ENCODING 43248
SWIDTH 640 0
DWIDTH 16 0
BBX 16 16 0 -1
BITMAP
0000
0810
0490
7FD0
0812
097F
1112
3212
0C12
0912
1212
2422
0A22
124E
2084
0000
ENDCHAR

STARTCHAR 1179
ENCODING 43249
SWIDTH 640 0
DWIDTH 16 0
BBX 16 16 0 -1
BITMAP
0000
0090
7FD0
4010
4212
5F7F
4412
4412
5F12
4412
4512
5FA2
4022
7FCE
4084
0000
ENDCHAR

STARTCHAR 1180
ENCODING 43250
SWIDTH 640 0
DWIDTH 16 0
BBX 16 16 0 -1
BITMAP
0000
0100
0084
3FFE
0410
0410
0A28
1144
0080
0082
7FFF
0080
0080
0080
0080
0000
ENDCHAR

STARTCHAR 1181
ENCODING 43251
SWIDTH 640 0
DWIDTH 16 0
BBX 16 16 0 -1
BITMAP
0000
1040
1044
11FE
1044
7C44
109C
1188
1104
17DF
1249
1249
1451
15D7
1082
0000
ENDCHAR

STARTCHAR 1182
ENCODING 43252
SWIDTH 640 0
DWIDTH 16 0
BBX 16 16 0 -1
BITMAP
0000
0084
00FE
0080
0FF8
0808
0FF8
0808
0FF8
0888
0082
7FFF
0080
0080
0080
0000
ENDCHAR

STARTCHAR 1183
ENCODING 43253
SWIDTH 640 0
DWIDTH 16 0
BBX 16 16 0 -1
BITMAP
0000
0100
0208
0FFC
0888
0FF8
0888
0888
0FF8
0240
0442
7FFF
0040
0040
0040
0000
ENDCHAR

STARTCHAR 1184
ENCODING 43254
SWIDTH 640 0
DWIDTH 16 0
BBX 16 16 0 -1
BITMAP
0000
0408
0408
3F88
0408
040C
7FCA
0409
0409
3F88
0408
0408
7F88
2008
0008
0000
ENDCHAR

STARTCHAR 1185
ENCODING 43255
SWIDTH 640 0
DWIDTH 16 0
BBX 16 16 0 -1
BITMAP
0000
0888
0488
0490
3FFE
0100
7FFF
0420
0818
17F7
6412
0470
0424
0404
03FE
0000
ENDCHAR

STARTCHAR 1186
ENCODING 43256
SWIDTH 640 0
DWIDTH 16 0
BBX 16 16 0 -1
BITMAP
0000
1000
1100
1F82
247F
4522
3FA2
0422
1422
1722
142E
17A4
7C20
2020
0020
0000
ENDCHAR

STARTCHAR 1187
ENCODING 43257
SWIDTH 640 0
DWIDTH 16 0
BBX 16 16 0 -1
BITMAP
0000
0800
0802
103F
2092
7FD2
2A92
2A92
2A92
2A92
2A9A
2A94
7FD0
0010
0010
0000
ENDCHAR

STARTCHAR 1188
ENCODING 43258
SWIDTH 640 0
DWIDTH 16 0
BBX 16 16 0 -1
BITMAP
0000
0080
7FC0
1104
11FE
1F04
1144
1F44
1128
1128
1F10
7128
2124
0147
0182
0000
ENDCHAR

STARTCHAR 1189
ENCODING 43259
SWIDTH 640 0
DWIDTH 16 0
BBX 16 16 0 -1
BITMAP
0000
0400
0400
0782
043F
0482
7FC4
0424
1628
1510
2528
2428
4444
1C83
0902
0000
ENDCHAR

STARTCHAR 1190
ENCODING 43260
SWIDTH 640 0
DWIDTH 16 0
BBX 16 16 0 -1
BITMAP
0000
003C
1FC0
0908
0490
3FFF
2001
400A
0FFC
0210
0120
00C0
0330
0C0F
7004
0000
ENDCHAR

STARTCHAR 1191
ENCODING 43261
SWIDTH 640 0
DWIDTH 16 0
BBX 16 16 0 -1
BITMAP
0000
0020
0020
0824
7DFE
4820
4822
4BFF
4820
7870
48A8
0124
0223
0422
0020
0000
ENDCHAR

STARTCHAR 1192
ENCODING 43262
SWIDTH 640 0
DWIDTH 16 0
BBX 16 16 0 -1
BITMAP
0000
0002
03FF
0804
7C24
49F4
4924
4924
4924
79E4
4924
0004
0004
001C
0008
0000
ENDCHAR

STARTCHAR 1193
ENCODING 43328
SWIDTH 640 0
DWIDTH 16 0
BBX 16 16 0 -1
BITMAP
0000
0200
0200
0202
7A5F
4FF2
4A52
4A52
4A52
4A52
7A52
4A52
045E
09D2
1080
0000
ENDCHAR

STARTCHAR 1194
ENCODING 43329
SWIDTH 640 0
DWIDTH 16 0
BBX 16 16 0 -1
BITMAP
0000
0002
01FF
0810
7C20
4820
4848
48A4
78A2
4923
0221
0420
0022
03FF
0000
0000
ENDCHAR

STARTCHAR 1195
ENCODING 43330
SWIDTH 640 0
DWIDTH 16 0
BBX 16 16 0 -1
BITMAP
0000
0020
0020
0822
7DFF
4820
4820
4824
49FE
4904
7904
4904
0104
01FC
0104
0000
ENDCHAR

STARTCHAR 1196
ENCODING 43331
SWIDTH 640 0
DWIDTH 16 0
BBX 16 16 0 -1
BITMAP
0000
0008
09FC
7D08
4908
4908
49F8
4908
4908
79F8
4908
0108
010A
07FF
0000
0000
ENDCHAR

STARTCHAR 1197
ENCODING 43332
SWIDTH 640 0
DWIDTH 16 0
BBX 16 16 0 -1
BITMAP
0000
0020
0020
0824
7DFE
4924
4924
49FC
4924
4924
79FC
4924
0020
0020
0020
0000
ENDCHAR

STARTCHAR 1198
ENCODING 43333
SWIDTH 640 0
DWIDTH 16 0
BBX 16 16 0 -1
BITMAP
0000
0002
04FF
7E92
4492
44FE
4492
4492
44FE
7C92
4410
0010
0010
0010
0010
0000
ENDCHAR

STARTCHAR 1199
ENCODING 43334
SWIDTH 640 0
DWIDTH 16 0
BBX 16 16 0 -1
BITMAP
0000
0010
0010
0892
7C92
4892
48FE
4892
4810
4911
7911
4911
0111
01FF
0101
0000
ENDCHAR

STARTCHAR 1200
ENCODING 43335
SWIDTH 640 0
DWIDTH 16 0
BBX 16 16 0 -1
BITMAP
0000
0204
3F7E
2244
2244
3E7C
2244
0000
07E0
0420
0420
0422
0822
1022
201F
0000
ENDCHAR

STARTCHAR 1201
ENCODING 43336
SWIDTH 640 0
DWIDTH 16 0
BBX 16 16 0 -1
BITMAP
0000
0080
0084
08FE
7D04
4A24
49F4
4924
4924
49E4
791C
4908
0102
0102
00FF
0000
ENDCHAR

STARTCHAR 1202
ENCODING 43337
SWIDTH 640 0
DWIDTH 16 0
BBX 16 16 0 -1
BITMAP
0000
0004
001E
09E0
7C24
4924
48A8
4822
4BFF
7820
4820
0020
0020
00E0
0040
0000
ENDCHAR

STARTCHAR 1203
ENCODING 43338
SWIDTH 640 0
DWIDTH 16 0
BBX 16 16 0 -1
BITMAP
0000
0044
0044
0884
7C84
497F
4B04
4944
4924
4924
7904
4904
0104
011C
0108
0000
ENDCHAR

STARTCHAR 1204
ENCODING 43339
SWIDTH 640 0
DWIDTH 16 0
BBX 16 16 0 -1
BITMAP
0000
0004
000E
09F0
7D24
4924
4924
4924
4924
7924
4924
0252
024A
04F9
0809
0000
ENDCHAR

STARTCHAR 1205
ENCODING 43340
SWIDTH 640 0
DWIDTH 16 0
BBX 16 16 0 -1
BITMAP
0000
0100
0902
7D1F
4BC2
4952
4A52
4A52
4C92
7A94
4908
028C
0492
0823
0041
0000
ENDCHAR

STARTCHAR 1206
ENCODING 43341
SWIDTH 640 0
DWIDTH 16 0
BBX 16 16 0 -1
BITMAP
0000
0100
0380
3C00
0402
047F
7F42
0442
0C42
0E42
1542
2442
447E
0442
0400
0000
ENDCHAR

STARTCHAR 1207
ENCODING 43342
SWIDTH 640 0
DWIDTH 16 0
BBX 16 16 0 -1
BITMAP
0000
0040
0044
087E
7C84
4948
4A30
4848
4884
7B23
4812
0010
0040
0030
0010
0000
ENDCHAR

STARTCHAR 1208
ENCODING 43343
SWIDTH 640 0
DWIDTH 16 0
BBX 16 16 0 -1
BITMAP
0000
0004
01FE
0904
7D04
49FC
4900
4944
494C
7950
4A60
0242
0442
0842
103F
0000
ENDCHAR

ENDFONT
